SplineFontDB: 3.0
FontName: Oxygen
FullName: Oxygen
FamilyName: Oxygen
Weight: Regular
Copyright: Copyright (c) 2011 by vernon adams. All rights reserved.
Version: 1.000
FONDName: Oxygen
ItalicAngle: 0
UnderlinePosition: -103
UnderlineWidth: 102
Ascent: 1638
Descent: 410
UFOAscent: 1510
UFODescent: -410
LayerCount: 2
Layer: 0 0 "Back"  1
Layer: 1 0 "Fore"  0
FSType: 0
OS2Version: 0
OS2_WeightWidthSlopeOnly: 0
OS2_UseTypoMetrics: 0
CreationTime: 1332712004
ModificationTime: 1333885061
PfmFamily: 17
TTFWeight: 400
TTFWidth: 5
LineGap: 0
VLineGap: 0
Panose: 2 0 5 3 0 0 0 9 0 4
OS2TypoAscent: 2519
OS2TypoAOffset: 0
OS2TypoDescent: -672
OS2TypoDOffset: 0
OS2TypoLinegap: 0
OS2WinAscent: 2519
OS2WinAOffset: 0
OS2WinDescent: 672
OS2WinDOffset: 0
HheadAscent: 0
HheadAOffset: 1
HheadDescent: 0
HheadDOffset: 1
OS2Vendor: 'newt'
OS2CodePages: 20000007.00000000
OS2UnicodeRanges: 00000007.00000000.00000000.00000000
Lookup: 258 0 0 "'kern' Horizontal Kerning lookup 0"  {"'kern' Horizontal Kerning lookup 0 per glyph data 0"  "'kern' Horizontal Kerning lookup 0 kerning class 1"  } ['kern' ('DFLT' <'dflt' > 'latn' <'dflt' > ) ]
MarkAttachClasses: 1
DEI: 91125
KernClass2: 23 23 "'kern' Horizontal Kerning lookup 0 kerning class 1" 
 81 A Aacute Abreve Acircumflex Adieresis Agrave Amacron Aogonek Aring Atilde uni0202
 1 B
 75 D Eth O Oacute Ocircumflex Odieresis Ograve Oslash Otilde Q uni020C uni020E
 1 F
 1 K
 1 L
 1 P
 9 T uni021A
 45 U Uacute Ucircumflex Udieresis Ugrave uni0216
 1 V
 1 W
 18 Y Yacute Ydieresis
 69 b o oacute ocircumflex odieresis ograve oslash otilde p thorn uni020F
 1 e
 1 f
 27 k kcommaaccent kgreenlandic
 29 r rcaron rcommaaccent uni0213
 9 t uni021B
 1 v
 1 w
 1 x
 18 y yacute ydieresis
 81 A Aacute Abreve Acircumflex Adieresis Agrave Amacron Aogonek Aring Atilde uni0202
 108 C Cacute Ccaron Ccedilla G Gcedilla O OE Oacute Ocircumflex Odieresis Ograve Oslash Otilde Q uni020C uni020E
 9 T uni021A
 1 V
 1 W
 1 X
 18 Y Yacute Ydieresis

StartChar: A
Encoding: 65 65 1
Width: 1309
VWidth: 0
Flags: W
PickledData: "(dp1
S'com.typemytype.robofont.layerData'
p2
(dp3
S'back'
p4
(dp5
S'name'
p6
S'A'
sS'lib'
p7
(dp8
sS'unicodes'
p9
(tsS'width'
p10
I1309
sS'contours'
p11
(tsS'components'
p12
(tsS'anchors'
p13
(tsss."
HStem: 0 21G<6 194.526 1116.02 1303> 473 138<420 899> 1476 20G<556.54 783.045>
DStem2: 6 0 187 0 0.349476 0.936945<63.2551 568.637 717.157 1472.92>
LayerCount: 2
Fore
SplineSet
1123 0 m 1
 958 473 l 1
 365 473 l 1
 187 0 l 1
 6 0 l 1
 564 1496 l 1
 776 1496 l 1
 1303 0 l 1
 1123 0 l 1
420 611 m 1
 899 611 l 1
 671 1324 l 1
 420 611 l 1
EndSplineSet
EndChar

StartChar: AE
Encoding: 198 198 2
Width: 2092
VWidth: 0
Flags: W
HStem: 0 158<1342 1966> 427 162<564 1130> 724 158<1300 1911> 1409 159<1017 1069 1241 1946>
DStem2: 85 0 258 0 0.463416 0.886141<80.1709 561.431 743.913 743.913> 1241 1409 1069 1409 0.0806449 -0.996743<0 528.429 687.527 808.378 971.624 1255.07>
LayerCount: 2
Fore
SplineSet
1069 1409 m 1
 1017 1409 l 1
 564 589 l 1
 1130 589 l 1
 1069 1409 l 1
85 0 m 1
 905 1568 l 1
 1946 1568 l 1
 1946 1409 l 1
 1241 1409 l 1
 1280 882 l 1
 1911 882 l 1
 1911 724 l 1
 1300 724 l 1
 1342 158 l 1
 1966 158 l 1
 1966 0 l 1
 1183 0 l 1
 1152 427 l 1
 480 427 l 1
 258 0 l 1
 85 0 l 1
EndSplineSet
EndChar

StartChar: Alphatonos
Encoding: 902 902 9
Width: 468
VWidth: 0
Flags: W
HStem: 532 264<135.446 338.917>
VStem: 104 266<562.284 765.716>
LayerCount: 2
Fore
SplineSet
237 796 m 0
 326 796 370 730 370 664 c 0
 370 598 326 532 237 532 c 0
 149 532 104 598 104 664 c 0
 104 730 149 796 237 796 c 0
EndSplineSet
EndChar

StartChar: B
Encoding: 66 66 14
Width: 1286
VWidth: 0
Flags: W
PickledData: "(dp1
S'com.typemytype.robofont.layerData'
p2
(dp3
S'back'
p4
(dp5
S'name'
p6
S'B'
sS'lib'
p7
(dp8
sS'unicodes'
p9
(tsS'width'
p10
I1286
sS'contours'
p11
(tsS'components'
p12
(tsS'anchors'
p13
(tsss."
HStem: 0 139<324 878.638> 716 134<324 874.125> 1352 144<324 849.87>
VStem: 147 177<139 716 850 1352> 966 185<941.184 1251.18> 1033 180<267.089 589.986>
LayerCount: 2
Fore
SplineSet
147 0 m 1xf4
 147 1496 l 1
 583 1496 l 2
 944 1496 1151 1395 1151 1131 c 0xf8
 1151 988 1090 851 939 801 c 1
 1127 761 1213 585 1213 426 c 0
 1213 163 1059 0 670 0 c 2
 147 0 l 1xf4
324 1352 m 1
 324 850 l 1
 678 850 l 2
 817 850 966 885 966 1096 c 0
 966 1321 800 1352 557 1352 c 2
 324 1352 l 1
324 716 m 1
 324 139 l 1
 637 139 l 2
 897 139 1033 227 1033 428 c 0xf4
 1033 616 912 716 688 716 c 2
 324 716 l 1
EndSplineSet
EndChar

StartChar: C
Encoding: 67 67 16
Width: 1289
VWidth: 0
Flags: W
PickledData: "(dp1
S'com.typemytype.robofont.layerData'
p2
(dp3
S'back'
p4
(dp5
S'name'
p6
S'C'
sS'lib'
p7
(dp8
sS'unicodes'
p9
(tsS'width'
p10
I1289
sS'contours'
p11
(tsS'components'
p12
(tsS'anchors'
p13
(tsss."
HStem: -23 152<608.013 1051.75> 1373 152<610.869 1053.17>
VStem: 99 189<478.485 1014.64>
LayerCount: 2
Fore
SplineSet
814 1525 m 0
 1011 1525 1148 1473 1251 1389 c 1
 1187 1254 l 1
 1103 1319 973 1373 819 1373 c 0
 456 1373 288 1078 288 746 c 0
 288 429 435 129 829 129 c 0
 979 129 1106 186 1188 252 c 1
 1246 107 l 1
 1147 19 1009 -23 815 -23 c 0
 345 -23 99 322 99 745 c 0
 99 1187 353 1525 814 1525 c 0
EndSplineSet
EndChar

StartChar: D
Encoding: 68 68 23
Width: 1511
VWidth: 0
Flags: W
PickledData: "(dp1
S'com.typemytype.robofont.layerData'
p2
(dp3
S'back'
p4
(dp5
S'name'
p6
S'D'
sS'lib'
p7
(dp8
sS'unicodes'
p9
(tsS'width'
p10
I1511
sS'contours'
p11
(tsS'components'
p12
(tsS'anchors'
p13
(tsss."
HStem: 0 155<324 898.017> 1341 155<324 864.934>
VStem: 147 177<155 1341> 1223 189<466.572 1007.02>
LayerCount: 2
Fore
SplineSet
147 0 m 1
 147 1496 l 1
 519 1496 l 2
 1036 1496 1412 1315 1412 738 c 0
 1412 240 1093 0 621 0 c 2
 147 0 l 1
324 1341 m 1
 324 155 l 1
 639 155 l 2
 1005 155 1223 347 1223 734 c 0
 1223 1205 949 1341 540 1341 c 2
 324 1341 l 1
EndSplineSet
EndChar

StartChar: Delta
Encoding: 916 916 26
Width: 1265
VWidth: 0
Flags: W
HStem: 0 155<231 1038> 1476 20G<531.66 731.366>
LayerCount: 2
Fore
SplineSet
-10 0 m 1
 539 1496 l 1
 724 1496 l 1
 1275 0 l 1
 -10 0 l 1
1038 155 m 1
 632 1306 l 1
 231 155 l 1
 1038 155 l 1
EndSplineSet
EndChar

StartChar: E
Encoding: 69 69 27
Width: 1148
VWidth: 0
Flags: W
PickledData: "(dp1
S'com.typemytype.robofont.layerData'
p2
(dp3
S'back'
p4
(dp5
S'name'
p6
S'E'
sS'lib'
p7
(dp8
sS'unicodes'
p9
(tsS'width'
p10
I1148
sS'contours'
p11
(tsS'components'
p12
(tsS'anchors'
p13
(tsss."
HStem: 0 155<324 1043> 692 153<324 987> 1341 155<324 1015>
VStem: 147 177<155 692 845 1341>
LayerCount: 2
Fore
SplineSet
987 845 m 1
 987 692 l 1
 324 692 l 1
 324 155 l 1
 1058 155 l 1
 1043 0 l 1
 147 0 l 1
 147 1496 l 1
 1029 1496 l 1
 1015 1341 l 1
 324 1341 l 1
 324 845 l 1
 987 845 l 1
EndSplineSet
EndChar

StartChar: Eng
Encoding: 330 330 35
Width: 1420
VWidth: 0
Flags: W
HStem: -328 153<639 1017.03> 0 21G<145.973 322> 1358 162<594.849 987.919> 1476 20G<144 305.698>
VStem: 144 160<1327.15 1496> 146 176<0 1148.02> 1094 175<-96.2684 1251.76>
LayerCount: 2
Fore
SplineSet
839 -328 m 0xe6
 811 -328 761 -326 639 -314 c 1
 616 -166 l 1
 752 -174 773 -175 794 -175 c 0
 1071 -175 1094 -101 1094 171 c 2
 1094 1003 l 2
 1094 1269 1020 1358 804 1358 c 0
 586 1358 417 1232 322 1089 c 1
 322 0 l 1
 146 0 l 1xe6
 144 1496 l 1
 304 1496 l 1xda
 322 1284 l 1
 503 1480 683 1520 857 1520 c 0
 1128 1520 1269 1341 1269 1009 c 2
 1269 165 l 2
 1269 -143 1200 -328 839 -328 c 0xe6
EndSplineSet
EndChar

StartChar: Epsilontonos
Encoding: 904 904 38
Width: 468
VWidth: 0
Flags: W
HStem: 532 264<135.446 338.917>
VStem: 104 266<562.284 765.716>
LayerCount: 2
Fore
SplineSet
237 796 m 0
 326 796 370 730 370 664 c 0
 370 598 326 532 237 532 c 0
 149 532 104 598 104 664 c 0
 104 730 149 796 237 796 c 0
EndSplineSet
EndChar

StartChar: Etatonos
Encoding: 905 905 40
Width: 468
VWidth: 0
Flags: W
HStem: 532 264<135.446 338.917>
VStem: 104 266<562.284 765.716>
LayerCount: 2
Fore
SplineSet
237 796 m 0
 326 796 370 730 370 664 c 0
 370 598 326 532 237 532 c 0
 149 532 104 598 104 664 c 0
 104 730 149 796 237 796 c 0
EndSplineSet
EndChar

StartChar: Eth
Encoding: 208 208 41
Width: 1522
VWidth: 0
Flags: W
PickledData: "(dp1
S'com.typemytype.robofont.layerData'
p2
(dp3
S'back'
p4
(dp5
S'name'
p6
S'Eth'
p7
sS'lib'
p8
(dp9
sS'unicodes'
p10
(tsS'width'
p11
I1522
sS'contours'
p12
(tsS'components'
p13
(tsS'anchors'
p14
(tsss."
HStem: 0 155<324 898.017> 697 135<29 566> 1341 155<324 864.934>
VStem: 147 177<155 1341> 1223 189<466.572 1007.02>
LayerCount: 2
Fore
SplineSet
29 697 m 1
 29 832 l 1
 566 832 l 1
 566 697 l 1
 29 697 l 1
EndSplineSet
Refer: 23 68 N 1 0 0 1 0 0 2
EndChar

StartChar: Euro
Encoding: 8364 8364 42
Width: 1210
VWidth: 0
Flags: W
HStem: -22 157<633.87 983.692> 69 175<913 1088> 580 103<123 215 419 941> 845 112<124 218 425 966> 1369 155<640.773 989.866>
VStem: 213 189<683 845>
LayerCount: 2
Fore
SplineSet
106 580 m 1xbc
 123 683 l 1
 215 683 l 1
 214 699 213 715 213 731 c 0
 213 769 216 808 218 845 c 1
 105 845 l 1
 124 957 l 1
 234 957 l 1
 285 1288 468 1524 796 1524 c 0
 920 1524 1012 1494 1088 1429 c 1
 1087 1249 l 1
 1020 1322 927 1369 818 1369 c 0
 590 1369 466 1203 425 957 c 1
 983 957 l 1
 966 845 l 1
 407 845 l 1
 402 796 404 684 402 683 c 1
 951 683 l 1
 941 580 l 1
 419 580 l 1
 447 345 564 135 800 135 c 0xbc
 896 135 992 169 1088 244 c 1
 1087 69 l 1x7c
 999 5 900 -22 781 -22 c 0
 433 -22 270 287 227 580 c 1
 106 580 l 1xbc
EndSplineSet
EndChar

StartChar: F
Encoding: 70 70 43
Width: 1025
VWidth: 0
Flags: W
HStem: 0 21G<147 324> 695 143<324 940> 1341 155<324 960>
VStem: 147 177<0 695 838 1341>
LayerCount: 2
Fore
SplineSet
940 838 m 1
 940 695 l 1
 324 695 l 1
 324 0 l 1
 147 0 l 1
 147 1496 l 1
 974 1496 l 1
 960 1341 l 1
 324 1341 l 1
 324 838 l 1
 940 838 l 1
EndSplineSet
EndChar

StartChar: G
Encoding: 71 71 44
Width: 1432
VWidth: 0
Flags: W
PickledData: "(dp1
S'com.typemytype.robofont.layerData'
p2
(dp3
S'back'
p4
(dp5
S'name'
p6
S'G'
sS'lib'
p7
(dp8
sS'unicodes'
p9
(tsS'width'
p10
I1432
sS'contours'
p11
(tsS'components'
p12
(tsS'anchors'
p13
(tsss."
HStem: -23 152<602.639 1063.6> 615 149<809 1167> 1373 152<610.109 1054.87>
VStem: 101 189<468.703 1015.76> 1167 154<196.377 615>
LayerCount: 2
Fore
SplineSet
811 -23 m 0
 338 -23 101 335 101 745 c 0
 101 1164 334 1525 816 1525 c 0
 1008 1525 1161 1472 1275 1380 c 1
 1210 1243 l 1
 1129 1309 976 1373 830 1373 c 0
 451 1373 290 1074 290 745 c 0
 290 413 451 129 830 129 c 0
 955 129 1101 179 1167 220 c 1
 1167 615 l 1
 797 615 l 1
 809 764 l 1
 1321 764 l 1
 1321 123 l 1
 1142 15 1002 -23 811 -23 c 0
EndSplineSet
EndChar

StartChar: H
Encoding: 72 72 51
Width: 1465
VWidth: 0
Flags: W
HStem: 0 21G<147 324 1141 1318> 696 152<324 1141> 1476 20G<147 324 1141 1318>
VStem: 147 177<0 696 848 1496> 1141 177<0 696 848 1496>
LayerCount: 2
Fore
SplineSet
1141 696 m 1
 324 696 l 1
 324 0 l 1
 147 0 l 1
 147 1496 l 1
 324 1496 l 1
 324 848 l 1
 1141 848 l 1
 1141 1496 l 1
 1318 1496 l 1
 1318 0 l 1
 1141 0 l 1
 1141 696 l 1
EndSplineSet
EndChar

StartChar: Hbar
Encoding: 294 294 52
Width: 1463
VWidth: 0
Flags: W
HStem: 0 21G<147 324 1141 1318> 696 152<324 1141> 1146 105<57 147 324 1141 1318 1408> 1476 20G<147 324 1141 1318>
VStem: 147 177<0 696 848 1146 1251 1496> 1141 177<0 696 848 1146 1251 1496>
LayerCount: 2
Fore
SplineSet
324 1146 m 1
 324 848 l 1
 1141 848 l 1
 1141 1146 l 1
 324 1146 l 1
1141 696 m 1
 324 696 l 1
 324 0 l 1
 147 0 l 1
 147 1146 l 1
 57 1146 l 1
 57 1251 l 1
 147 1251 l 1
 147 1496 l 1
 324 1496 l 1
 324 1251 l 1
 1141 1251 l 1
 1141 1496 l 1
 1318 1496 l 1
 1318 1251 l 1
 1408 1251 l 1
 1408 1146 l 1
 1318 1146 l 1
 1318 0 l 1
 1141 0 l 1
 1141 696 l 1
EndSplineSet
EndChar

StartChar: I
Encoding: 73 73 54
Width: 509
VWidth: 0
Flags: W
HStem: 0 21G<163 340> 1476 20G<163 340>
VStem: 163 177<0 1496>
LayerCount: 2
Fore
SplineSet
340 1496 m 1
 340 0 l 1
 163 0 l 1
 163 1496 l 1
 340 1496 l 1
EndSplineSet
EndChar

StartChar: IJ
Encoding: 306 306 55
Width: 1464
VWidth: 0
Flags: W
HStem: -28 167<854 1068.27> 0 21G<155 334>
VStem: 155 179<0 1557> 1133 176<203.881 1557>
LayerCount: 2
Fore
SplineSet
334 1557 m 1x70
 334 0 l 1
 155 0 l 1
 155 1557 l 1
 334 1557 l 1x70
1133 409 m 2
 1133 1557 l 1
 1309 1557 l 1
 1309 461 l 2
 1309 133 1277 -28 887 -28 c 2
 854 -28 l 1
 854 139 l 1
 907 139 l 1xb0
 1121 144 1133 251 1133 409 c 2
EndSplineSet
EndChar

StartChar: Iotatonos
Encoding: 906 906 66
Width: 468
VWidth: 0
Flags: W
HStem: 532 264<135.446 338.917>
VStem: 104 266<562.284 765.716>
LayerCount: 2
Fore
SplineSet
237 796 m 0
 326 796 370 730 370 664 c 0
 370 598 326 532 237 532 c 0
 149 532 104 598 104 664 c 0
 104 730 149 796 237 796 c 0
EndSplineSet
EndChar

StartChar: J
Encoding: 74 74 68
Width: 550
VWidth: 0
Flags: W
HStem: -214 142<-19 170.838> 1476 20G<226 403>
VStem: 226 177<-20.1204 1496>
LayerCount: 2
Fore
SplineSet
226 181 m 2
 226 1496 l 1
 403 1496 l 1
 403 241 l 2
 403 -67 368 -214 16 -214 c 2
 -19 -214 l 1
 -40 -72 l 1
 34 -72 l 2
 216 -72 226 33 226 181 c 2
EndSplineSet
EndChar

StartChar: K
Encoding: 75 75 70
Width: 1228
VWidth: 0
Flags: W
HStem: 0 21G<146 323 1022.93 1263> 1476 20G<146 323 943.424 1194>
VStem: 146 177<0 602 770 1496> 961 233<1263 1496> 1040 223<0 223>
DStem2: 323 770 582 799 0.660115 0.751165<192.753 966.499> 582 799 440 703 0.648671 -0.761069<0 905.185>
LayerCount: 2
Fore
SplineSet
582 799 m 1xf0
 1263 0 l 1
 1040 0 l 1xe8
 440 703 l 1
 323 602 l 1
 323 0 l 1
 146 0 l 1
 146 1496 l 1
 323 1496 l 1
 323 770 l 1
 961 1496 l 1
 1194 1496 l 1
 582 799 l 1xf0
EndSplineSet
EndChar

StartChar: L
Encoding: 76 76 73
Width: 980
VWidth: 0
Flags: W
PickledData: "(dp1
S'com.typemytype.robofont.layerData'
p2
(dp3
S'back'
p4
(dp5
S'name'
p6
S'L'
sS'lib'
p7
(dp8
sS'unicodes'
p9
(tsS'width'
p10
I980
sS'contours'
p11
(tsS'components'
p12
(tsS'anchors'
p13
(tsss."
HStem: 0 155<325 970> 1476 20G<148 325>
VStem: 148 177<155 1496>
LayerCount: 2
Fore
SplineSet
148 1496 m 1
 325 1496 l 1
 325 155 l 1
 982 155 l 1
 970 0 l 1
 148 0 l 1
 148 1496 l 1
EndSplineSet
EndChar

StartChar: Lambda
Encoding: 923 923 75
Width: 1265
VWidth: 0
Flags: W
HStem: 0 21G<-10 183.968 1085.94 1275> 1476 20G<531.66 731.366>
DStem2: 724 1496 632 1306 0.345618 -0.938375<146.494 1531.34>
LayerCount: 2
Fore
SplineSet
632 1306 m 1
 177 0 l 1
 -10 0 l 1
 539 1496 l 1
 724 1496 l 1
 1275 0 l 1
 1093 0 l 1
 632 1306 l 1
EndSplineSet
EndChar

StartChar: Lslash
Encoding: 321 321 79
Width: 960
VWidth: 0
Flags: W
HStem: 0 155<325 970> 1476 20<148 325>
VStem: 148 177<155 1496>
DStem2: 0 675 0 527 0.876901 0.480672<0 694.772>
LayerCount: 2
Fore
SplineSet
0 527 m 1
 0 675 l 1
 675 1045 l 1
 675 889 l 1
 0 527 l 1
EndSplineSet
Refer: 73 76 N 1 0 0 1 0 0 2
EndChar

StartChar: M
Encoding: 77 77 80
Width: 1785
VWidth: 0
Flags: W
HStem: 0 21G<149 316 1470 1636> 1476 20G<149 350.73 1443.37 1636>
VStem: 149 167<0 1181> 1470 166<0 1175>
DStem2: 341 1496 316 1181 0.437483 -0.899227<272.319 1277.76> 900 347 998 183 0.433674 0.90107<0 993.28>
LayerCount: 2
Fore
SplineSet
316 1181 m 1
 316 0 l 1
 149 0 l 1
 149 1496 l 1
 341 1496 l 1
 900 347 l 1
 1453 1496 l 1
 1636 1496 l 1
 1636 0 l 1
 1470 0 l 1
 1470 1175 l 1
 998 183 l 1
 797 183 l 1
 316 1181 l 1
EndSplineSet
EndChar

StartChar: N
Encoding: 78 78 82
Width: 1488
VWidth: 0
Flags: W
HStem: 0 21G<147 314 1130.6 1341> 1476 20G<147 354.467 1178 1341>
VStem: 147 167<0 1239> 1178 163<253 1496>
DStem2: 341 1496 314 1239 0.558544 -0.829475<198.094 1498.54>
LayerCount: 2
Fore
SplineSet
1341 0 m 1
 1144 0 l 1
 314 1239 l 1
 314 0 l 1
 147 0 l 1
 147 1496 l 1
 341 1496 l 1
 1178 253 l 1
 1178 1496 l 1
 1341 1496 l 1
 1341 0 l 1
EndSplineSet
EndChar

StartChar: O
Encoding: 79 79 88
Width: 1657
VWidth: 0
Flags: W
PickledData: "(dp1
S'com.typemytype.robofont.layerData'
p2
(dp3
S'back'
p4
(dp5
S'name'
p6
S'O'
sS'lib'
p7
(dp8
sS'unicodes'
p9
(tsS'width'
p10
I1657
sS'contours'
p11
(tsS'components'
p12
(tsS'anchors'
p13
(tsss."
HStem: -23 152<600.395 1057.32> 1373 152<600.295 1051.4>
VStem: 99 189<469.975 1029.5> 1369 189<469.975 1028.62>
LayerCount: 2
Fore
SplineSet
829 -23 m 0
 349 -23 99 308 99 746 c 0
 99 1211 366 1525 829 1525 c 0
 1292 1525 1558 1211 1558 746 c 0
 1558 308 1308 -23 829 -23 c 0
829 1373 m 0
 469 1373 288 1123 288 746 c 0
 288 402 453 129 829 129 c 0
 1205 129 1369 402 1369 746 c 0
 1369 1119 1190 1373 829 1373 c 0
EndSplineSet
EndChar

StartChar: OE
Encoding: 338 338 89
Width: 1980
VWidth: 0
Flags: W
PickledData: "(dp1
S'com.typemytype.robofont.layerData'
p2
(dp3
S'back'
p4
(dp5
S'name'
p6
S'OE'
p7
sS'lib'
p8
(dp9
sS'unicodes'
p10
(tsS'width'
p11
I1980
sS'contours'
p12
(tsS'components'
p13
(tsS'anchors'
p14
(tsss."
HStem: -23 152<600.206 1036.85> 0 156<1325 1883> 692 153<1325 1821> 1341 154<1325 1857> 1373 151<600.648 1032.25>
VStem: 101 190<475.859 1023.68> 1148 177<198.981 692 845 1290.22>
LayerCount: 2
Fore
SplineSet
800 1524 m 0xae
 948 1524 1073 1478 1148 1413 c 1
 1148 1495 l 1
 1874 1495 l 1
 1857 1341 l 1
 1325 1341 l 1
 1325 845 l 1
 1821 845 l 1
 1821 692 l 1
 1325 692 l 1
 1325 156 l 1
 1898 156 l 1
 1883 0 l 1
 1148 0 l 1x76
 1148 82 l 1
 1105 36 940 -23 823 -23 c 0
 348 -23 101 299 101 771 c 1
 111 1207 398 1524 800 1524 c 0xae
1148 1259 m 1
 1071 1322 955 1373 815 1373 c 0
 491 1373 299 1121 291 773 c 1
 291 418 433 133 824 129 c 1xae
 953 129 1100 193 1148 222 c 1
 1148 1259 l 1
EndSplineSet
EndChar

StartChar: Omegatonos
Encoding: 911 911 98
Width: 468
VWidth: 0
Flags: W
HStem: 532 264<135.446 338.917>
VStem: 104 266<562.284 765.716>
LayerCount: 2
Fore
SplineSet
237 796 m 0
 326 796 370 730 370 664 c 0
 370 598 326 532 237 532 c 0
 149 532 104 598 104 664 c 0
 104 730 149 796 237 796 c 0
EndSplineSet
EndChar

StartChar: Omicrontonos
Encoding: 908 908 100
Width: 468
VWidth: 0
Flags: W
HStem: 532 264<135.446 338.917>
VStem: 104 266<562.284 765.716>
LayerCount: 2
Fore
SplineSet
237 796 m 0
 326 796 370 730 370 664 c 0
 370 598 326 532 237 532 c 0
 149 532 104 598 104 664 c 0
 104 730 149 796 237 796 c 0
EndSplineSet
EndChar

StartChar: Oslash
Encoding: 216 216 101
Width: 1717
VWidth: 0
Flags: W
HStem: -25 177<690.252 1076.99> 1409 177<628.561 1029.96>
VStem: 121 190<505.079 1055.93> 1390 191<509.566 1060.06>
DStem2: 419 -137 544 -180 0.374023 0.927419<6.87384 209.481 392.562 1628.39 1815.95 2029.29>
LayerCount: 2
Fore
SplineSet
851 1409 m 0
 490 1409 311 1133 311 785 c 0
 311 540 395 331 566 227 c 1
 1032 1382 l 1
 978 1400 918 1409 851 1409 c 0
1178 1745 m 1
 1309 1699 l 1
 1227 1497 l 1
 1456 1369 1581 1118 1581 778 c 0
 1581 311 1331 -25 851 -25 c 0
 766 -25 689 -15 619 5 c 1
 544 -180 l 1
 419 -137 l 1
 496 53 l 1
 249 178 121 446 121 778 c 0
 121 1270 388 1586 851 1586 c 0
 941 1586 1024 1574 1100 1551 c 1
 1178 1745 l 1
688 173 m 1
 737 159 791 152 851 152 c 0
 1215 152 1390 429 1390 785 c 0
 1390 1015 1312 1213 1155 1322 c 1
 688 173 l 1
EndSplineSet
EndChar

StartChar: P
Encoding: 80 80 103
Width: 1159
VWidth: 0
Flags: W
PickledData: "(dp1
S'com.typemytype.robofont.layerData'
p2
(dp3
S'back'
p4
(dp5
S'name'
p6
S'P'
sS'lib'
p7
(dp8
sS'unicodes'
p9
(tsS'width'
p10
I1159
sS'contours'
p11
(tsS'components'
p12
(tsS'anchors'
p13
(tsss."
HStem: 0 21G<146 323> 625 153<323 813.475> 1337 159<323 837.494>
VStem: 146 177<0 638 780 1337> 950 180<898.945 1236.81>
LayerCount: 2
Fore
SplineSet
323 0 m 1
 146 0 l 1
 146 1496 l 1
 628 1496 l 2
 912 1496 1130 1382 1130 1093 c 0
 1130 815 1010 625 567 625 c 0
 505 625 399 631 323 638 c 1
 323 0 l 1
584 778 m 0
 923 778 950 941 950 1090 c 0
 950 1267 817 1337 632 1337 c 2
 323 1337 l 1
 323 780 l 1
 323 780 516 778 584 778 c 0
EndSplineSet
EndChar

StartChar: Phi
Encoding: 934 934 104
Width: 1661
VWidth: 0
Flags: W
HStem: 0 170<740 917> 170 153<587 740 917 1070> 1205 153<587 740 917 1070> 1358 138<740 917>
VStem: 101 189<572.115 972.659> 740 177<0 167 320.127 1207.87 1361 1496> 1371 189<571.48 972.573>
LayerCount: 2
Fore
SplineSet
917 0 m 1x8e
 740 0 l 1
 740 170 l 1
 769 168 800 167 831 167 c 0
 861 167 889 168 917 170 c 1
 917 0 l 1x8e
917 170 m 1
 917 323 l 1
 1232 352 1371 540 1371 772 c 0
 1371 1010 1221 1179 917 1205 c 1
 917 1358 l 1x6e
 1327 1330 1560 1101 1560 772 c 0
 1560 449 1340 199 917 170 c 1
917 1358 m 1
 889 1360 860 1361 831 1361 c 0
 800 1361 769 1360 740 1358 c 1x2e
 740 1496 l 1
 917 1496 l 1x1e
 917 1358 l 1
917 1205 m 1
 917 323 l 1
 890 321 861 319 831 319 c 0
 799 319 769 320 740 323 c 1x6e
 740 1205 l 1
 769 1208 799 1209 831 1209 c 0
 861 1209 890 1207 917 1205 c 1
740 1358 m 1
 740 1205 l 1
 441 1178 290 1012 290 772 c 0
 290 541 428 353 740 323 c 1x6e
 740 170 l 1x8e
 320 201 101 450 101 772 c 0
 101 1100 333 1329 740 1358 c 1
EndSplineSet
EndChar

StartChar: Pi
Encoding: 928 928 105
Width: 1465
VWidth: 0
Flags: W
HStem: 0 21G<147 324 1141 1318> 1344 152<324 1141>
VStem: 147 177<0 1344> 1141 177<0 1344>
LayerCount: 2
Fore
SplineSet
1141 1344 m 1
 324 1344 l 1
 324 0 l 1
 147 0 l 1
 147 1496 l 1
 1318 1496 l 1
 1318 0 l 1
 1141 0 l 1
 1141 1344 l 1
EndSplineSet
EndChar

StartChar: Psi
Encoding: 936 936 106
Width: 468
VWidth: 0
Flags: W
HStem: 532 264<135.446 338.917>
VStem: 104 266<562.284 765.716>
LayerCount: 2
Fore
SplineSet
237 796 m 0
 326 796 370 730 370 664 c 0
 370 598 326 532 237 532 c 0
 149 532 104 598 104 664 c 0
 104 730 149 796 237 796 c 0
EndSplineSet
EndChar

StartChar: Q
Encoding: 81 81 107
Width: 1657
VWidth: 0
Flags: W
PickledData: "(dp1
S'com.typemytype.robofont.layerData'
p2
(dp3
S'back'
p4
(dp5
S'name'
p6
S'Q'
sS'lib'
p7
(dp8
sS'unicodes'
p9
(tsS'width'
p10
I1657
sS'contours'
p11
(tsS'components'
p12
(tsS'anchors'
p13
(tsss."
HStem: -470 21G<1247.5 1286.67> -23 152<600.395 1057.32> 1373 152<600.295 1051.4>
VStem: 99 189<469.975 1029.5> 1369 189<469.975 1028.62>
LayerCount: 2
Fore
SplineSet
1267 -470 m 1
 1228 -431 1027 -192 942 -17 c 1
 945 -16 1072 49 1111 26 c 1
 1177 -120 1354 -322 1385 -350 c 1
 1267 -470 l 1
EndSplineSet
Refer: 88 79 N 1 0 0 1 0 0 2
EndChar

StartChar: R
Encoding: 82 82 108
Width: 1339
VWidth: 0
Flags: W
PickledData: "(dp1
S'com.typemytype.robofont.layerData'
p2
(dp3
S'back'
p4
(dp5
S'name'
p6
S'R'
sS'lib'
p7
(dp8
sS'unicodes'
p9
(tsS'width'
p10
I1339
sS'contours'
p11
(tsS'components'
p12
(tsS'anchors'
p13
(tsss."
HStem: 0 21G<147 324 1063.21 1272> 684 153<324 782.198> 1341 155<324 935.069>
VStem: 147 177<0 692 841 1341> 1028 174<932.188 1255.08>
DStem2: 1272 0 868 464 0.420601 -0.907246<-804.808 -84.1201>
LayerCount: 2
Fore
SplineSet
1272 0 m 1
 1072 0 l 1
 868 464 l 2
 829 552 793 638 762 689 c 1
 733 687 623 684 589 684 c 0
 570 684 324 692 324 692 c 1
 324 0 l 1
 147 0 l 1
 147 1496 l 1
 620 1496 l 2
 976 1496 1202 1442 1202 1105 c 0
 1202 920 1113 776 920 724 c 0
 917 723 995 598 1030 522 c 2
 1272 0 l 1
324 1341 m 1
 324 841 l 1
 679 837 l 2
 950 834 1028 923 1028 1102 c 0
 1028 1258 949 1341 720 1341 c 2
 324 1341 l 1
EndSplineSet
EndChar

StartChar: S
Encoding: 83 83 113
Width: 1227
VWidth: 0
Flags: W
PickledData: "(dp1
S'com.typemytype.robofont.layerData'
p2
(dp3
S'back'
p4
(dp5
S'name'
p6
S'S'
sS'lib'
p7
(dp8
sS'unicodes'
p9
(tsS'width'
p10
I1227
sS'contours'
p11
(tsS'components'
p12
(tsS'anchors'
p13
(tsss."
HStem: -23 153<325.329 841.423> 1372 153<402.167 915.533>
VStem: 96 180<997.626 1266.27> 966 179<250.526 573.533>
DStem2: 498 906 433 749 0.969753 -0.244088<-189.032 475.764>
LayerCount: 2
Fore
SplineSet
146 244 m 1
 280 178 450 130 641 130 c 0
 853 130 966 224 966 426 c 0
 966 546 917 627 727 675 c 2
 433 749 l 2
 227 801 96 911 96 1109 c 0
 96 1400 314 1525 642 1525 c 0
 825 1525 987 1482 1089 1418 c 1
 1039 1277 l 1
 960 1321 800 1372 638 1372 c 0
 400 1372 276 1294 276 1121 c 0
 276 1004 354 941 498 906 c 2
 779 838 l 2
 1003 784 1145 676 1145 432 c 0
 1145 121 936 -23 630 -23 c 0
 370 -23 185 44 94 100 c 1
 146 244 l 1
EndSplineSet
EndChar

StartChar: T
Encoding: 84 84 119
Width: 1066
VWidth: 0
Flags: W
PickledData: "(dp1
S'com.typemytype.robofont.layerData'
p2
(dp3
S'back'
p4
(dp5
S'name'
p6
S'T'
sS'lib'
p7
(dp8
sS'unicodes'
p9
(tsS'width'
p10
I1066
sS'contours'
p11
(tsS'components'
p12
(tsS'anchors'
p13
(tsss."
HStem: 0 21G<444 621> 1341 155<-3 444 621 1069>
VStem: 444 177<0 1341>
LayerCount: 2
Fore
SplineSet
-3 1341 m 1
 -3 1496 l 1
 1069 1496 l 1
 1069 1341 l 1
 621 1341 l 1
 621 0 l 1
 444 0 l 1
 444 1341 l 1
 -3 1341 l 1
EndSplineSet
EndChar

StartChar: Tbar
Encoding: 358 358 121
Width: 1050
VWidth: 0
Flags: W
HStem: 0 21<444 621> 531 123<256 764> 1341 155<-3 444 621 1069>
VStem: 444 177<0 1341>
LayerCount: 2
Fore
SplineSet
256 531 m 1
 256 654 l 1
 764 654 l 1
 764 531 l 1
 256 531 l 1
EndSplineSet
Refer: 119 84 N 1 0 0 1 0 0 2
EndChar

StartChar: Theta
Encoding: 920 920 123
Width: 468
VWidth: 0
Flags: W
HStem: 532 264<135.446 338.917>
VStem: 104 266<562.284 765.716>
LayerCount: 2
Fore
SplineSet
237 796 m 0
 326 796 370 730 370 664 c 0
 370 598 326 532 237 532 c 0
 149 532 104 598 104 664 c 0
 104 730 149 796 237 796 c 0
EndSplineSet
EndChar

StartChar: Thorn
Encoding: 222 222 124
Width: 1291
VWidth: 0
Flags: W
HStem: 0 21G<147 324> 342 151<324 905.713> 1068 149<324 912.289> 1476 20G<147 324>
VStem: 147 177<0 349 493 1068 1217 1496> 1040 169<615.21 950.542>
LayerCount: 2
Fore
SplineSet
147 0 m 1
 147 1496 l 1
 324 1496 l 1
 324 1217 l 1
 648 1217 l 2
 1008 1217 1209 1107 1209 791 c 0
 1209 525 1066 342 719 342 c 0
 711 342 324 349 324 349 c 1
 324 0 l 1
 147 0 l 1
324 1068 m 1
 324 493 l 1
 708 493 l 2
 956 493 1040 615 1040 782 c 0
 1040 979 941 1068 666 1068 c 2
 324 1068 l 1
EndSplineSet
EndChar

StartChar: U
Encoding: 85 85 125
Width: 1386
VWidth: 0
Flags: W
HStem: -23 148<461.397 914.765> 1476 20G<127 304 1073 1250>
VStem: 127 177<289.941 1496> 1073 177<289.941 1496>
LayerCount: 2
Fore
SplineSet
688 -23 m 0
 253 -23 127 202 127 523 c 2
 127 1496 l 1
 304 1496 l 1
 304 529 l 2
 304 237 418 125 688 125 c 0
 957 125 1073 237 1073 529 c 2
 1073 1496 l 1
 1250 1496 l 1
 1250 523 l 2
 1250 202 1124 -23 688 -23 c 0
EndSplineSet
EndChar

StartChar: Upsilontonos
Encoding: 910 910 136
Width: 468
VWidth: 0
Flags: W
HStem: 532 264<135.446 338.917>
VStem: 104 266<562.284 765.716>
LayerCount: 2
Fore
SplineSet
237 796 m 0
 326 796 370 730 370 664 c 0
 370 598 326 532 237 532 c 0
 149 532 104 598 104 664 c 0
 104 730 149 796 237 796 c 0
EndSplineSet
EndChar

StartChar: V
Encoding: 86 86 139
Width: 1265
VWidth: 0
Flags: W
HStem: 0 21G<528.701 735.313> 1476 20G<-10 187.928 1009.5 1275>
DStem2: 181 1496 -10 1496 0.342852 -0.939389<0 1377.71> 632 194 728 0 0.343406 0.939187<0 1379.76>
LayerCount: 2
Fore
SplineSet
632 194 m 1
 632 194 930 1052 1089 1496 c 1
 1275 1496 l 1
 728 0 l 1
 536 0 l 1
 -10 1496 l 1
 181 1496 l 1
 632 194 l 1
EndSplineSet
EndChar

StartChar: W
Encoding: 87 87 140
Width: 2131
VWidth: 0
Flags: W
HStem: 0 21G<469.275 690.531 1429.27 1651.86> 1476 20G<-27 162.62 1969.31 2158>
DStem2: 156 1496 -27 1496 0.318698 -0.947856<0 1368.31> 1186 1442 1084 1225 0.273804 -0.961785<180.779 1296.55> 1541 195 1645 0 0.324373 0.945929<0 1371.76>
LayerCount: 2
Fore
SplineSet
1541 195 m 1
 1976 1496 l 1
 2158 1496 l 1
 1645 0 l 1
 1435 0 l 1
 1084 1225 l 1
 684 0 l 1
 476 0 l 1
 -27 1496 l 1
 156 1496 l 1
 586 197 l 1
 976 1442 l 1
 1186 1442 l 1
 1541 195 l 1
EndSplineSet
EndChar

StartChar: X
Encoding: 88 88 145
Width: 1299
VWidth: 0
Flags: W
HStem: 0 21G<11 219.147 1070.35 1288> 1476 20G<43 270.344 1075.76 1280>
VStem: 11 195<0 195> 43 214<1282 1496> 1083 205<0 205 1291 1496>
DStem2: 11 0 206 0 0.583188 0.812337<113.722 760.807 1103.09 1844.52> 257 1496 43 1496 0.570807 -0.821084<0 725.97 1280.29 1699.83>
LayerCount: 2
Fore
SplineSet
11 0 m 1xe8
 536 781 l 1
 43 1496 l 1
 257 1496 l 1xd8
 660 892 l 1
 1090 1496 l 1
 1280 1496 l 1
 781 781 l 1
 1288 0 l 1
 1083 0 l 1
 653 680 l 1
 206 0 l 1
 11 0 l 1xe8
EndSplineSet
EndChar

StartChar: Xi
Encoding: 926 926 146
Width: 468
VWidth: 0
Flags: W
HStem: 532 264<135.446 338.917>
VStem: 104 266<562.284 765.716>
LayerCount: 2
Fore
SplineSet
237 796 m 0
 326 796 370 730 370 664 c 0
 370 598 326 532 237 532 c 0
 149 532 104 598 104 664 c 0
 104 730 149 796 237 796 c 0
EndSplineSet
EndChar

StartChar: Y
Encoding: 89 89 147
Width: 1242
VWidth: 0
Flags: W
HStem: 0 21G<510 687> 1476 20G<-1 198.783 1038.72 1243>
VStem: -1 188<1308 1496> 510 177<0 614> 1051 192<1304 1496>
DStem2: 187 1496 -1 1496 0.501307 -0.86527<0 833.316> 610 778 687 614 0.533271 0.845944<0 842.561>
LayerCount: 2
Fore
SplineSet
1243 1496 m 1
 687 614 l 1
 687 0 l 1
 510 0 l 1
 510 614 l 1
 -1 1496 l 1
 187 1496 l 1
 610 778 l 1
 1051 1496 l 1
 1243 1496 l 1
EndSplineSet
EndChar

StartChar: Z
Encoding: 90 90 152
Width: 1200
VWidth: 0
Flags: W
HStem: 0 155<315 1137> 1341 155<125 922>
DStem2: 91 139 315 155 0.568964 0.822362<140.606 1461.29>
LayerCount: 2
Fore
SplineSet
1157 1496 m 1
 1157 1372 l 1
 315 155 l 1
 1149 155 l 1
 1137 0 l 1
 91 0 l 1
 91 139 l 1
 922 1341 l 1
 125 1341 l 1
 125 1496 l 1
 1157 1496 l 1
EndSplineSet
EndChar

StartChar: a
Encoding: 97 97 157
Width: 1057
VWidth: 0
Flags: W
PickledData: "(dp1
S'com.typemytype.robofont.layerData'
p2
(dp3
S'back'
p4
(dp5
S'name'
p6
S'a'
sS'lib'
p7
(dp8
sS'unicodes'
p9
(tsS'width'
p10
I1052
sS'contours'
p11
(tsS'components'
p12
(tsS'anchors'
p13
(tsss."
HStem: -25 132<313.387 618.052> 0 21G<795.5 933> 525 118<436.659 765.921> 983 141<279.984 707.243>
VStem: 95 168<155.863 411.269> 766 167<221.281 539 650.712 917.588> 796 137<0 119.914>
LayerCount: 2
Fore
SplineSet
771 120 m 5x7a
 675 12 543 -25 428 -25 c 4
 247 -25 95 70 95 275 c 4
 95 563 373 602 656 643 c 4
 657 643 766 656 766 656 c 5
 766 781 l 6
 766 914 701 983 550 983 c 4
 429 983 297 953 207 909 c 4
 206 909 161 1041 161 1041 c 5
 244 1087 391 1124 546 1124 c 4
 763 1124 933 1051 933 806 c 6xbc
 933 0 l 5
 796 0 l 5
 795 1 771 120 771 120 c 5x7a
446 107 m 4
 550 107 695 170 766 269 c 5
 766 539 l 6
 766 538 669 525 666 525 c 4
 354 484 263 434 263 280 c 4
 263 157 341 107 446 107 c 4
EndSplineSet
EndChar

StartChar: acute
Encoding: 180 180 161
Width: 639
VWidth: 0
Flags: W
HStem: 1250 388
VStem: 128 439
LayerCount: 2
Fore
SplineSet
567 1638 m 1
 242 1250 l 1
 128 1250 l 1
 314 1638 l 1
 567 1638 l 1
EndSplineSet
EndChar

StartChar: ae
Encoding: 230 230 163
Width: 1674
VWidth: 0
Flags: W
HStem: -26 139<292.547 636.782 1040.54 1381.71> 499 114<396.491 713.652 888 1085.57> 534 110<1148.92 1400.76> 976 148<258.041 666.579 1021.52 1328.54>
VStem: 80 168<156.444 399.864> 714 174<282.77 499 616 814.864> 1404 162<644 885.752>
LayerCount: 2
Fore
SplineSet
1189 984 m 0xbe
 988 984 899 821 888 615 c 1
 1404 644 l 1
 1404 647 1404 651 1404 654 c 0
 1402 882 1336 984 1189 984 c 0xbe
416 113 m 0
 527 113 673 170 787 208 c 1
 742 290 717 386 711 499 c 1xde
 689 498 667 497 647 495 c 0
 326 471 248 410 248 291 c 0
 248 158 320 113 416 113 c 0
80 300 m 0
 80 564 348 596 651 613 c 0xde
 672 614 693 615 714 616 c 1
 714 781 l 2
 714 914 665 976 524 976 c 0
 387 976 251 938 168 894 c 1
 132 1032 l 1
 212 1078 370 1124 520 1124 c 0
 679 1124 807 1062 837 932 c 1
 910 1063 1047 1124 1192 1124 c 0
 1465 1124 1566 909 1566 684 c 0
 1566 588 1540 542 1379 534 c 2xbe
 882 509 l 1
 898 275 981 119 1194 119 c 0
 1323 119 1447 180 1517 229 c 1
 1569 108 l 1
 1488 38 1359 -25 1183 -25 c 0
 1039 -25 936 24 856 112 c 1
 738 39 560 -26 404 -26 c 0
 230 -26 80 59 80 300 c 0
EndSplineSet
EndChar

StartChar: afii10024
Encoding: 1046 1046 165
Width: 1746
VWidth: 0
Flags: W
HStem: 0 21G<-43 193.022 786 962 1554.43 1789> 1477 20G<35 261.254 786 962 1483.83 1712>
VStem: -43 222<0 222> 35 211<1286 1497> 786 176<0 578 789 1497> 1499 213<1284 1497> 1568 221<0 221>
DStem2: -43 0 179 0 0.582171 0.813066<129.242 1003.65> 246 1497 35 1497 0.606449 -0.795122<0 717.659> 962 789 1210 833 0.604313 0.796747<184.926 888.613> 1210 833 1076 725 0.570747 -0.821126<12.2016 888.325>
LayerCount: 2
Fore
SplineSet
962 1497 m 1xd8
 962 789 l 1
 1499 1497 l 1
 1712 1497 l 1xdc
 1210 833 l 1
 1789 0 l 1
 1568 0 l 1
 1076 725 l 1
 962 578 l 1
 962 0 l 1
 786 0 l 1
 786 578 l 1
 681 716 l 1
 179 0 l 1
 -43 0 l 1xea
 547 824 l 1
 35 1497 l 1
 246 1497 l 1
 786 789 l 1
 786 1497 l 1
 962 1497 l 1xd8
EndSplineSet
EndChar

StartChar: afii10025
Encoding: 1047 1047 166
Width: 1148
VWidth: 0
Flags: W
HStem: -23 152<289.353 741.97> 677 160<421 724.574> 1372 152<317.881 725.266>
VStem: 848 174<956.693 1246.31> 882 176<255.636 549.58>
LayerCount: 2
Fore
SplineSet
539 677 m 2xe8
 421 677 l 1
 421 837 l 1
 548 837 l 2
 761 837 848 973 848 1098 c 2
 848 1113 l 1
 839 1280 710 1372 557 1372 c 0
 427 1372 279 1323 188 1270 c 1
 122 1403 l 1
 234 1488 388 1524 568 1524 c 0
 879 1524 1022 1295 1022 1134 c 0xf0
 1022 955 914 807 785 769 c 1
 924 737 1058 587 1058 402 c 0
 1058 148 883 -23 535 -23 c 0
 338 -23 185 34 85 103 c 1
 148 246 l 1
 234 183 380 129 532 129 c 0
 719 129 882 208 882 403 c 0
 882 543 786 677 539 677 c 2xe8
EndSplineSet
EndChar

StartChar: afii10026
Encoding: 1048 1048 167
Width: 1489
VWidth: 0
Flags: W
HStem: 0 21G<147 359.671 1181 1342> 1477 20G<147 310 1009.5 1342>
VStem: 147 163<261 1497> 1181 161<0 1230>
DStem2: 310 261 346 0 0.557446 0.830213<0 1290.01>
LayerCount: 2
Fore
SplineSet
147 0 m 1
 147 1497 l 1
 310 1497 l 1
 310 261 l 1
 584 679 870 1084 1149 1497 c 1
 1342 1497 l 1
 1342 0 l 1
 1181 0 l 1
 1181 1230 l 1
 1089 1087 l 1
 346 0 l 1
 147 0 l 1
EndSplineSet
EndChar

StartChar: afii10037
Encoding: 1059 1059 170
Width: 1211
VWidth: 0
Flags: W
HStem: 0 21G<342 547.011> 1476 20G<-1 210.151 1006.18 1212>
DStem2: 200 1496 -1 1496 0.457543 -0.889187<0 963.301> 342 0 538 0 0.41077 0.911739<80.5109 501.684 701.544 1721.33>
LayerCount: 2
Fore
SplineSet
538 0 m 1
 342 0 l 1
 529 466 l 1
 -1 1496 l 1
 200 1496 l 1
 636 637 l 1
 1015 1496 l 1
 1212 1496 l 1
 538 0 l 1
EndSplineSet
EndChar

StartChar: afii10040
Encoding: 1062 1062 171
Width: 1488
VWidth: 0
Flags: W
HStem: -265 21G<1257 1432> 0 155<324 1139> 1476 20G<147 324 1139 1316>
VStem: 147 177<155 1496> 1139 177<155 1496> 1257 175<-265 0>
LayerCount: 2
Fore
SplineSet
1139 155 m 1xf8
 1139 1496 l 1
 1316 1496 l 1
 1316 155 l 1xf8
 1432 155 l 1
 1432 -265 l 1
 1257 -265 l 1
 1257 0 l 1xf4
 147 0 l 1
 147 1496 l 1
 324 1496 l 1
 324 155 l 1
 1139 155 l 1xf8
EndSplineSet
EndChar

StartChar: afii10041
Encoding: 1063 1063 172
Width: 1238
VWidth: 0
Flags: W
HStem: 0 21G<915 1092> 507 165<414.047 740.611> 1476 20G<123 300 915 1092>
VStem: 123 177<790.907 1496> 915 177<0 682 805.041 1496>
LayerCount: 2
Fore
SplineSet
915 873 m 2
 915 1496 l 1
 1092 1496 l 1
 1092 0 l 1
 915 0 l 1
 915 682 l 1
 835 564 677 507 538 507 c 0
 285 507 123 653 123 916 c 2
 123 1496 l 1
 300 1496 l 1
 300 1014 l 2
 300 775 390 672 575 672 c 0
 719 672 915 806 915 873 c 2
EndSplineSet
EndChar

StartChar: afii10043
Encoding: 1065 1065 173
Width: 1735
VWidth: 0
Flags: W
HStem: -265 21G<1462 1639> 0 155<324 747 924 1348> 1476 20G<147 324 747 924 1348 1525>
VStem: 147 177<155 1496> 747 177<155 1496> 1348 177<155 1496> 1462 177<-265 0>
LayerCount: 2
Fore
SplineSet
1462 -265 m 1xfa
 1462 0 l 1xfa
 147 0 l 1
 147 1496 l 1
 324 1496 l 1
 324 155 l 1
 747 155 l 1
 747 1496 l 1
 924 1496 l 1
 924 155 l 1
 1348 155 l 1
 1348 1496 l 1
 1525 1496 l 1
 1525 155 l 1xfc
 1639 155 l 1
 1639 -265 l 1
 1462 -265 l 1xfa
EndSplineSet
EndChar

StartChar: afii10047
Encoding: 1069 1069 174
Width: 1325
VWidth: 0
Flags: W
HStem: -23 152<274.217 721.602> 664 154<342 1031> 1373 152<272.665 723.675>
VStem: 1031 193<468.436 664 818 1038.13>
LayerCount: 2
Fore
SplineSet
520 -23 m 0
 323 -23 175 29 72 113 c 1
 136 248 l 1
 219 184 358 129 511 129 c 0
 831 129 1002 370 1031 664 c 1
 342 664 l 1
 342 818 l 1
 1033 818 l 1
 1015 1111 868 1373 500 1373 c 0
 350 1373 217 1316 135 1250 c 1
 77 1395 l 1
 178 1483 325 1525 523 1525 c 0
 987 1525 1224 1180 1224 757 c 0
 1224 315 981 -23 520 -23 c 0
EndSplineSet
EndChar

StartChar: afii10051
Encoding: 1026 1026 175
Width: 1026
VWidth: 0
Flags: W
HStem: 0 21G<424 601> 1341 155<-23 424 601 1049>
VStem: 424 177<0 1341>
LayerCount: 2
Fore
SplineSet
-23 1341 m 1
 -23 1496 l 1
 1049 1496 l 1
 1049 1341 l 1
 601 1341 l 1
 601 0 l 1
 424 0 l 1
 424 1341 l 1
 -23 1341 l 1
EndSplineSet
EndChar

StartChar: afii10053
Encoding: 1028 1028 176
Width: 1325
VWidth: 0
Flags: W
HStem: -23 152<574.398 1021.78> 664 154<265 954> 1373 152<575.528 1021.82>
VStem: 72 193<468.436 664 818 1038.13>
LayerCount: 2
Fore
SplineSet
265 664 m 1
 294 370 465 129 785 129 c 0
 938 129 1077 184 1160 248 c 1
 1224 113 l 1
 1121 29 973 -23 776 -23 c 0
 315 -23 72 315 72 757 c 0
 72 1180 312 1525 782 1525 c 0
 976 1525 1120 1483 1219 1395 c 1
 1161 1250 l 1
 1079 1316 946 1373 796 1373 c 0
 428 1373 281 1111 263 818 c 1
 954 818 l 1
 954 664 l 1
 265 664 l 1
EndSplineSet
EndChar

StartChar: afii10060
Encoding: 1035 1035 178
Width: 1026
VWidth: 0
Flags: W
HStem: 0 21G<424 601> 1341 155<-23 424 601 1049>
VStem: 424 177<0 1341>
LayerCount: 2
Fore
SplineSet
-23 1341 m 1
 -23 1496 l 1
 1049 1496 l 1
 1049 1341 l 1
 601 1341 l 1
 601 0 l 1
 424 0 l 1
 424 1341 l 1
 -23 1341 l 1
EndSplineSet
EndChar

StartChar: afii10066
Encoding: 1073 1073 181
Width: 1015
VWidth: 0
Flags: W
HStem: 0 134<283 699.452> 579 136<283 710.829> 956 142<283 844>
VStem: 115 168<134 579 715 956> 793 162<234.026 497.435>
LayerCount: 2
Fore
SplineSet
583 579 m 2
 283 579 l 1
 283 134 l 1
 583 134 l 2
 716 134 793 272 793 371 c 0
 793 470 716 579 583 579 c 2
115 1098 m 1
 844 1098 l 1
 844 956 l 1
 283 956 l 1
 283 715 l 1
 565 715 l 2
 834 715 955 548 955 368 c 0
 955 188 834 0 565 0 c 2
 115 0 l 1
 115 1098 l 1
EndSplineSet
EndChar

StartChar: afii10067
Encoding: 1074 1074 182
Width: 1033
VWidth: 0
Flags: W
HStem: 0 134<283 735.475> 500 137<283 715.19> 956 142<283 715.742>
VStem: 115 168<134 500 637 956> 774 160<692.902 903.733> 807 161<203.869 425.799>
LayerCount: 2
Fore
SplineSet
968 316 m 1xf4
 968 150 843 0 567 0 c 2
 115 0 l 1
 115 1098 l 1
 567 1098 l 2
 826 1098 934 956 934 808 c 0xf8
 934 719 891 625 788 575 c 1
 908 524 963 412 968 316 c 1xf4
576 500 m 2
 283 500 l 1
 283 134 l 1
 576 134 l 2
 724 134 807 212 807 326 c 1xf4
 802 410 724 500 576 500 c 2
283 637 m 1
 576 637 l 2
 709 637 774 719 774 796 c 0xf8
 774 887 709 956 576 956 c 2
 283 956 l 1
 283 637 l 1
EndSplineSet
EndChar

StartChar: afii10072
Encoding: 1078 1078 184
Width: 1506
VWidth: 0
Flags: W
HStem: 0 21G<17 237.721 671 836 1269.28 1490> 1078 20G<27 243.624 671 836 1263.38 1480>
VStem: 17 203<0 203 895 1098> 671 165<0 509 593 1098> 1287 203<0 203 895 1098>
DStem2: 17 0 220 0 0.666174 0.745796<135.233 753.557> 226 1098 27 1098 0.676222 -0.736698<0 593.003> 836 593 988 562 0.676222 0.736698<79.9482 672.951> 988 562 836 509 0.666174 -0.745796<0 618.324>
CounterMasks: 1 38
LayerCount: 2
Fore
SplineSet
671 593 m 1
 671 1098 l 1
 836 1098 l 1
 836 593 l 1
 1281 1098 l 1
 1480 1098 l 1
 988 562 l 1
 1490 0 l 1
 1287 0 l 1
 836 509 l 1
 836 0 l 1
 671 0 l 1
 671 509 l 1
 220 0 l 1
 17 0 l 1
 519 562 l 1
 27 1098 l 1
 226 1098 l 1
 671 593 l 1
EndSplineSet
EndChar

StartChar: afii10073
Encoding: 1079 1079 185
Width: 956
VWidth: 0
Flags: W
HStem: -25 139<200.087 616.626> 502 131<284 613.756> 986 138<212.735 599.194>
VStem: 672 163<691.676 919.627> 706 164<196.231 430.319>
LayerCount: 2
Fore
SplineSet
424 -25 m 0xe8
 297 -25 147 6 70 86 c 1
 91 133 109 154 128 201 c 1
 196 144 316 114 436 114 c 0
 616 114 706 204 706 317 c 0xe8
 706 408 633 502 478 502 c 2
 284 502 l 1
 284 633 l 1
 478 633 l 2
 616 633 672 727 672 806 c 0
 672 908 599 986 423 986 c 0
 307 986 176 937 128 890 c 1
 128 890 85 978 70 1013 c 1
 151 1096 300 1124 427 1124 c 0
 726 1124 835 972 835 819 c 0xf0
 835 726 806 629 668 574 c 1
 819 532 865 419 870 311 c 1
 870 130 743 -25 424 -25 c 0xe8
EndSplineSet
EndChar

StartChar: afii10076
Encoding: 1082 1082 186
Width: 997
VWidth: 0
Flags: W
HStem: 0 21G<115 283 742.747 990> 956 154<771.831 937>
VStem: 115 168<0 474 605 1098> 763 227<0 227>
DStem2: 423 542 283 474 0.722863 -0.690991<0 620.291>
LayerCount: 2
Fore
SplineSet
283 605 m 1
 485 834 l 2
 658 1030 705 1110 860 1110 c 0
 887 1110 901 1105 937 1098 c 1
 937 947 l 1
 910 951 886 956 865 956 c 0
 770 956 688 805 524 642 c 2
 423 542 l 1
 990 0 l 1
 763 0 l 1
 283 474 l 1
 283 0 l 1
 115 0 l 1
 115 1098 l 1
 283 1098 l 1
 283 605 l 1
EndSplineSet
EndChar

StartChar: afii10088
Encoding: 1094 1094 187
Width: 1106
VWidth: 0
Flags: W
HStem: -269 21G<922.257 1056> 0 134<296 789> 1078 20G<128 296 789 957>
VStem: 128 168<134 1098> 789 168<136 1098> 923 133<-269 0>
LayerCount: 2
Fore
SplineSet
913 0 m 1xf4
 128 0 l 1
 128 1098 l 1
 296 1098 l 1
 296 134 l 1
 789 134 l 1
 789 1098 l 1
 957 1098 l 1
 957 136 l 1xf8
 1056 136 l 1
 1056 -269 l 1
 923 -269 l 1
 913 0 l 1xf4
EndSplineSet
EndChar

StartChar: afii10091
Encoding: 1097 1097 188
Width: 1372
VWidth: 0
Flags: W
HStem: -238 21G<1170 1307> 0 134<283 577 745 1039> 1078 20G<115 283 577 745 1039 1207>
VStem: 115 168<134 1098> 577 168<134 1098> 1039 168<134 1098> 1170 137<-238 0>
LayerCount: 2
Fore
SplineSet
1170 -238 m 1xfa
 1170 0 l 1xfa
 115 0 l 1
 115 1098 l 1
 283 1098 l 1
 283 134 l 1
 577 134 l 1
 577 1098 l 1
 745 1098 l 1
 745 134 l 1
 1039 134 l 1
 1039 1098 l 1
 1207 1098 l 1
 1207 134 l 1xfc
 1307 134 l 1
 1307 -238 l 1
 1170 -238 l 1xfa
EndSplineSet
EndChar

StartChar: afii10093
Encoding: 1099 1099 189
Width: 1322
VWidth: 0
Flags: W
HStem: 0 21G<1039 1207> 0 134<283 648.849> 562 136<283 652.265> 1078 20G<115 283 1039 1207>
VStem: 115 168<134 562 698 1098> 725 162<210.445 494.809> 1039 168<0 1098>
LayerCount: 2
Fore
SplineSet
1207 1098 m 1xbe
 1207 0 l 1
 1039 0 l 1
 1039 1098 l 1
 1207 1098 l 1xbe
EndSplineSet
Refer: 190 1100 N 1 0 0 1 0 0 2
EndChar

StartChar: afii10094
Encoding: 1100 1100 190
Width: 952
VWidth: 0
Flags: W
HStem: 0 134<283 648.849> 562 136<283 652.265> 1078 20G<115 283>
VStem: 115 168<134 562 698 1098> 725 162<210.445 494.809>
LayerCount: 2
Fore
SplineSet
283 1098 m 1
 283 698 l 1
 508 698 l 2
 776 698 887 538 887 358 c 0
 887 178 783 0 515 0 c 2
 115 0 l 1
 115 1098 l 1
 283 1098 l 1
532 562 m 2
 283 562 l 1
 283 134 l 1
 539 134 l 2
 671 134 725 262 725 361 c 0
 725 460 664 562 532 562 c 2
EndSplineSet
EndChar

StartChar: afii10095
Encoding: 1101 1101 191
Width: 1002
VWidth: 0
Flags: W
HStem: -25 138<174.626 549.082> 477 142<275 738> 986 138<174.371 553.247>
VStem: 738 177<319.049 477 619 786.091>
LayerCount: 2
Fore
SplineSet
380 -25 m 0
 241 -25 123 11 55 70 c 1
 101 195 l 1
 193 139 282 113 370 113 c 0
 578 113 715 257 738 477 c 1
 275 477 l 1
 275 619 l 1
 738 619 l 1
 716 840 596 986 369 986 c 0
 261 986 167 945 100 902 c 1
 54 1024 l 1
 132 1091 259 1124 377 1124 c 0
 742 1124 915 853 915 545 c 0
 915 249 736 -25 380 -25 c 0
EndSplineSet
EndChar

StartChar: afii10097
Encoding: 1103 1103 192
Width: 1045
VWidth: 0
Flags: W
HStem: 0 21G<74 283.157 762 930> 439 140<475 762> 956 142<319.949 762>
VStem: 74 164<649.742 880.797> 762 168<0 439 579 956>
DStem2: 74 0 274 0 0.444871 0.895595<88.9741 512.509>
LayerCount: 2
Fore
SplineSet
762 0 m 1
 762 439 l 1
 475 439 l 1
 274 0 l 1
 74 0 l 1
 302 459 l 1
 147 507 74 634 74 762 c 0
 74 933 186 1098 455 1098 c 2
 930 1098 l 1
 930 0 l 1
 762 0 l 1
444 579 m 2
 762 579 l 1
 762 956 l 1
 444 956 l 2
 311 956 238 853 238 762 c 0
 238 678 311 579 444 579 c 2
EndSplineSet
EndChar

StartChar: afii10099
Encoding: 1106 1106 193
Width: 1113
VWidth: 0
Flags: W
HStem: -283 142<617 808.108> 0 21G<115 283> 739 153<458.401 759.618> 1098 116<21 115 283 698> 1490 20G<115 283>
VStem: 115 168<0 582.197 713 1098 1214 1510> 840 168<-107.323 646.632>
LayerCount: 2
Fore
SplineSet
283 495 m 1
 283 0 l 1
 115 0 l 1
 115 1098 l 1
 21 1098 l 1
 21 1214 l 1
 115 1214 l 1
 115 1510 l 1
 283 1510 l 1
 283 1214 l 1
 698 1214 l 1
 698 1098 l 1
 283 1098 l 1
 283 713 l 1
 371 824 486 892 636 892 c 0
 893 892 1008 733 1008 445 c 2
 1008 158 l 2
 1008 -148 985 -283 688 -283 c 2
 617 -283 l 1
 605 -141 l 1
 648 -141 l 2
 820 -141 840 -110 840 104 c 2
 840 368 l 2
 840 616 807 739 620 739 c 0
 449 739 310 599 283 495 c 1
EndSplineSet
EndChar

StartChar: afii10101
Encoding: 1108 1108 194
Width: 1002
VWidth: 0
Flags: W
HStem: -25 138<419.918 794.374> 477 142<231 694> 986 138<415.753 794.629>
VStem: 54 177<319.049 477 619 786.091>
LayerCount: 2
Fore
SplineSet
589 -25 m 0
 233 -25 54 249 54 545 c 0
 54 853 227 1124 592 1124 c 0
 710 1124 837 1091 915 1024 c 1
 869 902 l 1
 802 945 708 986 600 986 c 0
 373 986 253 840 231 619 c 1
 694 619 l 1
 694 477 l 1
 231 477 l 1
 254 257 391 113 599 113 c 0
 687 113 776 139 868 195 c 1
 914 70 l 1
 846 11 728 -25 589 -25 c 0
EndSplineSet
EndChar

StartChar: afii10106
Encoding: 1113 1113 197
Width: 952
VWidth: 0
Flags: W
HStem: -25 153<138 286.641> 0 134<1123 1474.85> 562 136<1123 1478.26> 956 142<484 955>
VStem: 316 168<152.003 956> 955 168<134 562 698 956> 1551 162<210.445 494.809>
LayerCount: 2
Fore
SplineSet
1123 562 m 1x7e
 1123 134 l 1
 1365 134 l 2
 1497 134 1551 262 1551 361 c 0
 1551 460 1490 562 1358 562 c 2
 1123 562 l 1x7e
316 409 m 2
 316 1098 l 1
 1123 1098 l 1
 1123 698 l 1
 1334 698 l 2
 1602 698 1713 538 1713 358 c 0
 1713 178 1609 0 1341 0 c 2
 955 0 l 1x7e
 955 956 l 1
 484 956 l 1
 484 419 l 2
 484 91 480 -25 175 -25 c 2
 138 -25 l 1
 128 128 l 1
 175 128 l 2xbe
 314 128 316 185 316 409 c 2
EndSplineSet
EndChar

StartChar: afii10107
Encoding: 1114 1114 198
Width: 1621
VWidth: 0
Flags: W
HStem: 0 134<933 1280.85> 518 135<283 765> 562 136<933 1284.26> 1078 20G<115 283 765 933>
VStem: 115 168<0 518 653 1098> 765 168<134 518 698 1098> 1357 162<210.445 494.809>
LayerCount: 2
Fore
SplineSet
933 562 m 1xbe
 933 134 l 1
 1171 134 l 2
 1303 134 1357 262 1357 361 c 0
 1357 460 1296 562 1164 562 c 2
 933 562 l 1xbe
115 1098 m 1
 283 1098 l 1
 283 653 l 1
 765 653 l 1xde
 765 1098 l 1
 933 1098 l 1
 933 698 l 1
 1140 698 l 2xbe
 1408 698 1519 538 1519 358 c 0
 1519 178 1415 0 1147 0 c 2
 765 0 l 1
 765 518 l 1
 283 518 l 1xde
 283 0 l 1
 115 0 l 1
 115 1098 l 1
EndSplineSet
EndChar

StartChar: afii10108
Encoding: 1115 1115 199
Width: 1113
VWidth: 0
Flags: W
HStem: 0 21G<115 283 840 1008> 739 153<458.401 759.618> 1099 116<21 115 283 698> 1490 20G<115 283>
VStem: 115 168<0 582.197 713 1099 1215 1510> 840 168<0 646.632>
LayerCount: 2
Fore
SplineSet
283 495 m 1
 283 0 l 1
 115 0 l 1
 115 1099 l 1
 21 1099 l 1
 21 1215 l 1
 115 1215 l 1
 115 1510 l 1
 283 1510 l 1
 283 1215 l 1
 698 1215 l 1
 698 1099 l 1
 283 1099 l 1
 283 713 l 1
 371 824 486 892 636 892 c 0
 893 892 1008 733 1008 445 c 2
 1008 0 l 1
 840 0 l 1
 840 368 l 2
 840 616 807 739 620 739 c 0
 449 739 310 599 283 495 c 1
EndSplineSet
EndChar

StartChar: afii10145
Encoding: 1039 1039 202
Width: 1463
VWidth: 0
Flags: W
HStem: 0 154<324 1139> 1476 20G<147 324 1139 1316>
VStem: 147 177<154 1496> 1139 177<154 1496>
LayerCount: 2
Fore
SplineSet
1139 154 m 1
 1139 1496 l 1
 1316 1496 l 1
 1316 0 l 1
 147 0 l 1
 147 1496 l 1
 324 1496 l 1
 324 154 l 1
 1139 154 l 1
EndSplineSet
EndChar

StartChar: afii10193
Encoding: 1119 1119 203
Width: 1106
VWidth: 0
Flags: W
HStem: -278 21G<492.64 629.504> 0 134<283 488 636 789> 1078 20G<115 283 789 957>
VStem: 115 168<134 1098> 493 136<-278 0> 789 168<134 1098>
LayerCount: 2
Fore
SplineSet
488 0 m 1
 115 0 l 1
 115 1098 l 1
 283 1098 l 1
 283 134 l 1
 789 134 l 1
 789 1098 l 1
 957 1098 l 1
 957 0 l 1
 636 0 l 1
 629 -278 l 1
 493 -278 l 1
 488 0 l 1
EndSplineSet
EndChar

StartChar: afii57929
Encoding: 700 700 204
Width: 504
VWidth: 0
Flags: W
HStem: 1102 472<226 249>
VStem: 133 250
LayerCount: 2
Fore
SplineSet
133 1102 m 1
 226 1574 l 1
 383 1574 l 1
 249 1102 l 1
 133 1102 l 1
EndSplineSet
EndChar

StartChar: alpha
Encoding: 945 945 207
Width: 468
VWidth: 0
Flags: W
HStem: 532 264<135.446 338.917>
VStem: 104 266<562.284 765.716>
LayerCount: 2
Fore
SplineSet
237 796 m 0
 326 796 370 730 370 664 c 0
 370 598 326 532 237 532 c 0
 149 532 104 598 104 664 c 0
 104 730 149 796 237 796 c 0
EndSplineSet
EndChar

StartChar: alphatonos
Encoding: 940 940 208
Width: 468
VWidth: 0
Flags: W
HStem: 532 264<135.446 338.917>
VStem: 104 266<562.284 765.716>
LayerCount: 2
Fore
SplineSet
237 796 m 0
 326 796 370 730 370 664 c 0
 370 598 326 532 237 532 c 0
 149 532 104 598 104 664 c 0
 104 730 149 796 237 796 c 0
EndSplineSet
EndChar

StartChar: ampersand
Encoding: 38 38 210
Width: 1477
VWidth: 0
Flags: W
HStem: -23 155<420.996 844.438> 1345 144<514.971 796.772>
VStem: 104 177<258.087 550.942> 268 187<1028.79 1285.4> 858 188<1052.02 1287.02>
DStem2: 707 804 544 726 0.683083 -0.730341<0 587.232>
LayerCount: 2
Fore
SplineSet
441 839 m 1xe8
 338 952 268 1034 268 1165 c 0xd8
 268 1365 421 1489 657 1489 c 0
 861 1489 1046 1389 1046 1182 c 0
 1046 1006 896 892 707 804 c 1
 1108 375 l 1
 1165 435 1214 518 1250 599 c 1
 1371 507 l 1
 1331 419 1276 332 1212 257 c 1
 1393 41 l 1
 1342 22 1287 4 1236 -11 c 1
 1100 143 l 1
 976 43 820 -23 620 -23 c 0
 277 -23 104 138 104 395 c 0
 104 612 241 738 441 839 c 1xe8
544 726 m 1
 392 649 281 554 281 406 c 0xe8
 281 235 410 132 629 132 c 0
 772 132 888 182 985 259 c 1
 836 418 693 567 544 726 c 1
660 1345 m 0
 538 1345 455 1280 455 1165 c 0xd8
 455 1066 517 995 605 910 c 1
 741 977 858 1043 858 1171 c 0
 858 1287 765 1345 660 1345 c 0
EndSplineSet
EndChar

StartChar: approxequal
Encoding: 8776 8776 212
Width: 1314
VWidth: 0
Flags: W
HStem: 282 129<765.605 1002.71> 459 130<313.603 563.852> 684 126<756.503 1002.64> 860 128<307.41 563.298>
VStem: 138 101<308.092 380.482 708.58 786.84> 1080 98<498.768 562.535 899.523 963.116>
LayerCount: 2
Fore
SplineSet
1080 589 m 1
 1178 558 l 1
 1146 393 1067 282 895 282 c 0
 811 282 728 317 615 385 c 1
 547 428 487 459 427 459 c 0
 326 459 271 388 239 280 c 1
 138 312 l 1
 171 484 269 589 428 589 c 0
 613 589 776 411 898 411 c 0
 986 411 1040 476 1080 589 c 1
1077 988 m 1
 1176 959 l 1
 1144 793 1061 684 892 684 c 0
 805 684 724 718 613 787 c 0
 545 830 484 860 424 860 c 0
 323 860 268 792 239 684 c 1
 136 712 l 1
 168 882 269 988 427 988 c 0
 515 988 594 950 689 893 c 0
 781 837 839 810 896 810 c 0
 984 810 1038 873 1077 988 c 1
EndSplineSet
EndChar

StartChar: asciicircum
Encoding: 94 94 214
Width: 1204
VWidth: 0
Flags: W
DStem2: 90 627 227 627 0.439487 0.898249<60.2097 893.831> 651 1559 595 1375 0.444135 -0.89596<139.985 980.711>
LayerCount: 2
Fore
SplineSet
227 627 m 1
 90 627 l 1
 546 1559 l 1
 651 1559 l 1
 1113 627 l 1
 979 627 l 1
 595 1375 l 1
 227 627 l 1
EndSplineSet
EndChar

StartChar: asciitilde
Encoding: 126 126 215
Width: 1340
VWidth: 0
Flags: W
HStem: 442 145<788.242 1019.33> 614 146<325.133 587.836>
VStem: 137 103<465.788 522.036> 1097 112<674.941 742.248>
LayerCount: 2
Fore
SplineSet
435 760 m 0
 591 760 819 587 918 587 c 0
 1010 587 1075 681 1097 778 c 1
 1209 737 l 1
 1177 565 1080 442 915 442 c 0
 790 442 567 614 436 614 c 0
 328 614 261 516 240 415 c 1
 137 474 l 1
 164 622 261 760 435 760 c 0
EndSplineSet
EndChar

StartChar: asterisk
Encoding: 42 42 216
Width: 1081
VWidth: 0
Flags: W
PickledData: "(dp1
S'com.typemytype.robofont.layerData'
p2
(dp3
S'back'
p4
(dp5
S'name'
p6
S'asterisk'
p7
sS'lib'
p8
(dp9
sS'unicodes'
p10
(tsS'width'
p11
I1081
sS'contours'
p12
(tsS'components'
p13
(tsS'anchors'
p14
(tsss."
LayerCount: 2
Fore
SplineSet
629 1489 m 1
 600 1062 l 1
 921 1253 l 1
 994 1093 l 1
 641 958 l 2
 641 957 817 730 897 617 c 1
 852 582 807 558 762 523 c 1
 537 886 l 1
 320 523 l 1
 184 617 l 1
 438 958 l 1
 89 1093 l 1
 159 1253 l 1
 483 1062 l 1
 451 1489 l 1
 629 1489 l 1
EndSplineSet
EndChar

StartChar: at
Encoding: 64 64 217
Width: 1788
VWidth: 0
Flags: W
HStem: -75 121<647.974 1172.84> 297 121<1155.44 1352.73> 316 126<717.652 918.071> 1019 118<812.106 1084.26> 1405 120<674.561 1183.36>
VStem: 101 129<467.63 959.426> 542 133<483.483 853.239> 1560 127<658.35 1061.2>
LayerCount: 2
Fore
SplineSet
1212 297 m 0xdf
 1113 297 1044 344 1028 455 c 1
 960 356 879 316 790 316 c 0xbf
 646 316 542 434 542 631 c 0
 542 891 664 1137 949 1137 c 0
 1053 1137 1167 1104 1249 1075 c 1
 1201 843 1144 603 1144 524 c 0
 1144 449 1177 418 1233 418 c 0
 1363 418 1560 605 1560 841 c 0
 1560 1193 1284 1405 911 1405 c 0
 536 1405 230 1105 230 720 c 0
 230 299 525 46 888 46 c 0
 1071 46 1232 92 1344 185 c 1
 1414 97 l 1
 1289 -18 1099 -75 886 -75 c 0
 443 -75 101 235 101 720 c 0
 101 1168 461 1525 916 1525 c 0
 1345 1525 1687 1258 1687 839 c 0
 1687 492 1418 297 1212 297 c 0xdf
814 442 m 0
 992 442 1039 742 1087 998 c 1
 1060 1012 991 1019 952 1019 c 0
 744 1019 675 810 675 621 c 0
 675 513 725 442 814 442 c 0
EndSplineSet
EndChar

StartChar: b
Encoding: 98 98 219
Width: 1176
VWidth: 0
Flags: W
PickledData: "(dp1
S'com.typemytype.robofont.layerData'
p2
(dp3
S'back'
p4
(dp5
S'name'
p6
S'b'
sS'lib'
p7
(dp8
sS'unicodes'
p9
(tsS'width'
p10
I1167
sS'contours'
p11
(tsS'components'
p12
(tsS'anchors'
p13
(tsss."
HStem: -25 138<450.887 771.446> 0 21G<121 287> 986 138<471.937 769.831> 1490 20G<121 289>
VStem: 121 166<0 163 308.264 775.208 930 1490> 933 173<306.406 792.993>
LayerCount: 2
Fore
SplineSet
617 113 m 4xbc
 860 113 933 348 933 548 c 4
 933 745 862 986 622 986 c 5
 428 983 287 810 287 551 c 4
 287 314 383 113 617 113 c 4xbc
629 -25 m 4
 481 -25 355 45 287 163 c 5
 287 0 l 5
 121 0 l 5x7c
 121 1490 l 5
 289 1510 l 5
 289 930 l 5
 375 1071 513 1124 633 1124 c 4
 944 1124 1106 851 1106 559 c 4
 1106 241 947 -25 629 -25 c 4
EndSplineSet
EndChar

StartChar: backslash
Encoding: 92 92 220
Width: 935
VWidth: 0
Flags: W
DStem2: 230 1466 82 1466 0.38072 -0.92469<0 1658.82>
LayerCount: 2
Fore
SplineSet
881 -120 m 1
 735 -120 l 1
 82 1466 l 1
 230 1466 l 1
 881 -120 l 1
EndSplineSet
EndChar

StartChar: bar
Encoding: 124 124 221
Width: 470
VWidth: 0
Flags: W
HStem: -303 21G<160 310>
VStem: 160 150<-303 1603>
LayerCount: 2
Fore
SplineSet
310 1603 m 1
 310 -303 l 1
 160 -303 l 1
 160 1603 l 1
 310 1603 l 1
EndSplineSet
EndChar

StartChar: beta
Encoding: 946 946 222
Width: 468
VWidth: 0
Flags: W
HStem: 532 264<135.446 338.917>
VStem: 104 266<562.284 765.716>
LayerCount: 2
Fore
SplineSet
237 796 m 0
 326 796 370 730 370 664 c 0
 370 598 326 532 237 532 c 0
 149 532 104 598 104 664 c 0
 104 730 149 796 237 796 c 0
EndSplineSet
EndChar

StartChar: braceleft
Encoding: 123 123 223
Width: 690
VWidth: 0
Flags: W
HStem: -238 137<461.669 578> 614 150<89 232.473> 1479 137<461.669 578>
VStem: 89 197<515.5 862.5> 272 161<-73.1914 578.93 799.07 1452.05>
CounterMasks: 1 e0
LayerCount: 2
Fore
SplineSet
286 689 m 1xf0
 406 630 433 486 433 390 c 2
 433 156 l 2
 433 -45 435 -101 578 -101 c 1
 578 -238 l 1
 362 -238 272 -155 272 53 c 2
 272 335 l 2xe8
 272 465 267 614 149 614 c 2
 89 614 l 1
 89 764 l 1xf0
 149 764 l 2
 267 764 272 913 272 1043 c 2
 272 1326 l 2
 272 1534 362 1616 578 1616 c 1
 578 1479 l 1
 435 1479 433 1424 433 1223 c 2
 433 988 l 2xe8
 433 892 406 748 286 689 c 1xf0
EndSplineSet
EndChar

StartChar: braceright
Encoding: 125 125 224
Width: 700
VWidth: 0
Flags: W
HStem: -238 137<118 234.652> 614 150<467.719 610> 1479 137<118 234.652>
VStem: 266 161<-73.1914 573.891 804.109 1452.05> 411 199<514.5 863.5>
CounterMasks: 1 e0
LayerCount: 2
Fore
SplineSet
411 689 m 1xe8
 291 748 266 892 266 988 c 2
 266 1223 l 2
 266 1424 261 1479 118 1479 c 1
 118 1616 l 1
 334 1616 427 1534 427 1326 c 2
 427 1043 l 2xf0
 427 913 434 764 551 764 c 2
 610 764 l 1
 610 614 l 1xe8
 551 614 l 2
 434 614 427 465 427 335 c 2
 427 53 l 2
 427 -155 334 -238 118 -238 c 1
 118 -101 l 1
 261 -101 266 -45 266 156 c 2
 266 390 l 2xf0
 266 486 291 630 411 689 c 1xe8
EndSplineSet
EndChar

StartChar: bracketleft
Encoding: 91 91 225
Width: 678
VWidth: 0
Flags: W
HStem: -261 122<299 570> 1381 124<299 570>
VStem: 121 178<-139 1381>
LayerCount: 2
Fore
SplineSet
570 -139 m 1
 570 -261 l 1
 121 -261 l 1
 121 1505 l 1
 570 1505 l 1
 570 1381 l 1
 299 1381 l 1
 299 -139 l 1
 570 -139 l 1
EndSplineSet
EndChar

StartChar: bracketright
Encoding: 93 93 226
Width: 678
VWidth: 0
Flags: W
HStem: -261 122<109 380> 1381 124<109 380>
VStem: 380 178<-139 1381>
LayerCount: 2
Fore
SplineSet
109 -139 m 1
 380 -139 l 1
 380 1381 l 1
 109 1381 l 1
 109 1505 l 1
 558 1505 l 1
 558 -261 l 1
 109 -261 l 1
 109 -139 l 1
EndSplineSet
EndChar

StartChar: breve
Encoding: 728 728 227
Width: 754
VWidth: 0
Flags: W
HStem: 1299 117<274.947 480.546>
VStem: 128 116<1450.23 1557> 513 117<1450.23 1557>
LayerCount: 2
Fore
SplineSet
377 1299 m 0
 254 1299 128 1385 128 1557 c 1
 244 1557 l 1
 244 1461 304 1416 377 1416 c 0
 450 1416 513 1461 513 1557 c 1
 630 1557 l 1
 630 1385 501 1299 377 1299 c 0
EndSplineSet
EndChar

StartChar: brokenbar
Encoding: 166 166 228
Width: 449
VWidth: 0
Flags: W
HStem: -301 21G<151 301>
VStem: 151 150<-301 339 964 1603>
LayerCount: 2
Fore
SplineSet
301 964 m 1
 151 964 l 1
 151 1603 l 1
 301 1603 l 1
 301 964 l 1
301 -301 m 1
 151 -301 l 1
 151 339 l 1
 301 339 l 1
 301 -301 l 1
EndSplineSet
EndChar

StartChar: bullet
Encoding: 8226 8226 229
Width: 867
VWidth: 0
Flags: W
HStem: 415 671<296.64 572.69>
VStem: 137 594<583.237 917.46>
LayerCount: 2
Fore
SplineSet
731 753 m 0
 731 569 593 415 432 415 c 0
 266 415 137 567 137 747 c 0
 137 931 278 1086 436 1086 c 0
 597 1086 731 934 731 753 c 0
EndSplineSet
EndChar

StartChar: c
Encoding: 99 99 230
Width: 962
VWidth: 0
Flags: W
PickledData: "(dp1
S'com.typemytype.robofont.layerData'
p2
(dp3
S'back'
p4
(dp5
S'name'
p6
S'c'
sS'lib'
p7
(dp8
sS'unicodes'
p9
(tsS'width'
p10
I962
sS'contours'
p11
(tsS'components'
p12
(tsS'anchors'
p13
(tsss."
HStem: -25 138<435.565 790.753> 986 138<439.648 798.474>
VStem: 70 171<327.336 763.253>
LayerCount: 2
Fore
SplineSet
897 75 m 1
 825 8 709 -25 600 -25 c 0
 259 -25 70 243 70 549 c 1
 72 852 270 1124 597 1124 c 0
 725 1124 834 1088 896 1029 c 1
 854 910 l 1
 770 966 678 986 595 986 c 0
 394 986 241 799 241 545 c 0
 241 294 388 113 608 113 c 0
 707 113 794 152 855 195 c 1
 897 75 l 1
EndSplineSet
EndChar

StartChar: caron
Encoding: 711 711 232
Width: 800
VWidth: 0
Flags: W
HStem: 1251 76<295 508>
VStem: 108 587
DStem2: 239 1639 108 1639 0.434165 -0.900834<0 350.961> 400 1327 508 1251 0.434165 0.900834<0 350.961>
LayerCount: 2
Fore
SplineSet
108 1639 m 1
 239 1639 l 1
 400 1327 l 1
 561 1639 l 1
 695 1639 l 1
 508 1251 l 1
 295 1251 l 1
 108 1639 l 1
EndSplineSet
EndChar

StartChar: cedilla
Encoding: 184 184 237
Width: 596
VWidth: 0
Flags: W
HStem: -425 88<120.437 348.727> -332 20G<120.242 147.5> -180 196<226 295.98> -180 83<298 347.02>
VStem: 226 86<-70 16> 356 126<-328.183 -189.419>
LayerCount: 2
Fore
SplineSet
114 -403 m 1xdc
 122 -312 l 1
 173 -327 220 -337 256 -337 c 0
 331 -337 356 -307 356 -260 c 0
 356 -203 316 -180 259 -180 c 0
 256 -180 242 -181 227 -182 c 2
 198 -184 l 1
 226 16 l 1
 312 16 l 1xec
 298 -97 l 1
 305 -97 l 2
 398 -97 482 -147 482 -257 c 0
 482 -372 388 -425 268 -425 c 0
 223 -425 167 -415 114 -403 c 1xdc
EndSplineSet
EndChar

StartChar: cent
Encoding: 162 162 238
Width: 1033
VWidth: 0
Flags: W
PickledData: "(dp1
S'com.typemytype.robofont.layerData'
p2
(dp3
S'back'
p4
(dp5
S'name'
p6
S'cent'
p7
sS'lib'
p8
(dp9
sS'unicodes'
p10
(tsS'width'
p11
I1033
sS'contours'
p12
(tsS'components'
p13
(tsS'anchors'
p14
(tsss."
HStem: 0 21G<547 642> 167 138<435.565 790.753> 1178 138<439.648 798.474> 1476 20G<547 642>
VStem: 70 171<519.336 955.253> 547 95<0 1496>
LayerCount: 2
Fore
SplineSet
547 1496 m 1
 642 1496 l 1
 642 0 l 1
 547 0 l 1
 547 1496 l 1
EndSplineSet
Refer: 230 99 N 1 0 0 1 0 192 2
EndChar

StartChar: circumflex
Encoding: 710 710 240
Width: 800
VWidth: 0
Flags: W
HStem: 1523 116<295 508>
VStem: 108 587
LayerCount: 2
Fore
SplineSet
108 1251 m 1
 295 1639 l 1
 508 1639 l 1
 695 1251 l 1
 561 1251 l 1
 400 1523 l 1
 239 1251 l 1
 108 1251 l 1
EndSplineSet
EndChar

StartChar: colon
Encoding: 58 58 241
Width: 494
VWidth: 0
Flags: W
HStem: -25 233<146 352> 893 231<146 352>
VStem: 146 206<-25 208 893 1124>
LayerCount: 2
Fore
SplineSet
146 893 m 1
 146 1124 l 1
 352 1124 l 1
 352 893 l 1
 146 893 l 1
146 -25 m 1
 146 208 l 1
 352 208 l 1
 352 -25 l 1
 146 -25 l 1
EndSplineSet
EndChar

StartChar: comma
Encoding: 44 44 242
Width: 508
VWidth: 0
Flags: W
HStem: -292 522<155 241>
VStem: 135 232
LayerCount: 2
Fore
SplineSet
367 230 m 1
 241 -292 l 1
 135 -292 l 1
 155 230 l 1
 367 230 l 1
EndSplineSet
EndChar

StartChar: commaaccentcomb
Encoding: 806 806 243
Width: 554
VWidth: 0
Flags: W
LayerCount: 2
Fore
SplineSet
274 0 m 1
 274 0 l 1
144 -648 m 1
 239 -150 l 1
 404 -150 l 1
 260 -648 l 1
 144 -648 l 1
EndSplineSet
EndChar

StartChar: copyright
Encoding: 169 169 244
Width: 1841
VWidth: 0
Flags: W
HStem: -26 93<647.448 1166.48> 270 117<747.737 1139.71> 1114 21G<1136 1179.37> 1182 119<738.516 1124.92> 1493 93<643.862 1162.49>
VStem: 117 113<505.641 1055.74> 434 136<575.332 999.454> 1588 113<504.164 1054.1>
LayerCount: 2
Fore
SplineSet
1701 781 m 0
 1701 242 1317 -26 902 -26 c 0
 510 -26 117 242 117 781 c 0
 117 1318 505 1586 897 1586 c 0
 1312 1586 1701 1316 1701 781 c 0
902 67 m 0
 1353 67 1588 387 1588 778 c 0
 1588 1168 1350 1493 897 1493 c 0
 468 1493 230 1169 230 783 c 0
 230 389 469 67 902 67 c 0
1191 459 m 1
 1230 352 l 1
 1160 307 1033 270 909 270 c 0
 633 270 434 489 434 785 c 0
 434 1081 626 1301 919 1301 c 0
 1039 1301 1145 1268 1227 1211 c 1
 1167 1114 l 1
 1105 1158 1003 1182 910 1182 c 0
 676 1182 570 997 570 789 c 0
 570 564 682 387 929 387 c 0
 1021 387 1135 420 1191 459 c 1
EndSplineSet
EndChar

StartChar: currency
Encoding: 164 164 245
Width: 1023
VWidth: 0
Flags: W
HStem: 306 90<400.281 731.93> 1086 90<400.73 731.93>
VStem: 132 90<574.005 906.079> 912 90<575.11 907.209>
DStem2: 41 1280 -12 1229 0.734651 -0.678445<0 322.604 1181.14 1503.01> -12 254 41 203 0.734651 0.678445<4.33583 326.29 1185.79 1507.35>
LayerCount: 2
Fore
SplineSet
275 1064 m 1
 352 1134 455 1176 567 1176 c 0
 681 1176 784 1133 862 1061 c 1
 1099 1280 l 1
 1144 1224 l 1
 910 1008 l 1
 967 934 1002 841 1002 741 c 0
 1002 641 968 549 911 475 c 1
 1144 259 l 1
 1099 203 l 1
 862 422 l 1
 784 350 681 306 567 306 c 0
 454 306 351 349 274 419 c 1
 41 203 l 1
 -12 254 l 1
 225 472 l 1
 167 546 132 640 132 741 c 0
 132 843 167 936 225 1010 c 1
 -12 1229 l 1
 41 1280 l 1
 275 1064 l 1
222 741 m 0
 222 551 377 396 567 396 c 0
 757 396 912 551 912 741 c 0
 912 931 757 1086 567 1086 c 0
 377 1086 222 931 222 741 c 0
EndSplineSet
EndChar

StartChar: d
Encoding: 100 100 246
Width: 1168
VWidth: 0
Flags: W
PickledData: "(dp1
S'com.typemytype.robofont.layerData'
p2
(dp3
S'back'
p4
(dp5
S'name'
p6
S'd'
sS'lib'
p7
(dp8
sS'unicodes'
p9
(tsS'width'
p10
I1175
sS'contours'
p11
((dp12
S'points'
p13
((dp14
S'segmentType'
p15
S'line'
p16
sS'x'
F1056
sS'smooth'
p17
I00
sS'y'
F1495
s(dp18
g15
S'line'
p19
sS'x'
F1056
sg17
I01
sS'y'
F431
s(dp20
S'y'
F192
sS'x'
F1056
sg17
I00
s(dp21
S'y'
F117
sS'x'
F1063
sg17
I00
s(dp22
g15
S'curve'
p23
sS'x'
F1177
sg17
I01
sS'y'
F117
s(dp24
S'y'
F117
sS'x'
F1202
sg17
I00
s(dp25
S'y'
F119
sS'x'
F1215
sg17
I00
s(dp26
g15
S'curve'
p27
sS'x'
F1267
sg17
I00
sS'y'
F123
s(dp28
g15
S'line'
p29
sS'x'
F1278
sg17
I00
sS'y'
F-8
s(dp30
S'y'
F-18
sS'x'
F1221
sg17
I00
s(dp31
S'y'
F-21
sS'x'
F1181
sg17
I00
s(dp32
g15
S'curve'
p33
sS'x'
F1164
sg17
I01
sS'y'
F-21
s(dp34
S'y'
F-21
sS'x'
F894
sg17
I00
s(dp35
S'y'
F104
sS'x'
F888
sg17
I00
s(dp36
g15
S'curve'
p37
sS'x'
F888
sg17
I01
sS'y'
F468
s(dp38
g15
S'line'
p39
sS'x'
F888
sg17
I00
sS'y'
F1476
stp40
stp41
sS'components'
p42
(tsS'anchors'
p43
(tsss."
HStem: -24 148<399.997 714.632> 0 21G<897.558 1049> 977 148<400.233 716.773> 1490 20G<881 1049>
VStem: 70 173<309.033 793.195> 881 168<312.184 789.061 937 1490> 900 149<0 117.419>
LayerCount: 2
Fore
SplineSet
541 -24 m 4xba
 245 -24 70 218 70 561 c 4
 70 872 257 1125 535 1125 c 4
 680 1125 824 1053 881 937 c 5
 881 1490 l 5xbc
 1049 1510 l 5
 1049 0 l 5
 900 0 l 5x7a
 879 172 l 5
 816 60 693 -24 541 -24 c 4xba
552 124 m 4
 777 124 882 315 882 551 c 4
 882 786 784 977 550 977 c 4
 326 977 243 755 243 556 c 4
 243 338 325 124 552 124 c 4
EndSplineSet
EndChar

StartChar: dagger
Encoding: 8224 8224 247
Width: 876
VWidth: 0
Flags: W
HStem: 1007 142<71 366 496 806>
VStem: 366 130<1149 1561> 366 112<121 1007>
LayerCount: 2
Fore
SplineSet
366 121 m 1xa0
 366 1007 l 1xa0
 71 1007 l 1
 71 1149 l 1
 366 1149 l 1
 366 1561 l 1
 496 1561 l 1
 496 1149 l 1xc0
 806 1149 l 1
 806 1007 l 1
 478 1007 l 1
 478 121 l 1
 366 121 l 1xa0
EndSplineSet
EndChar

StartChar: daggerdbl
Encoding: 8225 8225 248
Width: 950
VWidth: 0
Flags: W
HStem: 467 137<107 421 530 843> 1059 140<112 421 538 850>
VStem: 401 137<1368.79 1561> 421 109<604 1059>
LayerCount: 2
Fore
SplineSet
421 604 m 1xd0
 421 1059 l 1xd0
 112 1059 l 1
 112 1199 l 1
 428 1199 l 1
 401 1561 l 1
 538 1561 l 1
 538 1199 l 1xe0
 850 1199 l 1
 850 1059 l 1
 530 1059 l 1
 530 604 l 1
 843 604 l 1
 843 467 l 1
 530 467 l 1
 556 121 l 1
 398 121 l 1
 421 467 l 1
 107 467 l 1
 107 604 l 1
 421 604 l 1xd0
EndSplineSet
EndChar

StartChar: degree
Encoding: 176 176 251
Width: 816
VWidth: 0
Flags: W
HStem: 919 127<300.69 517.513> 1430 125<301.313 517.52>
VStem: 128 110<1108.58 1363.19> 581 109<1112.13 1363.19>
LayerCount: 2
Fore
SplineSet
409 1430 m 0
 318 1430 238 1347 238 1239 c 0
 238 1131 315 1046 409 1046 c 0
 503 1046 581 1131 581 1239 c 0
 581 1347 501 1430 409 1430 c 0
409 919 m 0
 257 919 128 1065 128 1239 c 0
 128 1412 257 1555 409 1555 c 0
 563 1555 690 1412 690 1239 c 0
 690 1065 561 919 409 919 c 0
EndSplineSet
EndChar

StartChar: delta
Encoding: 948 948 252
Width: 468
VWidth: 0
Flags: W
HStem: 532 264<135.446 338.917>
VStem: 104 266<562.284 765.716>
LayerCount: 2
Fore
SplineSet
237 796 m 0
 326 796 370 730 370 664 c 0
 370 598 326 532 237 532 c 0
 149 532 104 598 104 664 c 0
 104 730 149 796 237 796 c 0
EndSplineSet
EndChar

StartChar: dieresis
Encoding: 168 168 253
Width: 770
VWidth: 0
Flags: W
HStem: 1254 212<118 272 508 663>
VStem: 118 154<1254 1466> 508 155<1254 1466>
LayerCount: 2
Fore
SplineSet
663 1254 m 1
 508 1254 l 1
 508 1466 l 1
 663 1466 l 1
 663 1254 l 1
272 1254 m 1
 118 1254 l 1
 118 1466 l 1
 272 1466 l 1
 272 1254 l 1
EndSplineSet
EndChar

StartChar: dieresistonos
Encoding: 901 901 254
Width: 468
VWidth: 0
Flags: W
HStem: 532 264<135.446 338.917>
VStem: 104 266<562.284 765.716>
LayerCount: 2
Fore
SplineSet
237 796 m 0
 326 796 370 730 370 664 c 0
 370 598 326 532 237 532 c 0
 149 532 104 598 104 664 c 0
 104 730 149 796 237 796 c 0
EndSplineSet
EndChar

StartChar: divide
Encoding: 247 247 255
Width: 1211
VWidth: 0
Flags: W
HStem: 22 227<491 682> 523 149<97 1098> 939 227<491 716>
VStem: 491 225<939 1166> 491 191<22 249>
LayerCount: 2
Fore
SplineSet
1098 523 m 1xe0
 97 523 l 1
 97 672 l 1
 1098 672 l 1
 1098 523 l 1xe0
716 1166 m 1xf0
 716 939 l 1
 491 939 l 1
 491 1166 l 1
 716 1166 l 1xf0
682 249 m 1xe8
 682 22 l 1
 491 22 l 1
 491 249 l 1
 682 249 l 1xe8
EndSplineSet
EndChar

StartChar: dollar
Encoding: 36 36 256
Width: 1241
VWidth: 0
Flags: W
PickledData: "(dp1
S'com.typemytype.robofont.layerData'
p2
(dp3
S'back'
p4
(dp5
S'name'
p6
S'dollar'
p7
sS'lib'
p8
(dp9
sS'unicodes'
p10
(tsS'width'
p11
I1241
sS'contours'
p12
(tsS'components'
p13
(tsS'anchors'
p14
(tsss."
HStem: -195 21G<580 675> -23 153<325.329 841.423> 1372 153<402.167 915.533>
VStem: 96 180<997.626 1266.27> 580 95<-195 1693> 966 179<250.526 573.533>
DStem2: 498 906 433 749 0.969753 -0.244088<-189.032 475.764>
LayerCount: 2
Fore
SplineSet
580 1693 m 1
 675 1693 l 1
 675 -195 l 1
 580 -195 l 1
 580 1693 l 1
EndSplineSet
Refer: 113 83 N 1 0 0 1 0 0 2
EndChar

StartChar: dotaccent
Encoding: 729 729 257
Width: 411
VWidth: 0
Flags: W
HStem: 1275 264<106.446 309.917>
VStem: 75 266<1305.28 1508.72>
LayerCount: 2
Fore
SplineSet
208 1539 m 0
 297 1539 341 1473 341 1407 c 0
 341 1341 297 1275 208 1275 c 0
 120 1275 75 1341 75 1407 c 0
 75 1473 120 1539 208 1539 c 0
EndSplineSet
EndChar

StartChar: dotaccentcmb
Encoding: 775 775 258
Width: 411
VWidth: 0
Flags: W
HStem: 1297 264<107.446 310.917>
VStem: 76 266<1327.28 1530.72>
LayerCount: 2
Fore
SplineSet
209 1561 m 0
 298 1561 342 1495 342 1429 c 0
 342 1363 298 1297 209 1297 c 0
 121 1297 76 1363 76 1429 c 0
 76 1495 121 1561 209 1561 c 0
EndSplineSet
EndChar

StartChar: dotlessi
Encoding: 305 305 259
Width: 430
VWidth: 0
Flags: W
HStem: 0 21G<135 304> 1078 20G<135 304>
VStem: 135 169<0 1098>
LayerCount: 2
Fore
SplineSet
304 1098 m 1
 304 0 l 1
 135 0 l 1
 135 1098 l 1
 304 1098 l 1
EndSplineSet
EndChar

StartChar: dotlessj
Encoding: 567 567 260
Width: 444
VWidth: 0
Flags: W
HStem: -502 151<-55 129.106> 1078 20G<162 330>
VStem: 162 168<-317.405 1098>
LayerCount: 2
Fore
SplineSet
330 1098 m 1
 330 -139 l 2
 330 -407 270 -502 -3 -502 c 2
 -55 -502 l 1
 -77 -351 l 1
 -25 -351 l 2
 157 -351 162 -286 162 -121 c 2
 162 1098 l 1
 330 1098 l 1
EndSplineSet
EndChar

StartChar: e
Encoding: 101 101 261
Width: 1068
VWidth: 0
Flags: W
PickledData: "(dp1
S'com.typemytype.robofont.layerData'
p2
(dp3
S'back'
p4
(dp5
S'name'
p6
S'e'
sS'lib'
p7
(dp8
sS'unicodes'
p9
(tsS'width'
p10
I1083
sS'contours'
p11
(tsS'components'
p12
(tsS'anchors'
p13
(tsss."
HStem: -25 144<421.544 804.897> 519 116<250 835> 988 136<406.763 700.988>
VStem: 72 172<312.078 519 635 790.527> 835 162<635 837.415>
LayerCount: 2
Fore
SplineSet
250 635 m 1
 835 635 l 1
 835 869 718 988 555 988 c 0
 389 988 269 851 250 635 c 1
576 -25 m 0
 263 -25 72 198 72 551 c 0
 72 879 270 1116 556 1124 c 1
 829 1124 997 918 997 594 c 0
 997 578 995 538 995 519 c 1
 244 519 l 1
 244 272 388 119 581 119 c 0
 737 119 851 176 929 229 c 1
 981 107 l 1
 891 30 752 -25 576 -25 c 0
EndSplineSet
EndChar

StartChar: eight
Encoding: 56 56 268
Width: 1182
VWidth: 0
Flags: W
HStem: -23 152<412.572 774.234> 703 150<519 669> 1373 152<419.124 767.509>
VStem: 103 176<254.262 543.733> 134 177<994.581 1274.31> 873 176<994.581 1274.31> 904 176<249.086 543.733>
LayerCount: 2
Fore
SplineSet
594 -23 m 0xe2
 327 -23 103 119 103 385 c 0xf2
 103 577 219 724 414 788 c 1
 241 849 134 966 134 1148 c 0
 134 1389 329 1525 594 1525 c 0
 858 1525 1049 1389 1049 1148 c 0xec
 1049 966 948 849 791 788 c 1
 970 724 1080 577 1080 385 c 0
 1080 119 861 -23 594 -23 c 0xe2
594 703 m 1
 415 662 279 562 279 397 c 0
 279 230 415 129 594 129 c 0
 773 129 904 230 904 397 c 0
 904 562 773 662 594 703 c 1
594 1373 m 0
 446 1373 311 1296 311 1152 c 0
 311 993 411 894 594 853 c 1
 777 894 873 993 873 1152 c 0xec
 873 1296 742 1373 594 1373 c 0
EndSplineSet
EndChar

StartChar: emdash
Encoding: 8212 8212 271
Width: 2427
VWidth: 0
Flags: W
HStem: 527 148<139 2296>
LayerCount: 2
Fore
SplineSet
2296 675 m 1
 2296 527 l 1
 139 527 l 1
 139 675 l 1
 2296 675 l 1
EndSplineSet
EndChar

StartChar: endash
Encoding: 8211 8211 272
Width: 1317
VWidth: 0
Flags: W
HStem: 527 148<139 1186>
LayerCount: 2
Fore
SplineSet
1186 675 m 1
 1186 527 l 1
 139 527 l 1
 139 675 l 1
 1186 675 l 1
EndSplineSet
EndChar

StartChar: eng
Encoding: 331 331 273
Width: 1118
VWidth: 0
Flags: W
HStem: -283 142<620 811.108> 0 21G<118 286> 980 144<458.767 768.356> 1078 20G<115 260.963>
VStem: 115 144<951.952 1098> 118 168<0 832.609> 843 168<-107.323 891.655>
LayerCount: 2
Fore
SplineSet
620 -283 m 1xea
 608 -141 l 1
 651 -141 l 2
 823 -141 843 -110 843 104 c 2
 843 551 l 2
 843 836 832 980 629 980 c 0
 445 980 313 849 286 750 c 1
 286 0 l 1
 118 0 l 1
 118 831 l 1xe6
 115 1098 l 1
 259 1098 l 1xda
 275 935 l 1
 360 1052 513 1124 665 1124 c 0
 906 1124 1011 965 1011 657 c 2
 1011 158 l 2
 1011 -148 988 -283 691 -283 c 2
 620 -283 l 1xea
EndSplineSet
EndChar

StartChar: epsilon
Encoding: 949 949 275
Width: 468
VWidth: 0
Flags: W
HStem: 532 264<135.446 338.917>
VStem: 104 266<562.284 765.716>
LayerCount: 2
Fore
SplineSet
237 796 m 0
 326 796 370 730 370 664 c 0
 370 598 326 532 237 532 c 0
 149 532 104 598 104 664 c 0
 104 730 149 796 237 796 c 0
EndSplineSet
EndChar

StartChar: epsilontonos
Encoding: 941 941 276
Width: 468
VWidth: 0
Flags: W
HStem: 532 264<135.446 338.917>
VStem: 104 266<562.284 765.716>
LayerCount: 2
Fore
SplineSet
237 796 m 0
 326 796 370 730 370 664 c 0
 370 598 326 532 237 532 c 0
 149 532 104 598 104 664 c 0
 104 730 149 796 237 796 c 0
EndSplineSet
EndChar

StartChar: equal
Encoding: 61 61 277
Width: 1286
VWidth: 0
Flags: W
HStem: 305 147<145 1146> 741 150<143 1146>
LayerCount: 2
Fore
SplineSet
143 891 m 1
 1146 891 l 1
 1146 741 l 1
 143 741 l 1
 143 891 l 1
145 452 m 1
 1146 452 l 1
 1146 305 l 1
 145 305 l 1
 145 452 l 1
EndSplineSet
EndChar

StartChar: eta
Encoding: 951 951 278
Width: 468
VWidth: 0
Flags: W
HStem: 532 264<135.446 338.917>
VStem: 104 266<562.284 765.716>
LayerCount: 2
Fore
SplineSet
237 796 m 0
 326 796 370 730 370 664 c 0
 370 598 326 532 237 532 c 0
 149 532 104 598 104 664 c 0
 104 730 149 796 237 796 c 0
EndSplineSet
EndChar

StartChar: etatonos
Encoding: 942 942 279
Width: 468
VWidth: 0
Flags: W
HStem: 532 264<135.446 338.917>
VStem: 104 266<562.284 765.716>
LayerCount: 2
Fore
SplineSet
237 796 m 0
 326 796 370 730 370 664 c 0
 370 598 326 532 237 532 c 0
 149 532 104 598 104 664 c 0
 104 730 149 796 237 796 c 0
EndSplineSet
EndChar

StartChar: eth
Encoding: 240 240 280
Width: 1204
VWidth: 0
Flags: W
HStem: -25 139<441.028 779.666> 833 139<430.112 760.307>
VStem: 87 182<290.873 663.313> 210 223<1365 1588> 945 172<286.258 653.244>
DStem2: 226 1277 269 1145 0.923458 0.3837<0 236.543 449.445 687.522>
LayerCount: 2
Fore
SplineSet
603 833 m 0xe8
 391 833 269 675 269 485 c 0
 269 294 382 114 609 114 c 0
 825 114 945 271 945 472 c 0
 945 653 825 833 603 833 c 0xe8
569 972 m 0
 700 972 787 919 844 877 c 1
 798 964 700 1096 541 1257 c 1
 269 1145 l 1xe8
 226 1277 l 1
 446 1364 l 1
 210 1588 l 1
 433 1588 l 1xd8
 601 1431 l 1
 868 1542 l 1
 914 1413 l 1
 694 1322 l 1
 840 1151 946 1014 1015 884 c 0
 1084 754 1117 632 1117 492 c 0
 1117 199 943 -25 603 -25 c 0
 271 -25 87 212 87 486 c 0
 87 777 279 972 569 972 c 0
EndSplineSet
EndChar

StartChar: exclam
Encoding: 33 33 281
Width: 586
VWidth: 0
Flags: W
HStem: -12 264<191.446 394.917> 1476 20G<194 391>
VStem: 160 266<18.2842 221.716> 194 197<1141.5 1496>
LayerCount: 2
Fore
SplineSet
160 120 m 0xe0
 160 186 205 252 293 252 c 0
 382 252 426 186 426 120 c 0
 426 54 382 -12 293 -12 c 0
 205 -12 160 54 160 120 c 0xe0
391 1496 m 1xd0
 391 1354 l 1
 335 435 l 1
 256 435 l 1
 194 1354 l 1
 194 1496 l 1
 391 1496 l 1xd0
EndSplineSet
EndChar

StartChar: exclamdown
Encoding: 161 161 282
Width: 497
VWidth: 0
Flags: W
HStem: -415 21G<196 332> 953 221<152 341>
VStem: 152 189<953 1174> 196 136<-415 747>
LayerCount: 2
Fore
SplineSet
152 953 m 1xe0
 152 1174 l 1
 341 1174 l 1
 341 953 l 1
 152 953 l 1xe0
332 747 m 1xd0
 332 -415 l 1
 196 -415 l 1
 196 747 l 1
 332 747 l 1xd0
EndSplineSet
EndChar

StartChar: f
Encoding: 102 102 283
Width: 644
VWidth: 0
Flags: W
PickledData: "(dp1
S'com.typemytype.robofont.layerData'
p2
(dp3
S'back'
p4
(dp5
S'name'
p6
S'f'
sS'lib'
p7
(dp8
sS'unicodes'
p9
(tsS'width'
p10
I644
sS'contours'
p11
(tsS'components'
p12
(tsS'anchors'
p13
(tsss."
HStem: 0 21G<200 368> 980 118<39 200 368 617> 1408 128<417.637 631>
VStem: 200 168<0 980 1098 1359.2>
LayerCount: 2
Fore
SplineSet
39 980 m 1
 39 1098 l 1
 200 1098 l 1
 200 1109 200 1120 200 1130 c 0
 205 1455 293 1536 558 1536 c 2
 631 1536 l 1
 651 1408 l 1
 557 1408 l 2
 383 1408 369 1338 368 1130 c 0
 368 1120 368 1109 368 1098 c 1
 617 1098 l 1
 617 980 l 1
 368 980 l 1
 368 0 l 1
 200 0 l 1
 200 980 l 1
 39 980 l 1
EndSplineSet
EndChar

StartChar: ff
Encoding: 64256 64256 284
Width: 1187
VWidth: 0
Flags: W
HStem: 0 21G<181 349 766 934> 980 118<20 181 349 766 934 1183> 1408 128<395.048 612 980.048 1197>
VStem: 181 168<0 980 1098 1364.58> 766 168<0 980 1098 1364.58>
LayerCount: 2
Fore
SplineSet
181 0 m 1
 181 980 l 1
 20 980 l 1
 20 1098 l 1
 181 1098 l 1
 181 1450 266 1536 539 1536 c 2
 612 1536 l 1
 632 1408 l 1
 538 1408 l 2
 355 1408 349 1331 349 1098 c 1
 766 1098 l 1
 766 1450 851 1536 1124 1536 c 2
 1197 1536 l 1
 1217 1408 l 1
 1123 1408 l 2
 940 1408 934 1331 934 1098 c 1
 1183 1098 l 1
 1183 980 l 1
 934 980 l 1
 934 0 l 1
 766 0 l 1
 766 980 l 1
 349 980 l 1
 349 0 l 1
 181 0 l 1
EndSplineSet
EndChar

StartChar: ffi
Encoding: 64259 64259 285
Width: 1585
VWidth: 0
Flags: W
HStem: 0 21G<181 349 738 906 1285 1453> 980 118<20 181 349 738 906 1285> 1298 198<1285 1453> 1408 128<395.048 612 939.802 1149>
VStem: 181 168<0 980 1098 1364.58> 738 168<0 980 1098 1374.02> 1285 168<0 980 1298 1496>
LayerCount: 2
Fore
SplineSet
1285 1496 m 1xee
 1453 1496 l 1
 1453 1298 l 1
 1285 1298 l 1
 1285 1496 l 1xee
349 980 m 1
 349 0 l 1
 181 0 l 1
 181 980 l 1
 20 980 l 1
 20 1098 l 1
 181 1098 l 1
 181 1450 266 1536 539 1536 c 2
 612 1536 l 1
 632 1408 l 1
 538 1408 l 2
 355 1408 349 1331 349 1098 c 1
 738 1098 l 1
 738 1450 799 1536 1072 1536 c 2
 1149 1536 l 1
 1156 1408 l 1
 1071 1408 l 2xde
 918 1408 906 1355 906 1201 c 0
 906 1171 906 1136 906 1098 c 1
 1453 1098 l 1
 1453 0 l 1
 1285 0 l 1
 1285 980 l 1
 906 980 l 1
 906 0 l 1
 738 0 l 1
 738 980 l 1
 349 980 l 1
EndSplineSet
EndChar

StartChar: fi
Encoding: 64257 64257 286
Width: 1088
VWidth: 0
Flags: W
HStem: 0 21G<181 349 788 956> 980 118<20 181 349 788> 1298 198<788 956> 1408 128<395.048 612>
VStem: 181 168<0 980 1098 1364.58> 788 168<0 980 1298 1496>
LayerCount: 2
Fore
SplineSet
788 1496 m 1xec
 956 1496 l 1
 956 1298 l 1
 788 1298 l 1
 788 1496 l 1xec
181 0 m 1
 181 980 l 1
 20 980 l 1
 20 1098 l 1
 181 1098 l 1
 181 1450 266 1536 539 1536 c 2
 612 1536 l 1
 632 1408 l 1
 538 1408 l 2xdc
 355 1408 349 1331 349 1098 c 1
 956 1098 l 1
 956 0 l 1
 788 0 l 1
 788 980 l 1
 349 980 l 1
 349 0 l 1
 181 0 l 1
EndSplineSet
EndChar

StartChar: five
Encoding: 53 53 287
Width: 1177
VWidth: 0
Flags: W
HStem: -23 162<308.864 714.14> 776 157<413.916 750.583> 1332 164<379 990>
VStem: 198 166<861 990.072> 237 142<1201.93 1332> 883 181<305.454 645.678>
LayerCount: 2
Fore
SplineSet
1004 1496 m 1xec
 990 1332 l 1
 379 1332 l 1xec
 374 1187 368 1006 364 861 c 1
 444 912 525 933 609 933 c 0
 912 933 1064 731 1064 477 c 0
 1064 178 860 -23 523 -23 c 0
 348 -23 210 33 121 114 c 1
 186 255 l 1
 250 205 363 139 529 139 c 0
 751 139 883 279 883 475 c 0
 883 648 778 776 575 776 c 0
 480 776 400 746 337 677 c 1
 198 696 l 1xf4
 237 1496 l 1
 1004 1496 l 1xec
EndSplineSet
EndChar

StartChar: fj
Encoding: 65537 -1 288
Width: 1033
VWidth: 0
Flags: W
HStem: -502 151<534 718.106> 0 21G<180 348> 980 118<20 180 348 751> 1298 198<751 919> 1408 128<394.048 611>
VStem: 180 168<0 980 1098 1364.58> 751 168<-317.405 980 1298 1496>
LayerCount: 2
Fore
SplineSet
534 -502 m 1xee
 512 -351 l 1
 564 -351 l 2
 746 -351 751 -286 751 -121 c 2
 751 980 l 1
 348 980 l 1
 348 0 l 1
 180 0 l 1
 180 980 l 1
 20 980 l 1
 20 1098 l 1
 180 1098 l 1
 180 1450 265 1536 538 1536 c 2
 611 1536 l 1
 631 1408 l 1
 537 1408 l 2
 354 1408 348 1331 348 1098 c 1
 919 1098 l 1
 919 -139 l 2
 919 -407 859 -502 586 -502 c 2
 534 -502 l 1xee
751 1496 m 1xf6
 919 1496 l 1
 919 1298 l 1
 751 1298 l 1
 751 1496 l 1xf6
EndSplineSet
EndChar

StartChar: fl
Encoding: 64258 64258 289
Width: 1237
VWidth: 0
Flags: W
HStem: -12 140<1012.94 1207.9> 980 118<20 181 349 598> 1384 128<410.626 802.926>
VStem: 181 168<0 980 1098 1319.49> 808 168<169.152 1378.61>
LayerCount: 2
Fore
SplineSet
1094 -12 m 0
 822 -12 808 123 808 487 c 2
 808 1376 l 1
 699 1383 638 1384 604 1384 c 0
 572 1384 562 1383 557 1383 c 0
 399 1383 349 1315 349 1098 c 1
 598 1098 l 1
 598 980 l 1
 349 980 l 1
 349 0 l 1
 181 0 l 1
 181 980 l 1
 20 980 l 1
 20 1098 l 1
 181 1098 l 1
 181 1423 315 1512 550 1512 c 0
 570 1512 590 1512 976 1490 c 1
 976 450 l 2
 976 211 977 128 1134 128 c 0
 1159 128 1155 128 1207 132 c 1
 1218 1 l 1
 1121 -10 1111 -12 1094 -12 c 0
EndSplineSet
EndChar

StartChar: florin
Encoding: 402 402 290
Width: 978
VWidth: 0
Flags: W
HStem: -358 148<37.4713 189.345> 865 150<265 412 615 790> 1393 154<698.139 903.125>
DStem2: 255 6 460 130 0.172299 0.985045<-195.565 873.204 1055.94 1420.97>
LayerCount: 2
Fore
SplineSet
412 865 m 1
 254 865 l 1
 265 1015 l 1
 438 1015 l 1
 460 1178 l 1
 487 1370 564 1547 783 1547 c 0
 822 1547 868 1537 911 1525 c 1
 903 1369 l 1
 867 1385 835 1393 807 1393 c 0
 703 1393 670 1334 654 1227 c 1
 615 1015 l 1
 801 1015 l 1
 790 865 l 1
 593 865 l 1
 460 130 l 1
 412 -127 347 -358 119 -358 c 0
 94 -358 64 -350 28 -339 c 1
 39 -192 l 1
 66 -203 89 -210 108 -210 c 0
 193 -210 231 -110 255 6 c 1
 319 281 359 583 412 865 c 1
EndSplineSet
EndChar

StartChar: four
Encoding: 52 52 291
Width: 1211
VWidth: 0
Flags: W
HStem: 0 21G<784 952> 371 145<284 784 952 1122> 1476 20G<751.482 952>
VStem: 784 168<0 371 516 1269>
DStem2: 108 524 284 516 0.56 0.828493<91.932 995.787>
LayerCount: 2
Fore
SplineSet
1122 371 m 1
 952 371 l 1
 952 0 l 1
 784 0 l 1
 784 371 l 1
 108 371 l 1
 108 524 l 1
 765 1496 l 1
 952 1496 l 1
 952 516 l 1
 1136 516 l 1
 1122 371 l 1
784 1269 m 1
 284 516 l 1
 784 516 l 1
 784 1269 l 1
EndSplineSet
EndChar

StartChar: foursuperior
Encoding: 8308 8308 292
Width: 756
VWidth: 0
Flags: W
HStem: 865 113<213 422 532 626> 1499 20G<401.432 532>
VStem: 422 110<661 865 978 1339>
DStem2: 92 964 213 978 0.500667 0.86564<72.6997 490.336>
LayerCount: 2
Fore
SplineSet
530 661 m 1
 423 661 l 1
 423 865 l 1
 92 865 l 1
 92 964 l 1
 413 1519 l 1
 532 1519 l 1
 532 978 l 1
 626 978 l 1
 636 865 l 1
 530 865 l 1
 530 661 l 1
213 978 m 1
 422 978 l 1
 422 1230 l 2
 422 1282 422 1311 423 1339 c 1
 213 978 l 1
EndSplineSet
EndChar

StartChar: fraction
Encoding: 8260 8260 293
Width: 1135
VWidth: 0
Flags: W
HStem: 0 21G<60 202.312>
DStem2: 60 0 191 0 0.492743 0.870175<64.5493 1777.8>
LayerCount: 2
Fore
SplineSet
936 1547 m 1
 1066 1547 l 1
 191 0 l 1
 60 0 l 1
 936 1547 l 1
EndSplineSet
EndChar

StartChar: g
Encoding: 103 103 294
Width: 1158
VWidth: 0
Flags: W
PickledData: "(dp1
S'com.typemytype.robofont.layerData'
p2
(dp3
S'back'
p4
(dp5
S'name'
p6
S'g'
sS'lib'
p7
(dp8
sS'unicodes'
p9
(tsS'width'
p10
I1164
sS'contours'
p11
(tsS'components'
p12
(tsS'anchors'
p13
(tsss."
HStem: -502 151<319 734.132> 1 142<415.656 741.352> 982 142<411.452 739.33> 1078 20G<889 1052>
VStem: 70 172<341.856 780.761> 889 163<-192.269 180 303.992 817.857 951 1098>
LayerCount: 2
Fore
SplineSet
569 143 m 0xec
 805 143 889 319 889 516 c 2
 889 597 l 2
 889 805 798 982 570 982 c 0
 332 982 242 744 242 554 c 0
 242 366 341 143 569 143 c 0xec
319 -502 m 1
 297 -351 l 1
 501 -351 l 2
 846 -351 884 -193 884 83 c 2
 884 180 l 1
 812 76 718 1 544 1 c 0
 219 1 70 294 70 545 c 0
 70 857 221 1124 556 1124 c 0xec
 702 1124 805 1064 889 951 c 1
 889 1098 l 1
 1052 1098 l 1xdc
 1052 79 l 2
 1052 -206 1010 -502 497 -502 c 2
 319 -502 l 1
EndSplineSet
EndChar

StartChar: gamma
Encoding: 947 947 296
Width: 468
VWidth: 0
Flags: W
HStem: 532 264<135.446 338.917>
VStem: 104 266<562.284 765.716>
LayerCount: 2
Fore
SplineSet
237 796 m 0
 326 796 370 730 370 664 c 0
 370 598 326 532 237 532 c 0
 149 532 104 598 104 664 c 0
 104 730 149 796 237 796 c 0
EndSplineSet
EndChar

StartChar: gcedilla
Encoding: 291 291 298
Width: 1268
VWidth: 0
Flags: W
PickledData: "(dp1
S'com.typemytype.robofont.layerData'
p2
(dp3
S'back'
p4
(dp5
S'name'
p6
S'gcedilla'
p7
sS'lib'
p8
(dp9
sS'unicodes'
p10
(tsS'width'
p11
I1268
sS'contours'
p12
(tsS'components'
p13
(tsS'anchors'
p14
(tsss."
HStem: -502 151<319 734.132> 1 142<415.656 741.352> 982 142<411.452 739.33> 1078 20<889 1052>
VStem: 70 172<341.856 780.761> 889 163<-192.269 180 303.992 817.857 951 1098>
LayerCount: 2
Fore
SplineSet
793 1749 m 1xcc
 683 1250 l 1
 488 1250 l 1
 653 1749 l 1
 793 1749 l 1xcc
EndSplineSet
Refer: 294 103 N 1 0 0 1 0 0 2
EndChar

StartChar: germandbls
Encoding: 223 223 301
Width: 1222
VWidth: 0
Flags: W
HStem: 0 148<459 910.25> 1373 152<400.5 720.569>
VStem: 118 168<0 1252.08> 799 189<1068.13 1296.59> 977 189<211.631 459.324>
LayerCount: 2
Fore
SplineSet
771 148 m 2xe8
 902 148 977 224 977 343 c 0xe8
 977 518 722 617 591 705 c 0
 544 737 509 775 509 822 c 0
 509 857 527 895 574 934 c 0
 673 1015 799 1045 799 1182 c 0
 799 1303 691 1373 568 1373 c 0
 364 1373 286 1246 286 1056 c 2
 286 0 l 1
 118 0 l 1
 118 1046 l 2
 118 1343 260 1525 568 1525 c 0
 818 1525 988 1398 988 1182 c 0xf0
 988 992 835 933 683 838 c 1
 870 704 1166 605 1166 348 c 0
 1166 94 1002 0 786 0 c 2
 443 0 l 1
 459 148 l 1
 771 148 l 2xe8
EndSplineSet
EndChar

StartChar: grave
Encoding: 96 96 302
Width: 643
VWidth: 0
Flags: W
HStem: 1251 387
VStem: 85 435
LayerCount: 2
Fore
SplineSet
408 1251 m 1
 85 1638 l 1
 335 1638 l 1
 520 1251 l 1
 408 1251 l 1
EndSplineSet
EndChar

StartChar: greater
Encoding: 62 62 303
Width: 1182
VWidth: 0
Flags: W
DStem2: 126 230 126 62 0.893681 0.448702<0 848.789> 130 1160 130 997 0.878457 -0.477822<77.8849 937.042>
LayerCount: 2
Fore
SplineSet
126 230 m 1
 891 598 l 1
 130 997 l 1
 130 1160 l 1
 1086 640 l 1
 1086 544 l 1
 126 62 l 1
 126 230 l 1
EndSplineSet
EndChar

StartChar: greaterequal
Encoding: 8805 8805 304
Width: 1183
VWidth: 0
Flags: W
HStem: 8 133<120 1080>
DStem2: 146 385 146 234 0.883975 0.467533<0 849.849> 150 1314 150 1164 0.873841 -0.486212<72.9318 930.76>
LayerCount: 2
Fore
SplineSet
1080 141 m 1
 1080 8 l 1
 120 8 l 1
 120 141 l 1
 1080 141 l 1
150 1164 m 1
 150 1314 l 1
 1063 806 l 1
 1063 719 l 1
 146 234 l 1
 146 385 l 1
 908 762 l 1
 150 1164 l 1
EndSplineSet
EndChar

StartChar: guillemotleft
Encoding: 171 171 305
Width: 983
VWidth: 0
Flags: W
VStem: 357 163<182 345 819 982>
DStem2: 270 583 119 583 0.529047 -0.848592<0 386.313> 119 583 270 583 0.544471 0.83878<82.2151 467.524>
LayerCount: 2
Fore
SplineSet
119 583 m 1
 363 982 l 1
 529 982 l 1
 270 583 l 1
 520 182 l 1
 357 182 l 1
 119 583 l 1
462 583 m 1
 726 982 l 1
 864 982 l 1
 633 583 l 1
 858 182 l 1
 722 182 l 1
 462 583 l 1
EndSplineSet
EndChar

StartChar: guillemotright
Encoding: 187 187 306
Width: 1007
VWidth: 0
Flags: W
VStem: 491 162<182 344 820 982>
DStem2: 491 182 653 182 0.531698 0.846934<86.1351 475.834> 659 982 501 982 0.522058 -0.85291<0 382.98>
LayerCount: 2
Fore
SplineSet
895 585 m 1
 653 182 l 1
 491 182 l 1
 744 585 l 1
 501 982 l 1
 659 982 l 1
 895 585 l 1
528 585 m 1
 263 182 l 1
 124 182 l 1
 356 585 l 1
 129 982 l 1
 266 982 l 1
 528 585 l 1
EndSplineSet
EndChar

StartChar: guilsinglleft
Encoding: 8249 8249 307
Width: 620
VWidth: 0
Flags: W
VStem: 356 139<182 321 843 982>
DStem2: 269 583 120 583 0.507208 -0.861824<0 389.718> 120 583 269 583 0.517017 0.855975<77.0356 466.135>
LayerCount: 2
Fore
SplineSet
361 982 m 1
 501 982 l 1
 269 583 l 1
 495 182 l 1
 356 182 l 1
 120 583 l 1
 361 982 l 1
EndSplineSet
EndChar

StartChar: guilsinglright
Encoding: 8250 8250 308
Width: 617
VWidth: 0
Flags: W
VStem: 124 140<182 322 842 982>
DStem2: 124 182 264 182 0.513242 0.858244<71.854 464.431> 269 982 130 982 0.510989 -0.859587<0 385.201>
LayerCount: 2
Fore
SplineSet
505 585 m 1
 264 182 l 1
 124 182 l 1
 355 585 l 1
 130 982 l 1
 269 982 l 1
 505 585 l 1
EndSplineSet
EndChar

StartChar: h
Encoding: 104 104 309
Width: 1112
VWidth: 0
Flags: W
PickledData: "(dp1
S'com.typemytype.robofont.layerData'
p2
(dp3
S'back'
p4
(dp5
S'name'
p6
S'h'
sS'lib'
p7
(dp8
sS'unicodes'
p9
(tsS'width'
p10
I1112
sS'contours'
p11
(tsS'components'
p12
(tsS'anchors'
p13
(tsss."
HStem: 0 21G<114 282 839 1007> 980 144<456.834 762.709> 1490 20G<114 282>
VStem: 114 168<0 833.106 949 1490> 839 168<0 897.011>
LayerCount: 2
Fore
SplineSet
282 0 m 1
 114 0 l 1
 114 1490 l 1
 282 1510 l 1
 282 949 l 1
 375 1061 507 1124 674 1124 c 0
 903 1124 1007 952 1007 664 c 2
 1007 0 l 1
 839 0 l 1
 839 617 l 2
 839 865 806 980 619 980 c 0
 448 980 309 852 282 748 c 1
 282 0 l 1
EndSplineSet
EndChar

StartChar: hbar
Encoding: 295 295 310
Width: 1115
VWidth: 0
Flags: W
PickledData: "(dp1
S'com.typemytype.robofont.layerData'
p2
(dp3
S'back'
p4
(dp5
S'name'
p6
S'hbar'
p7
sS'lib'
p8
(dp9
sS'unicodes'
p10
(tsS'width'
p11
I1115
sS'contours'
p12
(tsS'components'
p13
(tsS'anchors'
p14
(tsss."
HStem: 0 21<114 282 839 1007> 980 144<456.834 762.709> 1270 116<21 558> 1490 20<114 282>
VStem: 114 168<0 833.106 949 1490> 839 168<0 897.011>
LayerCount: 2
Fore
SplineSet
558 1270 m 1
 21 1270 l 1
 21 1386 l 1
 558 1386 l 1
 558 1270 l 1
EndSplineSet
Refer: 309 104 N 1 0 0 1 0 0 2
EndChar

StartChar: hungarumlaut
Encoding: 733 733 312
Width: 817
VWidth: 0
Flags: W
HStem: 1259 335
VStem: 128 585
LayerCount: 2
Fore
SplineSet
479 1594 m 1
 227 1259 l 1
 128 1259 l 1
 326 1594 l 1
 479 1594 l 1
713 1594 m 1
 463 1259 l 1
 361 1259 l 1
 563 1594 l 1
 713 1594 l 1
EndSplineSet
EndChar

StartChar: hyphen
Encoding: 45 45 313
Width: 686
VWidth: 0
Flags: W
HStem: 521 142<89 597>
VStem: 89 508<521 663>
LayerCount: 2
Fore
SplineSet
89 521 m 1
 89 663 l 1
 597 663 l 1
 597 521 l 1
 89 521 l 1
EndSplineSet
EndChar

StartChar: i
Encoding: 105 105 314
Width: 466
VWidth: 0
Flags: W
PickledData: "(dp1
S'com.typemytype.robofont.layerData'
p2
(dp3
S'back'
p4
(dp5
S'name'
p6
S'i'
sS'lib'
p7
(dp8
sS'unicodes'
p9
(tsS'width'
p10
I466
sS'contours'
p11
(tsS'components'
p12
(tsS'anchors'
p13
(tsss."
HStem: 0 21G<159 327> 1078 20G<159 327> 1298 198<159 327>
VStem: 159 168<0 1098 1298 1496>
LayerCount: 2
Fore
SplineSet
327 1098 m 1
 327 0 l 1
 159 0 l 1
 159 1098 l 1
 327 1098 l 1
327 1496 m 1
 327 1298 l 1
 159 1298 l 1
 159 1496 l 1
 327 1496 l 1
EndSplineSet
EndChar

StartChar: ij
Encoding: 307 307 320
Width: 976
VWidth: 0
Flags: W
HStem: -310 21G<437 445> 0 21G<155 325> 1078 20G<155 325 647 817> 1359 198<155 325 647 817>
VStem: 155 170<0 1098 1359 1557> 647 170<-78.4566 1098 1359 1557>
LayerCount: 2
Fore
SplineSet
817 1557 m 1
 817 1359 l 1
 647 1359 l 1
 647 1557 l 1
 817 1557 l 1
325 1557 m 1
 325 1359 l 1
 155 1359 l 1
 155 1557 l 1
 325 1557 l 1
325 1098 m 1
 325 0 l 1
 155 0 l 1
 155 1098 l 1
 325 1098 l 1
817 1098 m 1
 817 180 l 2
 817 -146 793 -264 445 -308 c 1
 437 -310 l 1
 437 -141 l 1
 445 -141 l 1
 644 -117 647 -30 647 126 c 2
 647 1098 l 1
 817 1098 l 1
EndSplineSet
EndChar

StartChar: infinity
Encoding: 8734 8734 322
Width: 1811
VWidth: 0
Flags: W
HStem: 254 127<357.461 634.818 1185.21 1462.46> 893 124<348.037 636.73 1181.8 1459.94>
VStem: 135 113<494.379 789.861> 1555 123<484.319 800.799>
LayerCount: 2
Fore
SplineSet
1555 665 m 0
 1555 789 1457 893 1321 893 c 0
 1182 893 1071 770 982 638 c 1
 1105 470 1199 381 1326 381 c 0
 1482 381 1555 507 1555 665 c 0
248 638 m 0
 248 508 347 381 495 381 c 0
 628 381 744 497 838 636 c 1
 745 783 631 893 487 893 c 0
 339 893 248 775 248 638 c 0
1678 642 m 0
 1678 413 1522 254 1323 254 c 0
 1171 254 1045 344 909 525 c 1
 789 367 660 254 493 254 c 0
 266 254 135 440 135 659 c 0
 135 858 291 1017 488 1017 c 0
 659 1017 786 909 909 745 c 1
 1024 903 1151 1017 1326 1017 c 0
 1554 1017 1678 860 1678 642 c 0
EndSplineSet
EndChar

StartChar: integral
Encoding: 8747 8747 323
Width: 698
VWidth: 0
Flags: W
HStem: -429 145<42 238.475> 1610 146<460.524 659.999>
VStem: 277 144<-246.68 1572.97>
LayerCount: 2
Fore
SplineSet
277 -50 m 2
 277 1351 l 2
 277 1583 341 1756 540 1756 c 0
 591 1756 620 1745 661 1733 c 1
 662 1594 l 1
 639 1605 601 1610 566 1610 c 0
 446 1610 421 1531 421 1379 c 2
 421 -25 l 2
 421 -257 361 -429 162 -429 c 0
 111 -429 82 -421 41 -409 c 1
 40 -270 l 1
 63 -281 98 -284 133 -284 c 0
 253 -284 277 -202 277 -50 c 2
EndSplineSet
EndChar

StartChar: iota
Encoding: 953 953 325
Width: 468
VWidth: 0
Flags: W
HStem: 532 264<135.446 338.917>
VStem: 104 266<562.284 765.716>
LayerCount: 2
Fore
SplineSet
237 796 m 0
 326 796 370 730 370 664 c 0
 370 598 326 532 237 532 c 0
 149 532 104 598 104 664 c 0
 104 730 149 796 237 796 c 0
EndSplineSet
EndChar

StartChar: iotadieresistonos
Encoding: 912 912 327
Width: 468
VWidth: 0
Flags: W
HStem: 532 264<135.446 338.917>
VStem: 104 266<562.284 765.716>
LayerCount: 2
Fore
SplineSet
237 796 m 0
 326 796 370 730 370 664 c 0
 370 598 326 532 237 532 c 0
 149 532 104 598 104 664 c 0
 104 730 149 796 237 796 c 0
EndSplineSet
EndChar

StartChar: iotatonos
Encoding: 943 943 328
Width: 468
VWidth: 0
Flags: W
HStem: 532 264<135.446 338.917>
VStem: 104 266<562.284 765.716>
LayerCount: 2
Fore
SplineSet
237 796 m 0
 326 796 370 730 370 664 c 0
 370 598 326 532 237 532 c 0
 149 532 104 598 104 664 c 0
 104 730 149 796 237 796 c 0
EndSplineSet
EndChar

StartChar: j
Encoding: 106 106 330
Width: 445
VWidth: 0
Flags: W
HStem: -502 151<-55 129.106> 1078 20G<162 330> 1298 198<162 330>
VStem: 162 168<-317.405 1098 1298 1496>
LayerCount: 2
Fore
SplineSet
330 1098 m 1
 330 -139 l 2
 330 -407 270 -502 -3 -502 c 2
 -55 -502 l 1
 -77 -351 l 1
 -25 -351 l 2
 157 -351 162 -286 162 -121 c 2
 162 1098 l 1
 330 1098 l 1
330 1496 m 1
 330 1298 l 1
 162 1298 l 1
 162 1496 l 1
 330 1496 l 1
EndSplineSet
EndChar

StartChar: k
Encoding: 107 107 332
Width: 1007
VWidth: 0
Flags: W
PickledData: "(dp1
S'com.typemytype.robofont.layerData'
p2
(dp3
S'back'
p4
(dp5
S'name'
p6
S'k'
sS'lib'
p7
(dp8
sS'unicodes'
p9
(tsS'width'
p10
I1007
sS'contours'
p11
(tsS'components'
p12
(tsS'anchors'
p13
(tsss."
HStem: 0 21G<115 283 802.258 1032> 1078 20G<751.013 999> 1490 20G<115 283>
VStem: 115 168<0 461 632 1490> 772 227<871 1098> 817 215<0 215>
DStem2: 283 632 530 642 0.723927 0.689877<185.709 675.483> 530 642 402 563 0.615977 -0.787764<0 682.53>
LayerCount: 2
Fore
SplineSet
115 1490 m 1xf4
 283 1510 l 1
 283 632 l 1
 772 1098 l 1
 999 1098 l 1xf8
 530 642 l 1
 1032 0 l 1
 817 0 l 1
 402 563 l 1
 283 461 l 1
 283 0 l 1
 115 0 l 1
 115 1490 l 1xf4
EndSplineSet
EndChar

StartChar: kgreenlandic
Encoding: 312 312 335
Width: 1104
VWidth: 0
Flags: W
HStem: 0 21G<147 293 802.051 1014> 1085 20G<147 293 756.871 981>
VStem: 147 146<0 506 600 1105> 776 205<900 1105> 823 191<0 191>
DStem2: 293 600 458 551 0.686469 0.727159<77.6367 698.78> 458 551 293 506 0.723294 -0.690541<0 644.49>
LayerCount: 2
Fore
SplineSet
823 0 m 1xe8
 293 506 l 1
 293 0 l 1
 147 0 l 1
 147 1105 l 1
 293 1105 l 1
 293 600 l 1
 776 1105 l 1
 981 1105 l 1xf0
 458 551 l 1
 655 368 847 183 1014 0 c 1
 823 0 l 1xe8
EndSplineSet
EndChar

StartChar: l
Encoding: 108 108 336
Width: 569
VWidth: 0
Flags: W
PickledData: "(dp1
S'com.typemytype.robofont.layerData'
p2
(dp3
S'back'
p4
(dp5
S'name'
p6
S'l'
sS'lib'
p7
(dp8
sS'unicodes'
p9
(tsS'width'
p10
I552
sS'contours'
p11
((dp12
S'points'
p13
((dp14
S'segmentType'
p15
S'curve'
p16
sS'x'
F918
sS'smooth'
p17
I01
sS'y'
F549
s(dp18
S'y'
F245
sS'x'
F918
sg17
I00
s(dp19
S'y'
F-25
sS'x'
F739
sg17
I00
s(dp20
g15
S'curve'
p21
sS'x'
F410
sg17
I01
sS'y'
F-25
s(dp22
S'y'
F-25
sS'x'
F78
sg17
I00
s(dp23
S'y'
F232
sS'x'
F-107
sg17
I00
s(dp24
g15
S'curve'
p25
sS'x'
F-107
sg17
I01
sS'y'
F547
s(dp26
S'y'
F861
sS'x'
F-107
sg17
I00
s(dp27
S'y'
F1124
sS'x'
F81
sg17
I00
s(dp28
g15
S'curve'
p29
sS'x'
F413
sg17
I01
sS'y'
F1124
s(dp30
S'y'
F1124
sS'x'
F749
sg17
I00
s(dp31
S'y'
F865
sS'x'
F918
sg17
I00
stp32
s(dp33
g13
((dp34
g15
S'line'
p35
sS'x'
F406
sg17
I01
sS'y'
F1098
stp36
s(dp37
g13
((dp38
g15
S'line'
p39
sS'x'
F406
sg17
I00
sS'y'
F1098
stp40
s(dp41
g13
((dp42
g15
S'curve'
p43
sS'x'
F744
sg17
I01
sS'y'
F547
s(dp44
S'y'
F780
sS'x'
F744
sg17
I00
s(dp45
S'y'
F986
sS'x'
F657
sg17
I00
s(dp46
g15
S'curve'
p47
sS'x'
F410
sg17
I01
sS'y'
F986
s(dp48
S'y'
F986
sS'x'
F174
sg17
I00
s(dp49
S'y'
F768
sS'x'
F66
sg17
I00
s(dp50
g15
S'curve'
p51
sS'x'
F66
sg17
I01
sS'y'
F544
s(dp52
S'y'
F323
sS'x'
F66
sg17
I00
s(dp53
S'y'
F113
sS'x'
F173
sg17
I00
s(dp54
g15
S'curve'
p55
sS'x'
F413
sg17
I01
sS'y'
F113
s(dp56
S'y'
F113
sS'x'
F650
sg17
I00
s(dp57
S'y'
F323
sS'x'
F744
sg17
I00
stp58
s(dp59
g13
((dp60
g15
S'line'
p61
sS'x'
F599
sg17
I00
sS'y'
F1098
stp62
stp63
sS'components'
p64
(tsS'anchors'
p65
((dp66
S'y'
F1098
sS'x'
F599
sg6
S'top'
p67
stp68
sss."
HStem: -21 139<343.685 596.516> 1490 20G<143 311>
VStem: 143 168<154.195 1490>
LayerCount: 2
Back
SplineSet
312 980 m 1
 312 367 l 2
 312 162 337 118 471 118 c 0
 490 118 530 123 607 129 c 1
 622 -7 l 1
 497 -18 466 -20 432 -20 c 0
 165 -20 144 111 144 445 c 2
 144 980 l 1
 -23 980 l 1
 -10 1098 l 1
 144 1098 l 1
 188 1453 l 1
 312 1462 l 1
 312 1098 l 1
 603 1098 l 1
 603 980 l 1
 312 980 l 1
316 0 m 0
316 549 m 0
EndSplineSet
Fore
SplineSet
433 -21 m 0
 166 -21 143 106 143 468 c 2
 143 1490 l 1
 311 1510 l 1
 311 431 l 2
 311 192 315 118 458 118 c 0
 485 118 547 124 596 128 c 1
 611 -8 l 1
 561 -13 452 -21 433 -21 c 0
EndSplineSet
EndChar

StartChar: lambda
Encoding: 955 955 338
Width: 468
VWidth: 0
Flags: W
HStem: 532 264<135.446 338.917>
VStem: 104 266<562.284 765.716>
LayerCount: 2
Fore
SplineSet
237 796 m 0
 326 796 370 730 370 664 c 0
 370 598 326 532 237 532 c 0
 149 532 104 598 104 664 c 0
 104 730 149 796 237 796 c 0
EndSplineSet
EndChar

StartChar: less
Encoding: 60 60 342
Width: 1179
VWidth: 0
Flags: W
DStem2: 294 596 103 547 0.886866 -0.462026<0 852.249>
LayerCount: 2
Fore
SplineSet
1061 982 m 1
 294 596 l 1
 1057 216 l 1
 1057 50 l 1
 103 547 l 1
 103 642 l 1
 1061 1149 l 1
 1061 982 l 1
EndSplineSet
EndChar

StartChar: lessequal
Encoding: 8804 8804 343
Width: 1183
VWidth: 0
Flags: W
HStem: 8 133<101 1066>
LayerCount: 2
Fore
SplineSet
1041 383 m 1
 1041 232 l 1
 131 716 l 1
 131 806 l 1
 1041 1312 l 1
 1041 1162 l 1
 285 766 l 1
 1041 383 l 1
1066 141 m 1
 1066 8 l 1
 101 8 l 1
 101 141 l 1
 1066 141 l 1
EndSplineSet
EndChar

StartChar: logicalnot
Encoding: 172 172 344
Width: 1280
VWidth: 0
Flags: W
HStem: 709 151<115 1003>
VStem: 1003 133<256 709>
LayerCount: 2
Fore
SplineSet
1136 256 m 1
 1003 256 l 1
 1003 709 l 1
 115 709 l 1
 115 860 l 1
 1136 860 l 1
 1136 256 l 1
EndSplineSet
EndChar

StartChar: lozenge
Encoding: 9674 9674 345
Width: 1142
VWidth: 0
Flags: W
DStem2: 87 766 219 768 0.46744 0.884025<37.0961 810.734> 219 768 87 766 0.462827 -0.886449<-26.0727 746.967> 565 106 621 -48 0.469577 0.882891<0 783.439> 630 1583 577 1424 0.46238 -0.886682<116.476 886.15>
LayerCount: 2
Fore
SplineSet
565 106 m 1
 684 326 804 546 923 766 c 1
 808 985 690 1203 577 1424 c 1
 457 1206 338 987 219 768 c 1
 335 548 446 323 565 106 c 1
630 1583 m 1
 1055 768 l 1
 621 -48 l 1
 512 -48 l 1
 87 766 l 1
 519 1583 l 1
 630 1583 l 1
EndSplineSet
EndChar

StartChar: lslash
Encoding: 322 322 346
Width: 589
VWidth: 0
Flags: W
PickledData: "(dp1
S'com.typemytype.robofont.layerData'
p2
(dp3
S'back'
p4
(dp5
S'name'
p6
S'lslash'
p7
sS'lib'
p8
(dp9
sS'unicodes'
p10
(tsS'width'
p11
I589
sS'contours'
p12
(tsS'components'
p13
(tsS'anchors'
p14
(tsss."
HStem: -21 139<343.685 596.516> 486 145<31 176> 839 146<341 487> 1490 20<143 311>
VStem: 143 168<154.195 1490>
DStem2: 31 631 31 486 0.789912 0.613221<0 487.75>
LayerCount: 2
Fore
SplineSet
487 985 m 1
 487 839 l 1
 31 486 l 1
 31 631 l 1
 487 985 l 1
EndSplineSet
Refer: 336 108 N 1 0 0 1 0 0 2
EndChar

StartChar: m
Encoding: 109 109 347
Width: 1773
VWidth: 0
Flags: W
PickledData: "(dp1
S'com.typemytype.robofont.layerData'
p2
(dp3
S'back'
p4
(dp5
S'name'
p6
S'm'
sS'lib'
p7
(dp8
sS'unicodes'
p9
(tsS'width'
p10
I1773
sS'contours'
p11
(tsS'components'
p12
(tsS'anchors'
p13
(tsss."
HStem: 0 21G<114 282 825 993 1500 1668> 979 145<447.128 743.416 1150.17 1428.5> 1078 20G<111 256.951>
VStem: 111 144<951.056 1098> 114 168<0 832.188> 825 168<0 820.69> 1500 168<0 899.435>
LayerCount: 2
Fore
SplineSet
114 0 m 1xce
 114 820 l 2xce
 114 913 111 1066 111 1098 c 1
 255 1098 l 1xb6
 271 934 l 1
 368 1063 502 1124 641 1124 c 0
 794 1124 899 1068 950 921 c 1
 1047 1069 1175 1124 1330 1124 c 0
 1578 1124 1668 954 1668 697 c 2
 1668 0 l 1
 1500 0 l 1
 1500 573 l 2
 1500 820 1490 979 1303 979 c 0
 1164 979 1044 879 993 731 c 1
 993 0 l 1
 825 0 l 1
 825 608 l 2
 825 832 787 979 621 979 c 0
 450 979 318 861 282 749 c 1
 282 0 l 1
 114 0 l 1xce
EndSplineSet
EndChar

StartChar: macron
Encoding: 175 175 348
Width: 770
VWidth: 0
Flags: W
LayerCount: 2
Fore
SplineSet
387 1098 m 1
 387 1098 l 1
637 1275 m 1
 136 1275 l 1
 136 1418 l 1
 637 1418 l 1
 637 1275 l 1
386.5 1098 m 1
 386.5 1098 l 1
386.5 1098 m 1
 386.5 1098 l 1
386.5 1098 m 1
 386.5 1098 l 1
386.5 1098 m 1
 386.5 1098 l 1
386.5 1098 m 1
 386.5 1098 l 1
386.5 1098 m 1
 386.5 1098 l 1
386.5 1098 m 1
 386.5 1098 l 1
386.5 1098 m 0
EndSplineSet
EndChar

StartChar: middot
Encoding: 183 183 349
Width: 468
VWidth: 0
Flags: W
LayerCount: 2
Fore
SplineSet
235 793 m 0
 324 793 368 727 368 661 c 0
 368 595 324 529 235 529 c 0
 147 529 102 595 102 661 c 0
 102 727 147 793 235 793 c 0
EndSplineSet
EndChar

StartChar: minus
Encoding: 8722 8722 350
Width: 1274
VWidth: 0
Flags: W
HStem: 534 148<140 1141>
LayerCount: 2
Fore
SplineSet
140 682 m 1
 1141 682 l 1
 1141 534 l 1
 140 534 l 1
 140 682 l 1
EndSplineSet
EndChar

StartChar: mu
Encoding: 956 956 351
Width: 468
VWidth: 0
Flags: W
HStem: 532 264<135.446 338.917>
VStem: 104 266<562.284 765.716>
LayerCount: 2
Fore
SplineSet
237 796 m 0
 326 796 370 730 370 664 c 0
 370 598 326 532 237 532 c 0
 149 532 104 598 104 664 c 0
 104 730 149 796 237 796 c 0
EndSplineSet
EndChar

StartChar: multiply
Encoding: 215 215 352
Width: 993
VWidth: 0
Flags: W
DStem2: 206 1027 115 917 0.655581 -0.755125<23.4059 426.514 593.396 994.339> 115 276 206 166 0.655581 0.755125<0 403.108 569.991 970.933>
LayerCount: 2
Fore
SplineSet
860 915 m 1
 595 598 l 1
 860 278 l 1
 767 166 l 1
 488 486 l 1
 206 166 l 1
 115 276 l 1
 381 598 l 1
 115 917 l 1
 206 1027 l 1
 488 707 l 1
 767 1027 l 1
 860 915 l 1
EndSplineSet
EndChar

StartChar: n
Encoding: 110 110 353
Width: 1112
VWidth: 0
Flags: W
PickledData: "(dp1
S'com.typemytype.robofont.layerData'
p2
(dp3
S'back'
p4
(dp5
S'name'
p6
S'n'
sS'lib'
p7
(dp8
sS'unicodes'
p9
(tsS'width'
p10
I1112
sS'contours'
p11
(tsS'components'
p12
(tsS'anchors'
p13
(tsss."
HStem: 0 21G<114 282 839 1007> 980 144<454.767 764.356> 1078 20G<111 256.963>
VStem: 111 144<951.952 1098> 114 168<0 832.609> 839 168<0 891.655>
LayerCount: 2
Fore
SplineSet
661 1124 m 0xd4
 902 1124 1007 965 1007 657 c 2
 1007 0 l 1
 839 0 l 1
 839 551 l 2
 839 836 828 980 625 980 c 0
 441 980 309 849 282 750 c 1
 282 0 l 1
 114 0 l 1
 114 831 l 1xcc
 111 1098 l 1
 255 1098 l 1xb4
 271 935 l 1
 356 1052 509 1124 661 1124 c 0xd4
EndSplineSet
EndChar

StartChar: nine
Encoding: 57 57 357
Width: 1165
VWidth: 0
Flags: W
PickledData: "(dp1
S'com.typemytype.robofont.layerData'
p2
(dp3
S'back'
p4
(dp5
S'name'
p6
S'nine'
p7
sS'lib'
p8
(dp9
sS'unicodes'
p10
(tsS'width'
p11
I1165
sS'contours'
p12
(tsS'components'
p13
(tsS'anchors'
p14
(tsss."
HStem: 0 21G<250 485.952> 598 150<417.357 749.084> 1373 152<428.537 770.703>
VStem: 86 189<885.25 1221.66> 250 220<0 220> 901 189<879.788 1233.56>
DStem2: 250 0 470 0 0.628007 0.778208<138.161 841.384>
LayerCount: 2
Fore
SplineSet
556 598 m 0xec
 304 598 86 777 86 1053 c 0xf4
 86 1320 286 1525 592 1525 c 0
 912 1525 1090 1312 1090 1042 c 0
 1090 844 1026 712 872 504 c 1
 775 375 470 0 470 0 c 1
 250 0 l 1
 781 658 l 1
 717 624 636 598 556 598 c 0xec
901 1061 m 0
 901 1234 804 1373 598 1373 c 0
 393 1373 275 1228 275 1056 c 0
 275 872 390 748 592 748 c 0
 814 748 901 889 901 1061 c 0
EndSplineSet
EndChar

StartChar: notequal
Encoding: 8800 8800 358
Width: 1191
VWidth: 0
Flags: W
HStem: 352 127<121 382 581 1076> 783 132<121 598 796 1074>
DStem2: 446 479 581 479 0.435302 0.900284<58.7658 339.852 544.88 808.633>
LayerCount: 2
Fore
SplineSet
798 1207 m 1
 913 1191 l 1
 796 915 l 1
 1074 915 l 1
 1083 783 l 1
 737 783 l 1
 581 479 l 1
 1076 479 l 1
 1083 352 l 1
 521 352 l 1
 376 48 l 1
 263 68 l 1
 382 352 l 1
 121 352 l 1
 114 479 l 1
 446 479 l 1
 598 783 l 1
 121 783 l 1
 112 915 l 1
 657 915 l 1
 798 1207 l 1
EndSplineSet
EndChar

StartChar: nu
Encoding: 957 957 360
Width: 468
VWidth: 0
Flags: W
HStem: 532 264<135.446 338.917>
VStem: 104 266<562.284 765.716>
LayerCount: 2
Fore
SplineSet
237 796 m 0
 326 796 370 730 370 664 c 0
 370 598 326 532 237 532 c 0
 149 532 104 598 104 664 c 0
 104 730 149 796 237 796 c 0
EndSplineSet
EndChar

StartChar: numbersign
Encoding: 35 35 361
Width: 1134
VWidth: 0
Flags: W
HStem: -23 21G<189 321.695 549 703.972> 410 126<101 262 422 633 804 941> 931 124<177 345 527 737 894 1018>
VStem: 189 129<-23 106> 453 153<1309 1462> 549 151<-23 128> 832 128<1334 1462>
DStem2: 189 -23 318 -23 0.190392 0.981708<24.5606 438.978 593.136 941.714 1122.63 1508.1> 345 930 502 931 0.190392 0.981708<-939.315 -526.291 -372.133 0 157.365 542.831> 549 -23 700 -23 0.187203 0.982321<28.2677 441.07 596.854 972.329 1123.53 1123.53>
LayerCount: 2
Fore
SplineSet
1032 1055 m 1xfa
 1018 931 l 1
 871 931 l 1
 804 536 l 1
 951 536 l 1
 941 410 l 1
 786 410 l 1
 700 -23 l 1
 549 -23 l 1xf6
 633 410 l 1
 398 410 l 1
 318 -23 l 1
 189 -23 l 1
 262 410 l 1
 91 410 l 1
 101 536 l 1
 284 536 l 1
 345 930 l 1
 168 930 l 1
 177 1055 l 1
 370 1055 l 1
 453 1462 l 1
 606 1462 l 1
 527 1055 l 1
 761 1055 l 1
 832 1462 l 1
 960 1462 l 1
 894 1055 l 1
 1032 1055 l 1xfa
737 931 m 1
 502 931 l 1
 422 536 l 1
 658 536 l 1
 737 931 l 1
EndSplineSet
EndChar

StartChar: o
Encoding: 111 111 362
Width: 1165
VWidth: 0
Flags: W
PickledData: "(dp1
S'com.typemytype.robofont.layerData'
p2
(dp3
S'back'
p4
(dp5
S'name'
p6
S'o'
sS'lib'
p7
(dp8
sS'unicodes'
p9
(tsS'width'
p10
I1179
sS'contours'
p11
(tsS'components'
p12
(tsS'anchors'
p13
(tsss."
HStem: -25 138<427.724 752.78> 986 138<428.727 753.751>
VStem: 70 173<321.983 771.48> 921 174<308.53 797.311>
LayerCount: 2
Fore
SplineSet
1095 549 m 4
 1095 245 916 -25 587 -25 c 4
 255 -25 70 232 70 547 c 4
 70 861 258 1124 590 1124 c 4
 926 1124 1095 865 1095 549 c 4
921 547 m 4
 921 780 834 986 587 986 c 4
 351 986 243 768 243 544 c 4
 243 323 350 113 590 113 c 4
 827 113 921 323 921 547 c 4
EndSplineSet
EndChar

StartChar: oe
Encoding: 339 339 367
Width: 1916
VWidth: 0
Flags: W
PickledData: "(dp1
S'com.typemytype.robofont.layerData'
p2
(dp3
S'back'
p4
(dp5
S'name'
p6
S'oe'
p7
sS'lib'
p8
(dp9
sS'unicodes'
p10
(tsS'width'
p11
I1916
sS'contours'
p12
(tsS'components'
p13
(tsS'anchors'
p14
(tsss."
HStem: -25 138<429.24 751.296 1277.03 1633.77> 519 115<1099 1672> 986 138<430.243 755.63 1251.53 1554.61>
VStem: 82 173<311.25 782.37> 921 172<311.242 519 634 796.405> 1672 162<634 848.84>
LayerCount: 2
Fore
SplineSet
590 113 m 0
 827 113 921 323 921 547 c 0
 921 780 834 986 587 986 c 0
 351 986 255 768 255 544 c 0
 255 323 350 113 590 113 c 0
1099 634 m 1
 1672 634 l 1
 1672 868 1567 988 1404 988 c 0
 1238 988 1118 850 1099 634 c 1
1425 -25 m 0
 1231 -25 1083 61 1000 211 c 1
 920 70 782 -25 587 -25 c 0
 255 -25 82 232 82 547 c 0
 82 861 258 1124 590 1124 c 0
 791 1124 928 1031 1005 889 c 1
 1087 1031 1241 1119 1414 1124 c 1
 1687 1124 1834 918 1834 594 c 0
 1834 578 1832 538 1832 519 c 1
 1093 519 l 1
 1093 272 1237 119 1430 119 c 0
 1586 119 1688 176 1766 229 c 1
 1818 107 l 1
 1728 30 1601 -25 1425 -25 c 0
EndSplineSet
EndChar

StartChar: ogonek
Encoding: 731 731 368
Width: 590
VWidth: 0
Flags: W
HStem: -419 116<256.409 465.911> -387 117<351 468>
VStem: 118 125<-288.957 -118.575>
LayerCount: 2
Fore
SplineSet
331 -303 m 0xa0
 385 -303 417 -291 468 -270 c 1
 468 -387 l 1x60
 430 -403 365 -419 311 -419 c 0
 203 -419 118 -357 118 -243 c 0
 118 -134 213 -51 309 5 c 1
 423 5 l 1
 319 -72 243 -146 243 -214 c 0
 243 -267 290 -303 331 -303 c 0xa0
EndSplineSet
EndChar

StartChar: omega
Encoding: 969 969 372
Width: 468
VWidth: 0
Flags: W
HStem: 532 264<135.446 338.917>
VStem: 104 266<562.284 765.716>
LayerCount: 2
Fore
SplineSet
237 796 m 0
 326 796 370 730 370 664 c 0
 370 598 326 532 237 532 c 0
 149 532 104 598 104 664 c 0
 104 730 149 796 237 796 c 0
EndSplineSet
EndChar

StartChar: omegatonos
Encoding: 974 974 373
Width: 468
VWidth: 0
Flags: W
HStem: 532 264<135.446 338.917>
VStem: 104 266<562.284 765.716>
LayerCount: 2
Fore
SplineSet
237 796 m 0
 326 796 370 730 370 664 c 0
 370 598 326 532 237 532 c 0
 149 532 104 598 104 664 c 0
 104 730 149 796 237 796 c 0
EndSplineSet
EndChar

StartChar: omicrontonos
Encoding: 972 972 375
Width: 468
VWidth: 0
Flags: W
HStem: 532 264<135.446 338.917>
VStem: 104 266<562.284 765.716>
LayerCount: 2
Fore
SplineSet
237 796 m 0
 326 796 370 730 370 664 c 0
 370 598 326 532 237 532 c 0
 149 532 104 598 104 664 c 0
 104 730 149 796 237 796 c 0
EndSplineSet
EndChar

StartChar: one
Encoding: 49 49 376
Width: 626
VWidth: 0
Flags: W
HStem: 0 21G<284 461> 1476 20G<262.5 461>
VStem: 284 177<0 1311>
LayerCount: 2
Fore
SplineSet
302 1496 m 1
 461 1496 l 1
 461 0 l 1
 284 0 l 1
 284 1311 l 1
 205 1259 109 1221 37 1198 c 1
 37 1365 l 1
 125 1404 223 1440 302 1496 c 1
EndSplineSet
EndChar

StartChar: onehalf
Encoding: 189 189 377
Width: 1591
VWidth: 0
Flags: W
HStem: -30 129<1123 1457> 0 21G<245 391.153> 650 125<149 257 363 487> 745 127<1102.57 1344.65>
VStem: 245 134<0 134> 257 106<778 1369> 1165 154<1393 1547> 1370 113<512.25 717.783>
DStem2: 245 0 379 0 0.519281 0.854604<69.5836 1799.81>
LayerCount: 2
Fore
SplineSet
122 1294 m 1x27
 122 1436 l 1
 183 1461 231 1487 271 1519 c 1
 363 1538 l 1
 363 775 l 1
 487 775 l 1
 487 650 l 1
 149 650 l 1
 149 778 l 1
 257 778 l 1
 257 1179 255 1263 255 1369 c 1
 216 1344 167 1317 122 1294 c 1x27
1165 1547 m 1
 1319 1547 l 1
 379 0 l 1
 245 0 l 1x4b
 1165 1547 l 1
1457 -30 m 1x93
 934 -30 l 1
 934 93 l 1
 1187 333 1370 508 1370 627 c 0
 1370 700 1317 745 1225 745 c 0
 1137 745 1071 693 1031 604 c 1
 943 689 l 1
 991 806 1098 872 1230 872 c 0
 1381 872 1483 778 1483 629 c 0
 1483 445 1316 287 1123 99 c 1
 1457 99 l 1
 1457 -30 l 1x93
EndSplineSet
EndChar

StartChar: onequarter
Encoding: 188 188 378
Width: 1609
VWidth: 0
Flags: W
HStem: 0 21G<293 437.023> 240 118<1066 1312 1422 1516> 650 125<147 255 361 473>
VStem: 255 106<778 1369> 293 132<0 132> 1212 143<1404 1547> 1312 110<40 240 358 716>
DStem2: 293 0 425 0 0.515229 0.857053<68.0102 1799.36> 923 339 1066 358 0.560488 0.828162<95.8849 530.808>
LayerCount: 2
Fore
SplineSet
120 1294 m 1xf0
 120 1436 l 1
 181 1461 228 1487 268 1519 c 1
 361 1538 l 1
 361 775 l 1
 473 775 l 1
 473 650 l 1
 147 650 l 1
 147 778 l 1
 255 778 l 1
 255 1179 253 1263 253 1369 c 1
 214 1344 165 1317 120 1294 c 1xf0
1212 1547 m 1xec
 1355 1547 l 1
 425 0 l 1
 293 0 l 1
 1212 1547 l 1xec
1420 40 m 1
 1313 40 l 1
 1313 240 l 1
 923 240 l 1
 923 339 l 1
 1302 899 l 1
 1422 899 l 1
 1422 358 l 1xe2
 1516 358 l 1
 1526 240 l 1
 1420 240 l 1
 1420 40 l 1
1066 358 m 1
 1312 358 l 1
 1312 608 l 2
 1312 660 1312 688 1313 716 c 1
 1066 358 l 1
EndSplineSet
EndChar

StartChar: onesuperior
Encoding: 185 185 379
Width: 613
VWidth: 0
Flags: W
HStem: 650 128<163 271 377 483>
VStem: 271 106<778 1369>
LayerCount: 2
Fore
SplineSet
377 1538 m 1
 377 775 l 1
 483 775 l 1
 483 650 l 1
 163 650 l 1
 163 778 l 1
 271 778 l 1
 271 1179 269 1263 269 1369 c 1
 230 1344 181 1317 136 1294 c 1
 136 1436 l 1
 197 1461 245 1487 285 1519 c 1
 377 1538 l 1
EndSplineSet
EndChar

StartChar: ordfeminine
Encoding: 170 170 380
Width: 807
VWidth: 0
Flags: W
HStem: 826 111<266.702 477.305> 1473 117<268.888 521.971>
VStem: 128 119<957.013 1140.83> 543 115<847 926 1007.12 1195 1298.57 1449.52>
LayerCount: 2
Fore
SplineSet
350 826 m 0
 223 826 128 913 128 1050 c 0
 128 1174 220 1258 343 1282 c 1
 411 1294 478 1295 543 1303 c 1
 543 1433 516 1473 413 1473 c 0
 340 1473 270 1457 228 1375 c 1
 167 1453 l 1
 212 1550 308 1590 419 1590 c 0
 549 1590 660 1517 660 1330 c 1
 658 982 l 2
 658 969 659 938 664 847 c 1
 546 847 l 1
 543 926 l 1
 503 866 438 826 350 826 c 0
369 937 m 0
 488 937 538 1047 543 1168 c 1
 543 1195 l 1
 420 1166 247 1192 247 1053 c 0
 247 973 297 937 369 937 c 0
EndSplineSet
EndChar

StartChar: ordmasculine
Encoding: 186 186 381
Width: 899
VWidth: 0
Flags: W
HStem: 826 115<334.802 564.93> 1473 117<337.958 563.455>
VStem: 131 125<1026.27 1384.32> 645 124<1030.01 1382.49>
LayerCount: 2
Fore
SplineSet
451 1590 m 0
 655 1590 769 1419 769 1205 c 0
 769 994 655 826 453 826 c 0
 241 826 131 994 131 1210 c 0
 131 1422 248 1590 451 1590 c 0
256 1207 m 0
 256 1058 322 941 453 941 c 0
 578 941 645 1062 645 1203 c 0
 645 1351 576 1473 449 1473 c 0
 326 1473 256 1351 256 1207 c 0
EndSplineSet
EndChar

StartChar: oslash
Encoding: 248 248 382
Width: 1179
VWidth: 0
Flags: W
PickledData: "(dp1
S'com.typemytype.robofont.layerData'
p2
(dp3
S'back'
p4
(dp5
S'name'
p6
S'oslash'
p7
sS'lib'
p8
(dp9
sS'unicodes'
p10
(tsS'width'
p11
I1179
sS'contours'
p12
(tsS'components'
p13
(tsS'anchors'
p14
(tsss."
HStem: -275 21G<248.632 294.511> -25 138<463.592 759.78> 986 138<435.727 721.066>
VStem: 77 173<316.122 771.48> 928 174<308.53 794.203>
DStem2: 215 -237 286 -275 0.391298 0.920264<0 302.007 454.85 1292.23 1442.42 1741.79>
LayerCount: 2
Fore
SplineSet
894 1367 m 1
 971 1336 l 1
 854 1060 l 1
 1019 964 1102 770 1102 549 c 0
 1102 245 923 -25 594 -25 c 0
 525 -25 462 -14 406 7 c 1
 286 -275 l 1
 215 -237 l 1
 333 41 l 1
 167 137 77 328 77 547 c 0
 77 861 265 1124 597 1124 c 0
 664 1124 725 1113 779 1094 c 1
 894 1367 l 1
462 139 m 1
 501 122 546 113 597 113 c 0
 834 113 928 323 928 547 c 0
 928 700 890 842 794 921 c 1
 462 139 l 1
392 182 m 1
 723 963 l 1
 686 978 643 986 594 986 c 0
 358 986 250 768 250 544 c 0
 250 401 295 262 392 182 c 1
EndSplineSet
EndChar

StartChar: p
Encoding: 112 112 384
Width: 1148
VWidth: 0
Flags: W
PickledData: "(dp1
S'com.typemytype.robofont.layerData'
p2
(dp3
S'back'
p4
(dp5
S'name'
p6
S'p'
sS'lib'
p7
(dp8
sS'unicodes'
p9
(tsS'width'
p10
I1165
sS'contours'
p11
(tsS'components'
p12
(tsS'anchors'
p13
(tsss."
HStem: -459 21G<111 263.727> -25 143<431 744.907> 982 142<431.486 744.935> 1078 20G<111 270.361>
VStem: 111 168<-437 160 291.791 806.513 951 1098> 905 173<309.363 789.27>
LayerCount: 2
Fore
SplineSet
111 -459 m 5xec
 111 1098 l 5
 269 1098 l 5xdc
 279 951 l 5
 363 1064 473 1124 618 1124 c 4
 942 1124 1078 854 1078 537 c 4
 1078 240 904 -25 618 -25 c 4
 478 -25 355 33 279 160 c 5
 279 -437 l 5
 111 -459 l 5xec
276 548 m 4
 276 313 364 118 593 118 c 4
 823 118 905 349 905 548 c 4
 905 747 823 982 593 982 c 4xec
 364 982 276 785 276 548 c 4
EndSplineSet
EndChar

StartChar: paragraph
Encoding: 182 182 385
Width: 1068
VWidth: 0
Flags: W
HStem: 1430 131<526.227 737 852 927>
VStem: 97 421<1019.17 1394.64> 393 125<-158 847> 737 115<-158 1430>
LayerCount: 2
Fore
SplineSet
518 -158 m 1xb0
 393 -158 l 1
 393 847 l 1xb0
 235 850 97 997 97 1218 c 0xd0
 97 1490 312 1561 561 1561 c 2
 927 1561 l 1
 927 1430 l 1
 852 1430 l 1
 852 -158 l 1
 737 -158 l 1
 737 1430 l 1
 518 1430 l 1
 518 -158 l 1xb0
EndSplineSet
EndChar

StartChar: parenleft
Encoding: 40 40 386
Width: 612
VWidth: 0
Flags: W
HStem: -218 21G<302.5 520> 1490 20G<295.5 518>
VStem: 125 165<281.76 1009.36> 373 147<-218 -71>
LayerCount: 2
Fore
SplineSet
125 636 m 0
 125 954 221 1241 370 1510 c 1
 518 1510 l 1
 373 1243 290 951 290 642 c 0
 290 357 379 33 520 -218 c 1
 373 -218 l 1
 232 22 125 330 125 636 c 0
EndSplineSet
EndChar

StartChar: parenright
Encoding: 41 41 387
Width: 612
VWidth: 0
Flags: W
HStem: -218 21G<93 308> 1490 20G<93 314.5>
VStem: 93 145<-218 -73> 322 166<295.544 995.624>
LayerCount: 2
Fore
SplineSet
238 -218 m 1
 93 -218 l 1
 232 33 322 356 322 642 c 0
 322 951 238 1243 93 1510 c 1
 241 1510 l 1
 388 1240 488 955 488 636 c 0
 488 329 378 24 238 -218 c 1
EndSplineSet
EndChar

StartChar: partialdiff
Encoding: 8706 8706 388
Width: 1208
VWidth: 0
Flags: W
HStem: -28 147<377.994 649.237> 935 142<477.186 776.913> 1507 145<403.665 737.445>
VStem: 113 148<251.631 674.285> 918 151<901 1278.4>
LayerCount: 2
Fore
SplineSet
511 119 m 0
 728 119 872 383 904 705 c 1
 869 826 775 935 631 935 c 0
 423 935 261 711 261 450 c 0
 261 250 358 119 511 119 c 0
301 1405 m 1
 288 1553 l 1
 372 1610 486 1652 609 1652 c 0
 907 1652 1069 1421 1069 917 c 0
 1069 453 905 -28 510 -28 c 0
 234 -28 113 182 113 452 c 0
 113 806 317 1077 606 1077 c 0
 743 1077 849 1014 917 901 c 1
 917 920 918 952 918 980 c 0
 918 1305 802 1507 585 1507 c 0
 483 1507 381 1461 301 1405 c 1
EndSplineSet
EndChar

StartChar: percent
Encoding: 37 37 389
Width: 1877
VWidth: 0
Flags: W
HStem: -15 113<1301.44 1560.67> 640 114<1301.57 1560.81> 728 116<307.591 531.084> 1378 111<311.148 530.614>
VStem: 103 127<928.491 1289.47> 611 129<927.578 1284.54> 1079 126<199.476 538.018> 1657 127<200.515 539.71>
DStem2: 401 -4 536 -4 0.489074 0.872242<66.025 1667.52>
LayerCount: 2
Fore
SplineSet
1431 754 m 0xdf
 1663 754 1784 590 1784 369 c 0
 1784 153 1660 -15 1431 -15 c 0
 1200 -15 1079 153 1079 369 c 0
 1079 587 1203 754 1431 754 c 0xdf
1431 640 m 0
 1281 640 1205 510 1205 369 c 0
 1205 223 1283 98 1431 98 c 0
 1581 98 1657 228 1657 369 c 0
 1657 515 1579 640 1431 640 c 0
420 1489 m 0
 616 1489 740 1325 740 1104 c 0
 740 888 615 728 420 728 c 0xbf
 224 728 103 888 103 1104 c 0
 103 1322 225 1489 420 1489 c 0
401 -4 m 1
 1196 1462 l 1
 1358 1462 l 1
 536 -4 l 1
 401 -4 l 1
420 1378 m 0
 293 1378 230 1245 230 1104 c 0
 230 957 295 844 420 844 c 0
 547 844 611 964 611 1104 c 0
 611 1250 544 1378 420 1378 c 0
EndSplineSet
EndChar

StartChar: period
Encoding: 46 46 390
Width: 494
VWidth: 0
Flags: W
HStem: -12 264<159.446 362.917>
VStem: 128 266<18.2842 221.716>
LayerCount: 2
Fore
SplineSet
261 -12 m 0
 173 -12 128 54 128 120 c 0
 128 186 172 252 261 252 c 0
 350 252 394 186 394 120 c 0
 394 54 350 -12 261 -12 c 0
EndSplineSet
EndChar

StartChar: periodcentered
Encoding: 183 183 391
Width: 468
VWidth: 0
Flags: W
HStem: 532 264<135.446 338.917>
VStem: 104 266<562.284 765.716>
LayerCount: 2
Fore
SplineSet
237 796 m 0
 326 796 370 730 370 664 c 0
 370 598 326 532 237 532 c 0
 149 532 104 598 104 664 c 0
 104 730 149 796 237 796 c 0
EndSplineSet
EndChar

StartChar: perthousand
Encoding: 8240 8240 392
Width: 2303
VWidth: 0
Flags: W
HStem: -30 123<988.858 1224.51 1756.5 1997.86> 610 125<984.613 1228.58 1757.3 2000.97> 796 123<304.524 507.524> 1438 121<304.352 506.841>
VStem: 108 129<993.663 1365.22> 574 128<992.069 1363.85> 777 131<178.542 523.833> 1305 129<182.771 527.466> 1550 127<178.542 523.833> 2081 126<182.176 521.163>
DStem2: 259 -22 395 -22 0.487909 0.872895<66.3556 1787.22>
LayerCount: 2
Fore
SplineSet
1879 610 m 0
 1743 610 1677 493 1677 354 c 0
 1677 207 1744 93 1881 93 c 0
 2014 93 2081 214 2081 354 c 0
 2081 497 2011 610 1879 610 c 0
1876 -30 m 0
 1658 -30 1550 124 1550 354 c 0
 1550 572 1658 735 1881 735 c 0
 2101 735 2207 588 2207 352 c 0
 2207 136 2097 -30 1876 -30 c 0
404 796 m 0
 214 796 108 950 108 1180 c 0
 108 1399 214 1559 406 1559 c 0
 600 1559 702 1410 702 1176 c 0
 702 960 593 796 404 796 c 0
1104 -30 m 0
 884 -30 777 124 777 354 c 0
 777 572 883 735 1107 735 c 0
 1331 735 1434 584 1434 352 c 0
 1434 136 1325 -30 1104 -30 c 0
1105 610 m 0
 972 610 908 493 908 354 c 0
 908 207 974 93 1107 93 c 0
 1240 93 1305 217 1305 354 c 0
 1305 500 1242 610 1105 610 c 0
404 1438 m 0
 291 1438 237 1319 237 1180 c 0
 237 1033 292 919 408 919 c 0
 519 919 574 1039 574 1178 c 0
 574 1325 519 1438 404 1438 c 0
395 -22 m 1
 259 -22 l 1
 1115 1547 l 1
 1272 1547 l 1
 395 -22 l 1
EndSplineSet
EndChar

StartChar: phi
Encoding: 966 966 393
Width: 468
VWidth: 0
Flags: W
HStem: 532 264<135.446 338.917>
VStem: 104 266<562.284 765.716>
LayerCount: 2
Fore
SplineSet
237 796 m 0
 326 796 370 730 370 664 c 0
 370 598 326 532 237 532 c 0
 149 532 104 598 104 664 c 0
 104 730 149 796 237 796 c 0
EndSplineSet
EndChar

StartChar: pi
Encoding: 960 960 394
Width: 1456
VWidth: 0
Flags: W
HStem: -8 166<1132.03 1267.32> 976 144<211.25 420 570 976 1114 1296>
VStem: 420 150<493.382 976> 976 138<174.19 976>
LayerCount: 2
Fore
SplineSet
1296 1120 m 1
 1296 976 l 1
 1114 976 l 1
 1114 312 l 2
 1114 248 1116 158 1202 158 c 0
 1221 158 1245 164 1274 172 c 1
 1274 149 1268 131 1268 108 c 0
 1268 73 1273 42 1282 6 c 1
 1237 -2 1195 -8 1160 -8 c 0
 1020 -8 976 79 976 301 c 2
 976 976 l 1
 570 976 l 1
 564 825 555 685 544 556 c 0
 525 335 494 91 446 0 c 1
 298 0 l 1
 386 189 412 663 420 976 c 1
 313 973 241 954 176 911 c 1
 160 1053 l 1
 219 1109 313 1120 470 1120 c 2
 1296 1120 l 1
EndSplineSet
EndChar

StartChar: plus
Encoding: 43 43 395
Width: 1081
VWidth: 0
Flags: W
HStem: 512 134<101 484 621 989>
VStem: 484 135<80 512 646 1065>
LayerCount: 2
Fore
SplineSet
101 646 m 1
 487 646 l 1
 487 1065 l 1
 621 1065 l 1
 621 646 l 1
 989 646 l 1
 989 512 l 1
 619 512 l 1
 619 80 l 1
 484 80 l 1
 484 512 l 1
 101 512 l 1
 101 646 l 1
EndSplineSet
EndChar

StartChar: plusminus
Encoding: 177 177 396
Width: 1234
VWidth: 0
Flags: W
HStem: 0 148<133 1111> 642 147<133 550 687 1108>
VStem: 550 133<240 642 789 1193>
LayerCount: 2
Fore
SplineSet
1111 0 m 1
 133 0 l 1
 133 148 l 1
 1111 148 l 1
 1111 0 l 1
133 789 m 1
 550 789 l 1
 550 1193 l 1
 683 1193 l 1
 683 789 l 1
 1108 789 l 1
 1108 642 l 1
 687 642 l 1
 687 240 l 1
 553 240 l 1
 553 642 l 1
 133 642 l 1
 133 789 l 1
EndSplineSet
EndChar

StartChar: product
Encoding: 8719 8719 397
Width: 1463
VWidth: 0
Flags: W
HStem: 0 21G<147 324 1139 1316> 1342 154<324 1139>
VStem: 147 177<0 1342> 1139 177<0 1342>
LayerCount: 2
Fore
SplineSet
1139 1342 m 1
 324 1342 l 1
 324 0 l 1
 147 0 l 1
 147 1496 l 1
 1316 1496 l 1
 1316 0 l 1
 1139 0 l 1
 1139 1342 l 1
EndSplineSet
EndChar

StartChar: psi
Encoding: 968 968 398
Width: 468
VWidth: 0
Flags: W
HStem: 532 264<135.446 338.917>
VStem: 104 266<562.284 765.716>
LayerCount: 2
Fore
SplineSet
237 796 m 0
 326 796 370 730 370 664 c 0
 370 598 326 532 237 532 c 0
 149 532 104 598 104 664 c 0
 104 730 149 796 237 796 c 0
EndSplineSet
EndChar

StartChar: q
Encoding: 113 113 399
Width: 1168
VWidth: 0
Flags: W
PickledData: "(dp1
S'com.typemytype.robofont.layerData'
p2
(dp3
S'back'
p4
(dp5
S'name'
p6
S'q'
sS'lib'
p7
(dp8
sS'unicodes'
p9
(tsS'width'
p10
I1168
sS'contours'
p11
(tsS'components'
p12
(tsS'anchors'
p13
(tsss."
HStem: -459 21G<883 1051> -25 148<405.329 724.944> 976 148<407.853 722.366> 1078 20G<886 1051>
VStem: 77 173<310.993 789.119> 886 165<-439 171 312.746 787.426 938 1098>
LayerCount: 2
Fore
SplineSet
539 -25 m 0xdc
 234 -25 77 244 77 538 c 0
 77 855 230 1124 551 1124 c 0xec
 704 1124 815 1049 886 938 c 1
 886 1098 l 1
 1051 1098 l 1
 1051 -439 l 1
 883 -459 l 1
 883 171 l 1
 814 50 692 -25 539 -25 c 0xdc
886 551 m 0
 886 783 790 976 558 976 c 0
 322 976 250 748 250 551 c 0
 250 346 323 123 559 123 c 0
 793 123 886 317 886 551 c 0
EndSplineSet
EndChar

StartChar: question
Encoding: 63 63 400
Width: 865
VWidth: 0
Flags: W
HStem: -12 264<273.446 476.917> 1373 151<186.887 535.502>
VStem: 242 266<18.2842 221.716> 602 163<1020.85 1308.68>
LayerCount: 2
Fore
SplineSet
404 435 m 1
 317 435 l 1
 317 668 602 989 602 1186 c 1
 600 1318 510 1373 377 1373 c 0
 257 1373 166 1322 118 1292 c 1
 73 1427 l 1
 163 1498 293 1524 404 1524 c 0
 614 1524 765 1408 765 1200 c 0
 765 927 554 770 404 435 c 1
242 120 m 0
 242 186 287 252 375 252 c 0
 464 252 508 186 508 120 c 0
 508 54 464 -12 375 -12 c 0
 287 -12 242 54 242 120 c 0
EndSplineSet
EndChar

StartChar: questiondown
Encoding: 191 191 401
Width: 867
VWidth: 0
Flags: W
HStem: -25 146<322.336 656.878> 1234 230<380 600>
VStem: 86 155<197.369 460.386> 380 220<1234 1464> 430 143<775.295 1028>
LayerCount: 2
Fore
SplineSet
725 207 m 1xe8
 767 81 l 1
 680 13 573 -25 466 -25 c 0
 246 -25 86 91 86 310 c 0
 86 628 430 660 430 917 c 2
 430 1028 l 1
 564 1028 l 1
 568 963 l 2
 571 927 573 883 573 854 c 0
 573 641 241 566 241 317 c 0
 241 185 353 121 486 121 c 0
 606 121 677 177 725 207 c 1xe8
600 1464 m 1xf0
 600 1234 l 1
 380 1234 l 1
 380 1464 l 1
 600 1464 l 1xf0
EndSplineSet
EndChar

StartChar: quotedbl
Encoding: 34 34 402
Width: 710
VWidth: 0
Flags: W
HStem: 1016 494<160 261 446 547>
VStem: 139 437
LayerCount: 2
Fore
SplineSet
446 1016 m 1
 425 1510 l 1
 576 1510 l 1
 547 1016 l 1
 446 1016 l 1
160 1016 m 1
 139 1510 l 1
 290 1510 l 1
 261 1016 l 1
 160 1016 l 1
EndSplineSet
EndChar

StartChar: quotedblbase
Encoding: 8222 8222 403
Width: 819
VWidth: 0
Flags: W
HStem: -256 472<532 560 848 875>
VStem: 126 568
LayerCount: 2
Fore
SplineSet
126 -256 m 1
 216 216 l 1
 377 216 l 1
 244 -256 l 1
 126 -256 l 1
441 -256 m 1
 532 216 l 1
 694 216 l 1
 559 -256 l 1
 441 -256 l 1
EndSplineSet
EndChar

StartChar: quotedblleft
Encoding: 8220 8220 404
Width: 818
VWidth: 0
Flags: W
HStem: 1102 472<263 289 573 600>
VStem: 129 561
LayerCount: 2
Fore
SplineSet
438 1102 m 1
 573 1574 l 1
 690 1574 l 1
 600 1102 l 1
 438 1102 l 1
129 1102 m 1
 263 1574 l 1
 383 1574 l 1
 289 1102 l 1
 129 1102 l 1
EndSplineSet
EndChar

StartChar: quotedblright
Encoding: 8221 8221 405
Width: 795
VWidth: 0
Flags: W
HStem: 1102 472<511 535 796 822>
VStem: 133 541
LayerCount: 2
Fore
SplineSet
133 1102 m 1
 226 1574 l 1
 385 1574 l 1
 250 1102 l 1
 133 1102 l 1
420 1102 m 1
 511 1574 l 1
 674 1574 l 1
 537 1102 l 1
 420 1102 l 1
EndSplineSet
EndChar

StartChar: quoteleft
Encoding: 8216 8216 406
Width: 510
VWidth: 0
Flags: W
HStem: 1102 472<265 291>
VStem: 129 253
LayerCount: 2
Fore
SplineSet
382 1574 m 1
 291 1102 l 1
 129 1102 l 1
 265 1574 l 1
 382 1574 l 1
EndSplineSet
EndChar

StartChar: quoteright
Encoding: 8217 8217 407
Width: 504
VWidth: 0
Flags: W
HStem: 1102 472<226 249>
VStem: 133 250
LayerCount: 2
Fore
SplineSet
249 1102 m 1
 133 1102 l 1
 226 1574 l 1
 383 1574 l 1
 249 1102 l 1
EndSplineSet
EndChar

StartChar: quotesinglbase
Encoding: 8218 8218 408
Width: 504
VWidth: 0
Flags: W
HStem: -256 472<218 245>
VStem: 126 253
LayerCount: 2
Fore
SplineSet
126 -256 m 1
 218 216 l 1
 379 216 l 1
 245 -256 l 1
 126 -256 l 1
EndSplineSet
EndChar

StartChar: quotesingle
Encoding: 39 39 409
Width: 393
VWidth: 0
Flags: W
HStem: 1016 494<143 248>
VStem: 122 155<1265.79 1510>
LayerCount: 2
Fore
SplineSet
248 1016 m 1
 143 1016 l 1
 122 1510 l 1
 277 1510 l 1
 248 1016 l 1
EndSplineSet
EndChar

StartChar: r
Encoding: 114 114 410
Width: 656
VWidth: 0
Flags: W
PickledData: "(dp1
S'com.typemytype.robofont.layerData'
p2
(dp3
S'back'
p4
(dp5
S'name'
p6
S'r'
sS'lib'
p7
(dp8
sS'unicodes'
p9
(tsS'width'
p10
I656
sS'contours'
p11
(tsS'components'
p12
(tsS'anchors'
p13
(tsss."
HStem: 0 21G<123 291> 945 153<425.747 627>
VStem: 120 142<908 1098> 123 168<0 811.309>
LayerCount: 2
Fore
SplineSet
123 0 m 1xd0
 123 845 l 2xd0
 123 932 120 1015 120 1098 c 1
 262 1098 l 1xe0
 275 908 l 1
 352 1049 466 1098 595 1098 c 2
 627 1098 l 1
 639 945 l 1
 599 945 l 2
 394 945 291 808 291 644 c 2
 291 0 l 1
 123 0 l 1xd0
EndSplineSet
EndChar

StartChar: radical
Encoding: 8730 8730 412
Width: 1216
VWidth: 0
Flags: W
VStem: 1035 113<1605 1718>
DStem2: 328 889 236 743 0.343981 -0.938976<105.444 896.63> 628 44 708 -166 0.227426 0.973795<0 1722.7>
LayerCount: 2
Fore
SplineSet
1035 1718 m 1
 1148 1718 l 1
 708 -166 l 1
 569 -166 l 1
 236 743 l 1
 84 712 l 1
 68 833 l 1
 328 889 l 1
 569 230 l 1
 628 44 l 1
 763 602 899 1160 1035 1718 c 1
EndSplineSet
EndChar

StartChar: registered
Encoding: 174 174 415
Width: 1824
VWidth: 0
Flags: W
HStem: -26 93<647.448 1166.48> 716 127<731 957.126> 1149 128<731 1102.54> 1493 93<643.862 1162.49>
VStem: 117 113<505.641 1055.74> 599 132<301 716 843 1149> 1141 159<890.814 1107.13> 1588 113<504.164 1054.1>
LayerCount: 2
Fore
SplineSet
1701 781 m 0
 1701 242 1317 -26 902 -26 c 0
 510 -26 117 242 117 781 c 0
 117 1318 505 1586 897 1586 c 0
 1312 1586 1701 1316 1701 781 c 0
902 67 m 0
 1353 67 1588 387 1588 778 c 0
 1588 1168 1350 1493 897 1493 c 0
 468 1493 230 1169 230 783 c 0
 230 389 469 67 902 67 c 0
857 843 m 2
 1041 843 1141 871 1141 999 c 0
 1141 1131 1055 1149 847 1149 c 2
 731 1149 l 1
 731 843 l 1
 857 843 l 2
914 716 m 1
 731 716 l 1
 731 301 l 1
 599 301 l 1
 599 1277 l 1
 857 1277 l 2
 1158 1277 1300 1184 1300 1007 c 0
 1300 877 1237 759 1040 735 c 1
 1132 662 1181 531 1320 301 c 1
 1171 301 l 1
 1046 525 l 2
 995 618 961 680 914 716 c 1
EndSplineSet
EndChar

StartChar: ring
Encoding: 730 730 417
Width: 634
VWidth: 0
Flags: W
HStem: 1257 73<245.924 389.13> 1557 81<247.464 390.797>
VStem: 125 96<1346.58 1535.52> 416 98<1348.74 1537.67>
LayerCount: 2
Fore
SplineSet
320 1330 m 0
 371 1330 416 1381 416 1442 c 0
 416 1503 375 1557 320 1557 c 0
 269 1557 221 1503 221 1442 c 0
 221 1375 259 1330 320 1330 c 0
320 1638 m 0
 424 1638 514 1554 514 1442 c 0
 514 1327 421 1257 322 1257 c 0
 218 1257 125 1327 125 1442 c 0
 125 1561 219 1638 320 1638 c 0
EndSplineSet
EndChar

StartChar: s
Encoding: 115 115 418
Width: 929
VWidth: 0
Flags: W
PickledData: "(dp1
S'com.typemytype.robofont.layerData'
p2
(dp3
S'back'
p4
(dp5
S'name'
p6
S's'
sS'lib'
p7
(dp8
sS'unicodes'
p9
(tsS'width'
p10
I931
sS'contours'
p11
(tsS'components'
p12
(tsS'anchors'
p13
(tsss."
HStem: -25 139<250.573 626.319> 991 133<332.546 719.491>
VStem: 100 169<718.302 929.423> 697 157<180.806 406.122>
DStem2: 426 663 384 512 0.965058 -0.262036<-154.521 303.417>
LayerCount: 2
Fore
SplineSet
854 294 m 0
 847 88 699 -25 491 -25 c 0
 323 -25 177 29 111 78 c 1
 154 206 l 1
 195 180 316 114 465 114 c 0
 471 114 477 114 482 114 c 0
 607 114 687 176 697 290 c 0
 697 294 697 298 697 302 c 0
 697 372 654 437 531 471 c 2
 384 512 l 2
 165 573 102 682 100 816 c 1
 100 970 222 1122 467 1124 c 1
 608 1124 715 1096 799 1053 c 1
 759 932 l 1
 699 956 599 991 479 991 c 0
 358 990 269 928 269 815 c 1
 270 748 308 694 426 663 c 1
 577 622 l 2
 755 574 854 481 854 299 c 0
 854 298 854 296 854 294 c 0
EndSplineSet
EndChar

StartChar: section
Encoding: 167 167 424
Width: 978
VWidth: 0
Flags: W
HStem: -50 145<222.355 590.803> 1460 148<381.745 753.732>
VStem: 144 156<695.158 906.518> 176 155<1206.85 1411.4> 667 155<163.398 356.939> 685 156<674.743 873.504>
LayerCount: 2
Fore
SplineSet
773 1563 m 1xd0
 774 1405 l 1
 718 1437 621 1460 556 1460 c 0
 429 1460 331 1418 331 1314 c 0
 331 1228 383 1177 558 1100 c 1
 718 1025 841 946 841 794 c 0xd4
 841 676 763 580 676 517 c 1
 760 464 822 398 822 272 c 0
 822 64 645 -50 424 -50 c 0
 329 -50 243 -35 167 4 c 1
 167 166 l 1
 252 119 336 95 419 95 c 0
 575 95 667 169 667 262 c 0
 667 357 588 388 448 450 c 1
 360 490 l 1
 223 557 144 648 144 785 c 0xe8
 144 909 220 997 311 1050 c 1
 225 1115 176 1184 176 1310 c 0
 176 1509 330 1608 550 1608 c 0
 639 1608 702 1591 773 1563 c 1xd0
536 589 m 1
 603 632 685 693 685 778 c 0
 685 903 524 935 436 980 c 1
 368 938 300 884 300 798 c 0xe4
 300 692 395 648 536 589 c 1
EndSplineSet
EndChar

StartChar: semicolon
Encoding: 59 59 425
Width: 518
VWidth: 0
Flags: W
HStem: -310 21G<138 255.931> 893 231<174 380>
VStem: 174 206<893 1124>
LayerCount: 2
Fore
SplineSet
174 893 m 1
 174 1124 l 1
 380 1124 l 1
 380 893 l 1
 174 893 l 1
376 197 m 1
 251 -310 l 1
 138 -310 l 1
 194 197 l 1
 376 197 l 1
EndSplineSet
EndChar

StartChar: seven
Encoding: 55 55 426
Width: 1052
VWidth: 0
Flags: W
HStem: 0 21G<261 450.868> 1341 155<111 775>
DStem2: 261 0 443 0 0.366076 0.930585<66.6258 1436.08>
LayerCount: 2
Fore
SplineSet
261 0 m 1
 775 1341 l 1
 100 1341 l 1
 111 1496 l 1
 978 1496 l 1
 978 1360 l 1
 443 0 l 1
 261 0 l 1
EndSplineSet
EndChar

StartChar: sigma
Encoding: 963 963 427
Width: 468
VWidth: 0
Flags: W
HStem: 532 264<135.446 338.917>
VStem: 104 266<562.284 765.716>
LayerCount: 2
Fore
SplineSet
237 796 m 0
 326 796 370 730 370 664 c 0
 370 598 326 532 237 532 c 0
 149 532 104 598 104 664 c 0
 104 730 149 796 237 796 c 0
EndSplineSet
EndChar

StartChar: sigma1
Encoding: 962 962 428
Width: 468
VWidth: 0
Flags: W
HStem: 532 264<135.446 338.917>
VStem: 104 266<562.284 765.716>
LayerCount: 2
Fore
SplineSet
237 796 m 0
 326 796 370 730 370 664 c 0
 370 598 326 532 237 532 c 0
 149 532 104 598 104 664 c 0
 104 730 149 796 237 796 c 0
EndSplineSet
EndChar

StartChar: six
Encoding: 54 54 429
Width: 1199
VWidth: 0
Flags: W
PickledData: "(dp1
S'com.typemytype.robofont.layerData'
p2
(dp3
S'back'
p4
(dp5
S'name'
p6
S'six'
p7
sS'lib'
p8
(dp9
sS'unicodes'
p10
(tsS'width'
p11
I1199
sS'contours'
p12
(tsS'components'
p13
(tsS'anchors'
p14
(tsss."
HStem: -23 152<436.574 769.429> 771 150<443.916 772.352>
VStem: 103 189<277.604 636.253> 707 231<1258 1489> 918 189<274.912 620.296>
DStem2: 378 1089 412 861 0.642104 0.766618<-152.037 517.899>
LayerCount: 2
Fore
SplineSet
637 921 m 0xf0
 889 921 1107 725 1107 449 c 0xe8
 1107 182 913 -23 607 -23 c 0
 287 -23 103 202 103 472 c 0
 103 697 178 837 378 1089 c 0
 463 1197 707 1489 707 1489 c 1
 938 1489 l 1
 412 861 l 1
 476 895 557 921 637 921 c 0xf0
292 453 m 0
 292 280 395 129 601 129 c 0
 806 129 918 274 918 446 c 0
 918 630 803 771 601 771 c 0
 379 771 292 625 292 453 c 0
EndSplineSet
EndChar

StartChar: slash
Encoding: 47 47 430
Width: 952
VWidth: 0
Flags: W
HStem: -218 21G<50 202.052>
DStem2: 50 -218 194 -218 0.373479 0.927639<53.781 1814.62>
LayerCount: 2
Fore
SplineSet
194 -218 m 1
 50 -218 l 1
 726 1466 l 1
 872 1466 l 1
 194 -218 l 1
EndSplineSet
EndChar

StartChar: sterling
Encoding: 163 163 432
Width: 1093
VWidth: 0
Flags: W
HStem: 0 162<343.495 1045> 707 142<97 271 447 845> 1373 152<563.519 868.954>
VStem: 271 176<245.945 707 849 1245.33>
LayerCount: 2
Fore
SplineSet
97 707 m 1
 97 849 l 1
 271 849 l 1
 271 935 l 2
 271 1245 320 1525 710 1525 c 0
 883 1525 997 1446 1064 1349 c 1
 969 1242 l 1
 897 1325 822 1373 710 1373 c 0
 514 1373 447 1222 447 1008 c 2
 447 849 l 1
 845 849 l 1
 845 707 l 1
 447 707 l 1
 447 530 l 2
 447 390 428 240 342 152 c 1
 374 156 399 162 431 162 c 2
 1045 162 l 1
 1045 0 l 1
 129 0 l 1
 107 137 l 1
 243 209 271 311 271 467 c 2
 271 707 l 1
 97 707 l 1
EndSplineSet
EndChar

StartChar: summation
Encoding: 8721 8721 433
Width: 1286
VWidth: 0
Flags: W
HStem: -356 161<292 1203> 1379 153<317 1163>
LayerCount: 2
Fore
SplineSet
1203 -195 m 1
 1203 -356 l 1
 82 -356 l 1
 82 -257 l 1
 702 596 l 1
 104 1430 l 1
 104 1532 l 1
 1163 1532 l 1
 1163 1379 l 1
 317 1379 l 1
 913 604 l 1
 292 -195 l 1
 1203 -195 l 1
EndSplineSet
EndChar

StartChar: t
Encoding: 116 116 434
Width: 697
VWidth: 0
Flags: W
PickledData: "(dp1
S'com.typemytype.robofont.layerData'
p2
(dp3
S'back'
p4
(dp5
S'name'
p6
S't'
sS'lib'
p7
(dp8
sS'unicodes'
p9
(tsS'width'
p10
I691
sS'contours'
p11
((dp12
S'points'
p13
((dp14
S'segmentType'
p15
S'move'
p16
sS'x'
F359
sS'smooth'
p17
I00
sS'y'
F-1
stp18
s(dp19
g13
((dp20
g15
S'move'
p21
sS'x'
F359
sg17
I00
sS'y'
F1098
stp22
s(dp23
g13
((dp24
g15
S'move'
p25
sS'x'
F614
sg17
I00
sS'y'
F1098
stp26
s(dp27
g13
((dp28
g15
S'move'
p29
sS'x'
F359
sg17
I00
sS'y'
F1098
stp30
s(dp31
g13
((dp32
g15
S'line'
p33
sS'x'
F373
sg17
I00
sS'y'
F1495
s(dp34
g15
S'line'
p35
sS'x'
F373
sg17
I01
sS'y'
F431
s(dp36
S'y'
F192
sS'x'
F373
sg17
I00
s(dp37
S'y'
F117
sS'x'
F380
sg17
I00
s(dp38
g15
S'curve'
p39
sS'x'
F494
sg17
I01
sS'y'
F117
s(dp40
S'y'
F117
sS'x'
F519
sg17
I00
s(dp41
S'y'
F119
sS'x'
F532
sg17
I00
s(dp42
g15
S'curve'
p43
sS'x'
F584
sg17
I00
sS'y'
F123
s(dp44
g15
S'line'
p45
sS'x'
F595
sg17
I00
sS'y'
F-8
s(dp46
S'y'
F-18
sS'x'
F538
sg17
I00
s(dp47
S'y'
F-21
sS'x'
F498
sg17
I00
s(dp48
g15
S'curve'
p49
sS'x'
F481
sg17
I01
sS'y'
F-21
s(dp50
S'y'
F-21
sS'x'
F211
sg17
I00
s(dp51
S'y'
F104
sS'x'
F205
sg17
I00
s(dp52
g15
S'curve'
p53
sS'x'
F205
sg17
I01
sS'y'
F468
s(dp54
g15
S'line'
p55
sS'x'
F205
sg17
I00
sS'y'
F1476
stp56
s(dp57
g13
((dp58
g15
S'move'
p59
sS'x'
F614
sg17
I00
sS'y'
F1098
stp60
s(dp61
g13
((dp62
g15
S'move'
p63
sS'x'
F359
sg17
I00
sS'y'
F1098
stp64
stp65
sS'components'
p66
(tsS'anchors'
p67
((dp68
S'y'
F1098
sS'x'
F292
sg6
S'top'
p69
s(dp70
S'y'
F1098
sS'x'
F547
sg6
S'topright'
p71
s(dp72
S'y'
F0
sS'x'
F292
sg6
S'bottom'
p73
stp74
sss."
HStem: -20 138<392.211 656.4> 980 118<39 193 361 652>
VStem: 193 168<151.094 980 1098 1178.8> 237 124<1265.2 1346>
LayerCount: 2
Fore
SplineSet
361 980 m 1xe0
 361 367 l 2
 361 162 386 118 520 118 c 0
 539 118 579 123 656 129 c 1
 671 -7 l 1
 546 -18 515 -20 481 -20 c 0
 214 -20 193 111 193 445 c 2
 193 980 l 1
 26 980 l 1
 39 1098 l 1
 193 1098 l 1xe0
 237 1346 l 5
 361 1355 l 5xd0
 361 1098 l 1
 652 1098 l 1
 652 980 l 1
 361 980 l 1xe0
EndSplineSet
EndChar

StartChar: tau
Encoding: 964 964 435
Width: 468
VWidth: 0
Flags: W
HStem: 532 264<135.446 338.917>
VStem: 104 266<562.284 765.716>
LayerCount: 2
Fore
SplineSet
237 796 m 0
 326 796 370 730 370 664 c 0
 370 598 326 532 237 532 c 0
 149 532 104 598 104 664 c 0
 104 730 149 796 237 796 c 0
EndSplineSet
EndChar

StartChar: tbar
Encoding: 359 359 436
Width: 677
VWidth: 0
Flags: W
PickledData: "(dp1
S'com.typemytype.robofont.layerData'
p2
(dp3
S'back'
p4
(dp5
S'name'
p6
S'tbar'
p7
sS'lib'
p8
(dp9
sS'unicodes'
p10
(tsS'width'
p11
I677
sS'contours'
p12
(tsS'components'
p13
(tsS'anchors'
p14
(tsss."
HStem: -20 138<392.211 656.4> 638 126<38 570> 980 118<39 193 361 652>
VStem: 193 168<151.094 980 1098 1178.8> 237 124<1265.2 1346>
LayerCount: 2
Fore
SplineSet
38 638 m 1xe0
 38 764 l 1
 570 764 l 1
 570 638 l 1
 38 638 l 1xe0
EndSplineSet
Refer: 434 116 N 1 0 0 1 0 0 2
EndChar

StartChar: theta
Encoding: 952 952 438
Width: 468
VWidth: 0
Flags: W
HStem: 532 264<135.446 338.917>
VStem: 104 266<562.284 765.716>
LayerCount: 2
Fore
SplineSet
237 796 m 0
 326 796 370 730 370 664 c 0
 370 598 326 532 237 532 c 0
 149 532 104 598 104 664 c 0
 104 730 149 796 237 796 c 0
EndSplineSet
EndChar

StartChar: thorn
Encoding: 254 254 439
Width: 1205
VWidth: 0
Flags: W
PickledData: "(dp1
S'com.typemytype.robofont.layerData'
p2
(dp3
S'back'
p4
(dp5
S'name'
p6
S'thorn'
p7
sS'lib'
p8
(dp9
sS'unicodes'
p10
(tsS'width'
p11
I1205
sS'contours'
p12
(tsS'components'
p13
(tsS'anchors'
p14
(tsss."
HStem: -459 21G<124 292> -25 138<455.501 766.693> 986 138<466.439 775.041> 1490 20G<124 292>
VStem: 124 168<-459 162 302.191 780.928 933 1510> 926 173<304.741 797.09>
LayerCount: 2
Fore
SplineSet
292 162 m 1
 292 -459 l 1
 124 -459 l 1
 124 1262 l 1
 124 1510 l 1
 292 1510 l 1
 292 933 l 1
 378 1060 494 1124 643 1124 c 1
 919 1122 1099 879 1099 560 c 0
 1099 268 951 -25 643 -25 c 0
 491 -25 367 34 292 162 c 1
624 113 m 0
 858 113 926 360 926 551 c 0
 926 743 860 986 631 986 c 0
 405 986 290 781 290 551 c 0
 290 320 385 113 624 113 c 0
EndSplineSet
EndChar

StartChar: three
Encoding: 51 51 440
Width: 1103
VWidth: 0
Flags: W
HStem: -23 152<274.774 689.233> 722 149<323 633.25> 1373 152<270.029 678.241>
VStem: 771 192<985.101 1282.43> 824 175<257.091 579.353>
LayerCount: 2
Fore
SplineSet
824 412 m 0xe8
 824 681 602 722 323 722 c 1
 323 871 l 1
 553 871 771 897 771 1133 c 0
 771 1298 673 1373 496 1373 c 0
 359 1373 240 1329 161 1266 c 1
 105 1412 l 1
 196 1481 327 1525 534 1525 c 0
 755 1525 963 1395 963 1156 c 0xf0
 963 964 862 847 700 797 c 1
 883 757 999 620 999 410 c 0
 999 143 786 -23 496 -23 c 0
 302 -23 161 40 105 93 c 1
 161 240 l 1
 236 181 346 129 497 129 c 0
 693 129 824 230 824 412 c 0xe8
EndSplineSet
EndChar

StartChar: threequarters
Encoding: 190 190 441
Width: 1630
VWidth: 0
Flags: W
HStem: 0 21G<331 476.997> 245 116<1085 1331 1442 1538> 631 122<211.24 439.578> 1046 128<244 431.265> 1424 129<214.099 438.486>
VStem: 331 134<0 134> 462 138<1206.89 1399.91> 484 136<797.809 1008.2> 1249 144<1403 1547> 1334 107<44 245 361 721>
DStem2: 331 0 465 0 0.514414 0.857542<68.9315 1798.85> 942 343 1085 361 0.560488 0.828162<95.0568 532.757>
LayerCount: 2
Fore
SplineSet
166 1339 m 1xfa
 116 1442 l 1
 170 1506 253 1553 338 1553 c 0
 462 1553 600 1461 600 1305 c 0xfa
 600 1221 559 1152 487 1112 c 1
 571 1072 620 1003 620 899 c 0
 620 733 478 631 333 631 c 0
 249 631 173 667 116 735 c 1
 168 838 l 1
 219 782 272 753 328 753 c 0
 412 753 484 811 484 903 c 0xf9
 484 1009 410 1046 293 1046 c 2
 244 1046 l 1
 244 1174 l 1
 288 1174 l 2
 389 1174 462 1206 462 1303 c 0
 462 1387 410 1424 337 1424 c 0
 273 1424 217 1390 166 1339 c 1xfa
1249 1547 m 1xfc80
 1393 1547 l 1
 465 0 l 1
 331 0 l 1
 1249 1547 l 1xfc80
1441 44 m 1xf840
 1334 44 l 1
 1334 245 l 1
 942 245 l 1
 942 343 l 1
 1321 903 l 1
 1442 903 l 1
 1442 361 l 1
 1538 361 l 1
 1546 245 l 1
 1441 245 l 1
 1441 44 l 1xf840
1085 361 m 1
 1331 361 l 1
 1331 608 1331 664 1334 721 c 1
 1085 361 l 1
EndSplineSet
EndChar

StartChar: threesuperior
Encoding: 179 179 442
Width: 756
VWidth: 0
Flags: W
HStem: 631 122<230.605 456.657> 1046 128<260 447.25> 1424 129<231.175 454.7>
VStem: 478 115<1206.89 1399.91> 498 115<793.409 1009.35>
LayerCount: 2
Fore
SplineSet
352 1424 m 0xf0
 288 1424 236 1390 185 1339 c 1
 132 1442 l 1
 186 1506 269 1553 354 1553 c 0
 477 1553 593 1461 593 1305 c 0xf0
 593 1221 559 1152 498 1112 c 1
 570 1072 613 1003 613 899 c 0
 613 733 493 631 350 631 c 0
 266 631 189 667 132 735 c 1
 187 838 l 1
 238 782 290 753 346 753 c 0
 430 753 498 811 498 903 c 0xe8
 498 1009 426 1046 308 1046 c 2
 260 1046 l 1
 260 1174 l 1
 304 1174 l 2
 405 1174 478 1206 478 1303 c 0
 478 1387 425 1424 352 1424 c 0xf0
EndSplineSet
EndChar

StartChar: tilde
Encoding: 732 732 443
Width: 885
VWidth: 0
Flags: W
HStem: 1291 125<471.93 621.546> 1388 122<231.394 418.927>
VStem: 115 107<1291 1383.27> 629 109<1417.98 1510>
LayerCount: 2
Fore
SplineSet
222 1291 m 1xb0
 115 1291 l 1xb0
 115 1441 180 1510 287 1510 c 0x70
 411 1510 543 1416 580 1416 c 2
 582 1416 l 1xb0
 622 1419 626 1468 629 1510 c 1
 738 1510 l 1x70
 738 1373 695 1291 589 1291 c 0xb0
 499 1291 357 1388 279 1388 c 2
 277 1388 l 1x70
 244 1387 225 1346 222 1291 c 1xb0
EndSplineSet
EndChar

StartChar: tonos
Encoding: 900 900 444
Width: 468
VWidth: 0
Flags: W
HStem: 532 264<135.446 338.917>
VStem: 104 266<562.284 765.716>
LayerCount: 2
Fore
SplineSet
237 796 m 0
 326 796 370 730 370 664 c 0
 370 598 326 532 237 532 c 0
 149 532 104 598 104 664 c 0
 104 730 149 796 237 796 c 0
EndSplineSet
EndChar

StartChar: trademark
Encoding: 8482 8482 445
Width: 1812
VWidth: 0
Flags: W
HStem: 1394 102<90 349 463 727>
VStem: 349 114<609 1394> 849 111<609 1349> 1590 114<609 1349>
DStem2: 1006 1496 960 1349 0.370437 -0.928858<119.502 723.469> 1274 824 1310 680 0.385785 0.922589<0 606.267>
LayerCount: 2
Fore
SplineSet
849 1496 m 1
 1006 1496 l 1
 1274 824 l 1
 1555 1496 l 1
 1704 1496 l 1
 1704 609 l 1
 1590 609 l 1
 1590 1349 l 1
 1310 680 l 1
 1224 680 l 1
 960 1349 l 1
 960 609 l 1
 849 609 l 1
 849 1496 l 1
90 1496 m 1
 727 1496 l 1
 727 1394 l 1
 463 1394 l 1
 463 609 l 1
 349 609 l 1
 349 1394 l 1
 90 1394 l 1
 90 1496 l 1
EndSplineSet
EndChar

StartChar: two
Encoding: 50 50 446
Width: 1116
VWidth: 0
Flags: W
PickledData: "(dp1
S'com.typemytype.robofont.layerData'
p2
(dp3
S'back'
p4
(dp5
S'name'
p6
S'two'
p7
sS'lib'
p8
(dp9
sS'unicodes'
p10
(tsS'width'
p11
I1116
sS'contours'
p12
(tsS'components'
p13
(tsS'anchors'
p14
(tsss."
HStem: 0 154<306 988> 1368 157<316.873 700.339>
VStem: 801 193<944.383 1267.16>
DStem2: 90 164 306 154 0.669251 0.743037<137.128 1077.98>
LayerCount: 2
Fore
SplineSet
144 1395 m 1
 227 1473 354 1525 548 1525 c 0
 820 1525 994 1365 994 1119 c 2
 994 1113 l 1
 992 925 891 781 728 605 c 1
 306 154 l 1
 999 154 l 1
 988 0 l 1
 113 0 l 1
 90 164 l 1
 607 738 l 2
 724 868 798 980 801 1097 c 1
 801 1107 l 2
 801 1272 706 1368 536 1368 c 0
 411 1368 286 1330 202 1245 c 1
 144 1395 l 1
EndSplineSet
EndChar

StartChar: twosuperior
Encoding: 178 178 447
Width: 763
VWidth: 0
Flags: W
HStem: 650 128<297 615> 1424 127<275.593 479.501>
VStem: 504 111<1173.13 1400.36>
LayerCount: 2
Fore
SplineSet
615 650 m 1
 134 650 l 1
 134 769 l 1
 348 1010 504 1183 504 1303 c 0
 504 1376 459 1424 380 1424 c 0
 304 1424 252 1371 217 1282 c 1
 143 1367 l 1
 183 1484 275 1551 387 1551 c 0
 518 1551 617 1454 617 1305 c 0
 617 1122 476 965 297 778 c 1
 615 778 l 1
 615 650 l 1
EndSplineSet
EndChar

StartChar: u
Encoding: 117 117 448
Width: 1100
VWidth: 0
Flags: W
PickledData: "(dp1
S'com.typemytype.robofont.layerData'
p2
(dp3
S'back'
p4
(dp5
S'name'
p6
S'u'
sS'lib'
p7
(dp8
sS'unicodes'
p9
(tsS'width'
p10
I1092
sS'contours'
p11
(tsS'components'
p12
(tsS'anchors'
p13
(tsss."
HStem: -25 138<362.262 731.092> 1078 20G<105 273 826 994>
VStem: 105 168<203.5 1098> 826 168<203.769 1098>
LayerCount: 2
Fore
SplineSet
105 366 m 2
 105 1098 l 1
 273 1098 l 1
 273 364 l 2
 273 167 391 113 551 113 c 0
 709 113 826 169 826 364 c 2
 826 1098 l 1
 994 1098 l 1
 994 366 l 2
 994 78 785 -25 551 -25 c 0
 317 -25 105 80 105 366 c 2
EndSplineSet
EndChar

StartChar: underscore
Encoding: 95 95 456
Width: 1252
VWidth: 0
Flags: W
HStem: -292 136<150 1102>
LayerCount: 2
Fore
SplineSet
1102 -156 m 1
 1102 -292 l 1
 150 -292 l 1
 150 -156 l 1
 1102 -156 l 1
EndSplineSet
EndChar

StartChar: uni00AD
Encoding: 173 173 459
Width: 1234
VWidth: 0
Flags: W
HStem: 0 148<133 1111>
LayerCount: 2
Fore
SplineSet
1111 0 m 1
 133 0 l 1
 133 148 l 1
 1111 148 l 1
 1111 0 l 1
EndSplineSet
EndChar

StartChar: uni00AF
Encoding: 175 175 460
Width: 1062
VWidth: 0
Flags: W
HStem: 1486 139<133 933>
LayerCount: 2
Fore
SplineSet
933 1625 m 1
 933 1486 l 1
 133 1486 l 1
 133 1625 l 1
 933 1625 l 1
EndSplineSet
EndChar

StartChar: uni018F
Encoding: 399 399 461
Width: 1432
VWidth: 0
Flags: W
HStem: -23 152<455.636 852.645> 631 146<217 1125> 1373 152<365.278 817.485>
VStem: 1125 197<463.897 631 777 1038.13>
LayerCount: 2
Fore
SplineSet
1125 631 m 1
 217 631 l 1
 231 417 308 129 665 129 c 0
 929 129 1092 351 1125 631 c 1
661 -23 m 0
 211 -23 51 337 37 641 c 1
 37 686 44 777 44 777 c 1
 1133 777 l 1
 1127 1086 977 1373 592 1373 c 0
 436 1373 319 1316 218 1250 c 1
 151 1384 l 1
 279 1479 401 1525 606 1525 c 0
 1076 1525 1322 1180 1322 757 c 0
 1322 309 1054 -23 661 -23 c 0
EndSplineSet
EndChar

StartChar: uni0259
Encoding: 601 601 502
Width: 1091
VWidth: 0
Flags: W
HStem: -25 136<377.097 670.562> 464 116<246 831> 980 144<276.103 659.456>
VStem: 84 162<261.585 464> 831 178<295.915 464 580 799>
LayerCount: 2
Fore
SplineSet
505 1124 m 0
 818 1124 1009 901 1009 548 c 0
 1009 220 818 -17 532 -25 c 1
 516 -25 l 2
 243 -25 84 181 84 505 c 0
 84 521 86 561 86 580 c 1
 837 580 l 1
 837 827 693 980 500 980 c 0
 344 980 230 923 152 870 c 1
 100 992 l 1
 190 1069 329 1124 505 1124 c 0
526 111 m 0
 692 111 812 248 831 464 c 1
 246 464 l 1
 246 230 363 111 526 111 c 0
EndSplineSet
EndChar

StartChar: uni030F
Encoding: 783 783 503
Width: 855
VWidth: 0
Flags: W
HStem: 1259 335
VStem: 109 620
LayerCount: 2
Fore
SplineSet
359 1259 m 1
 109 1594 l 1
 259 1594 l 1
 461 1259 l 1
 359 1259 l 1
627 1259 m 1
 380 1594 l 1
 531 1594 l 1
 729 1259 l 1
 627 1259 l 1
EndSplineSet
EndChar

StartChar: uni0311
Encoding: 785 785 504
Width: 767
VWidth: 0
Flags: W
HStem: 1440 117<280.947 486.546>
VStem: 134 116<1299 1405.77> 519 117<1299 1405.77>
LayerCount: 2
Fore
SplineSet
383 1557 m 0
 507 1557 636 1471 636 1299 c 1
 519 1299 l 1
 519 1395 456 1440 383 1440 c 0
 310 1440 250 1395 250 1299 c 1
 134 1299 l 1
 134 1471 260 1557 383 1557 c 0
EndSplineSet
EndChar

StartChar: uni0326
Encoding: 806 806 505
Width: 555
VWidth: 0
Flags: W
HStem: -672 498<238 261>
VStem: 144 260
LayerCount: 2
Fore
SplineSet
144 -672 m 1
 238 -174 l 1
 404 -174 l 1
 261 -672 l 1
 144 -672 l 1
EndSplineSet
EndChar

StartChar: uni0403
Encoding: 1027 1027 507
Width: 1008
VWidth: 0
Flags: W
HStem: 0 21G<147 324> 1343 153<324 1003>
VStem: 147 177<0 1343>
LayerCount: 2
Fore
SplineSet
1003 1343 m 1
 324 1343 l 1
 324 0 l 1
 147 0 l 1
 147 1496 l 1
 1003 1496 l 1
 1003 1343 l 1
EndSplineSet
EndChar

StartChar: uni0406
Encoding: 1030 1030 509
Width: 490
VWidth: 0
Flags: W
HStem: 0 21G<155 331> 1477 20G<155 331>
VStem: 155 176<0 1497>
LayerCount: 2
Fore
SplineSet
331 1497 m 1
 331 0 l 1
 155 0 l 1
 155 1497 l 1
 331 1497 l 1
EndSplineSet
EndChar

StartChar: uni0409
Encoding: 1033 1033 511
Width: 1825
VWidth: 0
Flags: W
HStem: -26 157<44 226.76> 0 155<1018 1436.98> 717 154<1018 1433.88> 1341 155<458 841>
VStem: 281 177<180.311 1341> 841 177<155 717 871 1341> 1563 182<271.088 595.218>
LayerCount: 2
Fore
SplineSet
1018 1496 m 1xbe
 1018 871 l 1
 1277 871 l 2
 1553 871 1745 743 1745 428 c 0
 1745 139 1561 0 1277 0 c 2
 841 0 l 1x7e
 841 1341 l 1
 458 1341 l 1
 458 433 l 2
 458 125 424 -26 72 -26 c 2
 44 -26 l 1
 44 131 l 1
 90 131 l 2
 271 131 281 236 281 384 c 2
 281 1496 l 1
 1018 1496 l 1xbe
1277 717 m 2
 1018 717 l 1
 1018 155 l 1
 1277 155 l 2
 1442 155 1563 255 1563 431 c 0
 1563 607 1446 717 1277 717 c 2
EndSplineSet
EndChar

StartChar: uni040A
Encoding: 1034 1034 512
Width: 1681
VWidth: 0
Flags: W
HStem: 0 160<926 1312.63> 716 155<324 749 926 1300.88> 1476 20G<147 324 749 926>
VStem: 147 177<0 716 871 1496> 749 177<160 716 871 1496> 1430 182<277.234 589.348>
LayerCount: 2
Fore
SplineSet
926 871 m 1
 1144 871 l 2
 1420 871 1612 743 1612 428 c 0
 1612 139 1428 0 1144 0 c 2
 749 0 l 1
 749 716 l 1
 324 716 l 1
 324 0 l 1
 147 0 l 1
 147 1496 l 1
 324 1496 l 1
 324 871 l 1
 749 871 l 1
 749 1496 l 1
 926 1496 l 1
 926 871 l 1
1144 716 m 2
 926 716 l 1
 926 160 l 1
 1144 160 l 2
 1309 160 1430 255 1430 431 c 0
 1430 607 1313 716 1144 716 c 2
EndSplineSet
EndChar

StartChar: uni0411
Encoding: 1041 1041 514
Width: 1190
VWidth: 0
Flags: W
HStem: 0 155<324 809.14> 716 155<324 805.936> 1341 155<324 1032>
VStem: 147 177<155 716 871 1341> 924 182<267.217 599.581>
LayerCount: 2
Fore
SplineSet
147 1496 m 1
 1032 1496 l 1
 1032 1341 l 1
 324 1341 l 1
 324 871 l 1
 638 871 l 2
 914 871 1106 742 1106 427 c 0
 1106 138 922 0 638 0 c 2
 147 0 l 1
 147 1496 l 1
924 429 m 0
 924 605 827 716 638 716 c 2
 324 716 l 1
 324 155 l 1
 638 155 l 2
 823 155 924 253 924 429 c 0
EndSplineSet
EndChar

StartChar: uni0412
Encoding: 1042 1042 515
Width: 1252
VWidth: 0
Flags: W
HStem: 0 142<324 862.676> 708 138<324 834.719> 1349 147<324 820.87>
VStem: 147 177<142 708 846 1349> 937 185<940.679 1250.86> 1004 180<267.467 588.893>
LayerCount: 2
Fore
SplineSet
147 0 m 1xf4
 147 1496 l 1
 554 1496 l 2
 915 1496 1122 1395 1122 1131 c 0xf8
 1122 988 1061 851 910 801 c 1
 1098 761 1184 585 1184 426 c 0
 1184 163 1030 0 641 0 c 2
 147 0 l 1xf4
324 1349 m 1
 324 846 l 1
 639 846 l 2
 778 846 937 885 937 1096 c 0
 937 1321 771 1349 528 1349 c 2
 324 1349 l 1
324 708 m 1
 324 142 l 1
 608 142 l 2
 868 142 1004 227 1004 428 c 0xf4
 1004 616 883 708 659 708 c 2
 324 708 l 1
EndSplineSet
EndChar

StartChar: uni0413
Encoding: 1043 1043 516
Width: 1008
VWidth: 0
Flags: W
HStem: 0 21G<146 323> 1341 155<323 1003>
VStem: 146 177<0 1341>
LayerCount: 2
Fore
SplineSet
1003 1341 m 1
 323 1341 l 1
 323 0 l 1
 146 0 l 1
 146 1496 l 1
 1018 1496 l 1
 1003 1341 l 1
EndSplineSet
EndChar

StartChar: uni0414
Encoding: 1044 1044 517
Width: 1387
VWidth: 0
Flags: W
HStem: -265 417<14 171 1193 1309> 0 152<367 1016> 1354 142<667 1016>
VStem: 14 177<-265 0> 1016 177<152 1354> 1132 177<-265 0>
LayerCount: 2
Fore
SplineSet
523 1496 m 1xb4
 1193 1496 l 1
 1193 152 l 1xb8
 1309 152 l 1
 1309 -265 l 1
 1132 -265 l 1xb4
 1132 0 l 1
 191 0 l 1x74
 191 -265 l 1
 14 -265 l 1
 14 152 l 1
 171 152 l 1
 523 1496 l 1xb4
1016 152 m 1x78
 1016 1354 l 1
 667 1354 l 1
 367 152 l 1
 1016 152 l 1x78
EndSplineSet
EndChar

StartChar: uni0415
Encoding: 1045 1045 518
Width: 1140
VWidth: 0
Flags: W
HStem: 0 155<324 1043> 692 153<324 987> 1341 155<324 1015>
VStem: 147 177<155 692 845 1341>
LayerCount: 2
Fore
SplineSet
987 845 m 1
 987 692 l 1
 324 692 l 1
 324 155 l 1
 1058 155 l 1
 1043 0 l 1
 147 0 l 1
 147 1496 l 1
 1029 1496 l 1
 1015 1341 l 1
 324 1341 l 1
 324 845 l 1
 987 845 l 1
EndSplineSet
EndChar

StartChar: uni041B
Encoding: 1051 1051 519
Width: 1223
VWidth: 0
Flags: W
HStem: 0 21G<27 219.056 899 1076> 1341 155<553 899>
VStem: 27 187<0 187> 899 177<0 1341>
DStem2: 27 0 214 0 0.243146 0.96999<45.4683 1428.65>
LayerCount: 2
Fore
SplineSet
27 0 m 1
 402 1496 l 1
 1076 1496 l 1
 1076 0 l 1
 899 0 l 1
 899 1341 l 1
 553 1341 l 1
 214 0 l 1
 27 0 l 1
EndSplineSet
EndChar

StartChar: uni041F
Encoding: 1055 1055 523
Width: 1463
VWidth: 0
Flags: W
HStem: 0 21G<147 324 1139 1316> 1342 154<324 1139>
VStem: 147 177<0 1342> 1139 177<0 1342>
LayerCount: 2
Fore
SplineSet
1139 1342 m 1
 324 1342 l 1
 324 0 l 1
 147 0 l 1
 147 1496 l 1
 1316 1496 l 1
 1316 0 l 1
 1139 0 l 1
 1139 1342 l 1
EndSplineSet
EndChar

StartChar: uni0420
Encoding: 1056 1056 524
Width: 1140
VWidth: 0
Flags: W
HStem: 0 21G<147 324> 626 153<324 818.795> 1341 155<324 821.654>
VStem: 147 177<0 626 779 1341> 929 180<890.16 1231.33>
LayerCount: 2
Fore
SplineSet
324 626 m 1
 324 0 l 1
 147 0 l 1
 147 1496 l 1
 641 1496 l 2
 925 1496 1109 1358 1109 1069 c 0
 1109 754 917 626 641 626 c 2
 324 626 l 1
645 779 m 2
 836 779 929 889 929 1066 c 0
 929 1243 830 1341 645 1341 c 2
 324 1341 l 1
 324 779 l 1
 645 779 l 2
EndSplineSet
EndChar

StartChar: uni0424
Encoding: 1060 1060 527
Width: 1727
VWidth: 0
Flags: W
HStem: 0 21G<774 937> 128 157<585.68 774 937 1141.7> 1205 157<585.68 774 937 1141.7> 1476 20G<774 937>
VStem: 101 189<543.435 946.345> 774 163<0 128 285 1205 1362 1496> 1437 189<538.485 951.621>
LayerCount: 2
Fore
SplineSet
937 1496 m 1
 937 1364 l 1
 1363 1335 1626 1120 1626 745 c 0
 1626 370 1363 155 937 126 c 1
 937 0 l 1
 774 0 l 1
 774 128 l 1
 342 165 101 391 101 745 c 0
 101 1099 342 1325 774 1362 c 1
 774 1496 l 1
 937 1496 l 1
937 1207 m 1
 937 284 l 1
 1283 316 1437 489 1437 745 c 0
 1437 1001 1283 1175 937 1207 c 1
774 1205 m 1
 443 1170 290 1000 290 745 c 0
 290 489 443 320 774 285 c 1
 774 1205 l 1
EndSplineSet
EndChar

StartChar: uni0428
Encoding: 1064 1064 529
Width: 1671
VWidth: 0
Flags: W
HStem: 0 155<324 746 923 1347> 1476 20G<147 324 746 923 1347 1524>
VStem: 147 177<155 1496> 746 177<155 1496> 1347 177<155 1496>
LayerCount: 2
Fore
SplineSet
324 155 m 1
 746 155 l 1
 746 1496 l 1
 923 1496 l 1
 923 155 l 1
 1347 155 l 1
 1347 1496 l 1
 1524 1496 l 1
 1524 0 l 1
 147 0 l 1
 147 1496 l 1
 324 1496 l 1
 324 155 l 1
EndSplineSet
EndChar

StartChar: uni042A
Encoding: 1066 1066 530
Width: 1424
VWidth: 0
Flags: W
HStem: 0 156<597 1049.33> 696 153<597 1049.33> 1341 155<35 420>
VStem: 420 177<156 696 849 1341> 1181 166<271.235 582.82>
LayerCount: 2
Fore
SplineSet
420 0 m 1
 420 1341 l 1
 35 1341 l 1
 35 1496 l 1
 597 1496 l 1
 597 849 l 1
 807 849 l 2
 1152 849 1347 717 1347 428 c 0
 1347 139 1152 0 807 0 c 2
 420 0 l 1
1181 431 m 0
 1181 593 1080 696 828 696 c 2
 597 696 l 1
 597 156 l 1
 828 156 l 2
 1076 156 1181 255 1181 431 c 0
EndSplineSet
EndChar

StartChar: uni042B
Encoding: 1067 1067 531
Width: 1583
VWidth: 0
Flags: W
HStem: 0 21G<1259 1436> 0 155<324 711.969> 696 153<324 717.574> 1476 20G<147 324 1259 1436>
VStem: 147 177<155 696 849 1496> 858 167<277.067 576.154> 1259 177<0 1496>
LayerCount: 2
Fore
SplineSet
1436 1496 m 1xbe
 1436 0 l 1
 1259 0 l 1
 1259 1496 l 1
 1436 1496 l 1xbe
EndSplineSet
Refer: 532 1068 N 1 0 0 1 0 0 2
EndChar

StartChar: uni042C
Encoding: 1068 1068 532
Width: 1144
VWidth: 0
Flags: W
HStem: 0 155<324 711.969> 696 153<324 717.574> 1476 20G<147 324>
VStem: 147 177<155 696 849 1496> 858 167<277.067 576.154>
LayerCount: 2
Fore
SplineSet
324 1496 m 1
 324 849 l 1
 460 849 l 2
 801 849 1025 706 1025 435 c 0
 1025 173 841 0 467 0 c 2
 147 0 l 1
 147 1496 l 1
 324 1496 l 1
324 696 m 1
 324 155 l 1
 487 155 l 2
 740 155 858 255 858 431 c 0
 858 600 743 696 480 696 c 2
 324 696 l 1
EndSplineSet
EndChar

StartChar: uni042E
Encoding: 1070 1070 533
Width: 2042
VWidth: 0
Flags: W
HStem: -23 152<1099.19 1477.2> 0 21G<147 324> 686 151<324 640> 1373 152<1098.94 1465.1> 1475 20G<147 324>
VStem: 147 177<0 686 837 1495> 637 188<475.377 686 837 1033.49> 1752 189<459.699 1025.24>
LayerCount: 2
Fore
SplineSet
1289 -23 m 0xb7
 893 -23 666 295 637 686 c 1
 324 686 l 1
 324 0 l 1
 147 0 l 1
 147 1495 l 1
 324 1495 l 1x6f
 324 837 l 1
 640 837 l 1
 672 1240 893 1525 1280 1525 c 0
 1699 1525 1941 1189 1941 742 c 0
 1941 322 1709 -23 1289 -23 c 0xb7
1282 1373 m 0xb7
 974 1373 825 1073 825 746 c 0
 825 420 981 129 1291 129 c 0
 1600 129 1752 415 1752 748 c 0
 1752 1065 1600 1373 1282 1373 c 0xb7
EndSplineSet
EndChar

StartChar: uni042F
Encoding: 1071 1071 534
Width: 1305
VWidth: 0
Flags: W
HStem: 0 21G<38 250.66 981 1158> 639 153<555.837 981> 1341 155<401.258 981>
VStem: 102 170<903.532 1230.06> 981 177<0 639 792 1341>
LayerCount: 2
Fore
SplineSet
981 0 m 1
 981 639 l 1
 796 639 l 2
 644 639 593 645 554 648 c 1
 241 0 l 1
 38 0 l 1
 118 172 376 680 376 681 c 0
 207 745 102 882 102 1074 c 0
 102 1363 303 1496 672 1496 c 2
 1158 1496 l 1
 1158 0 l 1
 981 0 l 1
631 792 m 2
 981 792 l 1
 981 1341 l 1
 631 1341 l 2
 378 1341 272 1248 272 1072 c 0
 272 903 350 792 631 792 c 2
EndSplineSet
EndChar

StartChar: uni0433
Encoding: 1075 1075 536
Width: 666
VWidth: 0
Flags: W
HStem: 0 21G<115 283> 956 142<283 649>
VStem: 115 168<0 956>
LayerCount: 2
Fore
SplineSet
649 956 m 1
 283 956 l 1
 283 0 l 1
 115 0 l 1
 115 1098 l 1
 649 1098 l 1
 649 956 l 1
EndSplineSet
EndChar

StartChar: uni0434
Encoding: 1076 1076 537
Width: 1104
VWidth: 0
Flags: W
HStem: -268 21G<10 168 873 1036> 0 134<294 781> 956 142<409 781>
VStem: 10 158<-268 0> 781 168<134 956> 873 163<-268 0>
LayerCount: 2
Fore
SplineSet
168 0 m 1xf4
 168 -268 l 1
 10 -268 l 1
 10 136 l 1
 106 136 l 1
 189 236 214 449 222 581 c 2
 254 1098 l 1
 949 1098 l 1
 949 134 l 1xf8
 1036 134 l 1
 1036 -268 l 1
 873 -268 l 1
 873 0 l 1
 168 0 l 1xf4
294 134 m 1
 781 134 l 1
 781 956 l 1
 409 956 l 1
 397 634 l 1
 368 462 334 296 294 134 c 1
EndSplineSet
EndChar

StartChar: uni0438
Encoding: 1080 1080 539
Width: 1117
VWidth: 0
Flags: W
HStem: 0 21G<115 288.04 834 1002> 1078 20G<115 283 834 1002>
VStem: 115 168<261 1098> 834 168<0 746 995 1098>
DStem2: 283 261 273 0 0.601028 0.799228<0 718.792>
LayerCount: 2
Fore
SplineSet
1002 0 m 1
 834 0 l 1
 834 746 l 1
 273 0 l 1
 115 0 l 1
 115 1098 l 1
 283 1098 l 1
 283 261 l 1
 834 995 l 1
 834 1098 l 1
 1002 1098 l 1
 1002 0 l 1
EndSplineSet
EndChar

StartChar: uni043B
Encoding: 1083 1083 541
Width: 1172
VWidth: 0
Flags: W
HStem: -25 153<24 172.641> 0 21G<889 1057> 956 142<370 889>
VStem: 202 168<152.003 956> 889 168<0 956>
LayerCount: 2
Fore
SplineSet
202 1098 m 1xb8
 1057 1098 l 1
 1057 0 l 1
 889 0 l 1x78
 889 956 l 1
 370 956 l 1
 370 419 l 2
 370 91 366 -25 61 -25 c 2
 24 -25 l 1
 14 128 l 1
 61 128 l 2
 200 128 202 185 202 409 c 2
 202 1098 l 1xb8
EndSplineSet
EndChar

StartChar: uni043C
Encoding: 1084 1084 542
Width: 1178
VWidth: 0
Flags: W
HStem: 0 21G<114 282 895 1063> 1078 20G<114 274.66 903.262 1063>
VStem: 114 168<0 811> 895 168<0 811>
DStem2: 262 1098 282 811 0.534857 -0.844943<253.196 609.509> 588 583 648 385 0.537193 0.843459<0 357.227>
LayerCount: 2
Fore
SplineSet
648 385 m 1
 541 385 l 1
 282 811 l 1
 282 0 l 1
 114 0 l 1
 114 1098 l 1
 262 1098 l 1
 588 583 l 1
 916 1098 l 1
 1063 1098 l 1
 1063 0 l 1
 895 0 l 1
 895 811 l 1
 648 385 l 1
EndSplineSet
EndChar

StartChar: uni043D
Encoding: 1085 1085 543
Width: 1117
VWidth: 0
Flags: W
HStem: 0 21G<115 283 834 1002> 518 135<283 834> 1078 20G<115 283 834 1002>
VStem: 115 168<0 518 653 1098> 834 168<0 518 653 1098>
LayerCount: 2
Fore
SplineSet
115 1098 m 1
 283 1098 l 1
 283 653 l 1
 834 653 l 1
 834 1098 l 1
 1002 1098 l 1
 1002 0 l 1
 834 0 l 1
 834 518 l 1
 283 518 l 1
 283 0 l 1
 115 0 l 1
 115 1098 l 1
EndSplineSet
EndChar

StartChar: uni043F
Encoding: 1087 1087 545
Width: 1194
VWidth: 0
Flags: W
HStem: 0 21G<152 320 871 1039> 956 142<320 871>
VStem: 152 168<0 956> 871 168<0 956>
LayerCount: 2
Fore
SplineSet
152 1098 m 1
 1039 1098 l 1
 1039 0 l 1
 871 0 l 1
 871 956 l 1
 320 956 l 1
 320 0 l 1
 152 0 l 1
 152 1098 l 1
EndSplineSet
EndChar

StartChar: uni0442
Encoding: 1090 1090 548
Width: 847
VWidth: 0
Flags: W
HStem: 0 21G<344 512> 956 142<43 344 512 805>
VStem: 344 168<0 956>
LayerCount: 2
Fore
SplineSet
43 1098 m 1
 805 1098 l 1
 805 956 l 1
 512 956 l 1
 512 0 l 1
 344 0 l 1
 344 956 l 1
 43 956 l 1
 43 1098 l 1
EndSplineSet
EndChar

StartChar: uni0443
Encoding: 1091 1091 549
Width: 1095
VWidth: 0
Flags: W
HStem: -410 165<119 355.189> 1078 20G<44 236.188 849.192 1039>
DStem2: 229 1098 44 1098 0.357631 -0.933863<0 951.898> 551 202 650 22 0.339988 0.94043<0 946.321>
LayerCount: 2
Fore
SplineSet
551 202 m 1
 856 1098 l 1
 1039 1098 l 1
 650 22 l 2
 534 -298 538 -410 176 -410 c 2
 119 -410 l 1
 93 -245 l 1
 166 -245 l 2
 374 -245 376 -210 453 30 c 1
 44 1098 l 1
 229 1098 l 1
 551 202 l 1
EndSplineSet
EndChar

StartChar: uni0444
Encoding: 1092 1092 550
Width: 1409
VWidth: 0
Flags: W
HStem: -195 21G<620 788> 32 136<376.317 617.773 790.226 1030.42> 934 136<372.773 617.704 790.294 1034.12>
VStem: 86 174<318.667 792.45> 620 168<-195 57 179.964 919.794 1039 1312> 1149 174<322.583 792.45>
LayerCount: 2
Fore
SplineSet
620 1312 m 1
 788 1312 l 1
 788 1039 l 1
 835 1058 882 1070 927 1070 c 0
 1164 1070 1323 844 1323 558 c 0
 1323 274 1162 32 928 32 c 0
 883 32 835 38 788 57 c 1
 788 -195 l 1
 620 -195 l 1
 620 57 l 1
 573 38 523 32 478 32 c 0
 245 32 86 273 86 558 c 0
 86 844 242 1070 480 1070 c 0
 523 1070 573 1058 620 1039 c 1
 620 1312 l 1
927 934 m 0
 882 934 839 927 788 902 c 1
 788 198 l 1
 836 173 881 168 924 168 c 0
 1065 168 1149 359 1149 556 c 0
 1149 755 1068 934 927 934 c 0
483 168 m 0
 526 168 572 174 620 196 c 1
 620 906 l 1
 569 931 523 934 480 934 c 0
 338 934 260 755 260 556 c 0
 260 359 341 168 483 168 c 0
EndSplineSet
EndChar

StartChar: uni0447
Encoding: 1095 1095 552
Width: 1030
VWidth: 0
Flags: W
HStem: 0 21G<747 915> 395 143<334.627 633.102> 1078 20G<74 242 747 915>
VStem: 74 168<637.125 1098> 747 168<0 548 654.094 1098>
LayerCount: 2
Fore
SplineSet
242 862 m 2
 242 622 322 538 488 538 c 0
 601 538 713 610 747 753 c 1
 747 1098 l 1
 915 1098 l 1
 915 0 l 1
 747 0 l 1
 747 548 l 1
 700 450 585 395 457 395 c 0
 202 395 74 568 74 844 c 2
 74 1098 l 1
 242 1098 l 1
 242 862 l 2
EndSplineSet
EndChar

StartChar: uni0448
Encoding: 1096 1096 553
Width: 1322
VWidth: 0
Flags: W
HStem: 0 144<283 577 745 1039> 1078 20G<115 283 577 745 1039 1207>
VStem: 115 168<144 1098> 577 168<144 1098> 1039 168<144 1098>
CounterMasks: 1 38
LayerCount: 2
Fore
SplineSet
283 144 m 1
 577 144 l 1
 577 1098 l 1
 745 1098 l 1
 745 144 l 1
 1039 144 l 1
 1039 1098 l 1
 1207 1098 l 1
 1207 0 l 1
 115 0 l 1
 115 1098 l 1
 283 1098 l 1
 283 144 l 1
EndSplineSet
EndChar

StartChar: uni044A
Encoding: 1098 1098 554
Width: 1152
VWidth: 0
Flags: W
HStem: 0 134<429 868.45> 520 136<429 872.246> 956 142<27 261>
VStem: 261 168<134 520 656 956> 938 162<204.762 451.11>
LayerCount: 2
Fore
SplineSet
429 1098 m 1
 429 656 l 1
 719 656 l 2
 986 656 1100 501 1100 337 c 0
 1100 166 992 0 725 0 c 2
 261 0 l 1
 261 956 l 1
 27 956 l 1
 27 1098 l 1
 429 1098 l 1
740 520 m 2
 429 520 l 1
 429 134 l 1
 746 134 l 2
 879 134 938 245 938 337 c 0
 938 421 873 520 740 520 c 2
EndSplineSet
EndChar

StartChar: uni044E
Encoding: 1102 1102 555
Width: 1468
VWidth: 0
Flags: W
HStem: -25 138<779.534 1065.52> 0 21G<115 283> 478 140<283 461.468> 986 138<780.573 1072.34> 1078 20G<115 283>
VStem: 115 168<0 478 618 1098> 458 171<293.445 478 618 799.815> 1207 174<279.308 822.353>
LayerCount: 2
Fore
SplineSet
1381 549 m 0x37
 1381 245 1252 -25 923 -25 c 0xb7
 616 -25 477 195 458 478 c 1
 283 478 l 1
 283 0 l 1
 115 0 l 1
 115 1098 l 1
 283 1098 l 1x6f
 283 618 l 1
 458 618 l 1
 478 900 619 1124 926 1124 c 0
 1262 1124 1381 865 1381 549 c 0x37
926 113 m 0
 1143 113 1207 323 1207 547 c 0
 1207 780 1150 986 923 986 c 0
 707 986 629 768 629 544 c 0
 629 323 706 113 926 113 c 0
EndSplineSet
EndChar

StartChar: uni0456
Encoding: 1110 1110 559
Width: 489
VWidth: 0
Flags: W
HStem: 0 21G<160 329> 1078 20G<160 329> 1292 198<160 329>
VStem: 160 169<0 1098 1292 1490>
LayerCount: 2
Fore
SplineSet
329 1098 m 1
 329 0 l 1
 160 0 l 1
 160 1098 l 1
 329 1098 l 1
329 1490 m 1
 329 1292 l 1
 160 1292 l 1
 160 1490 l 1
 329 1490 l 1
EndSplineSet
EndChar

StartChar: uni2206
Encoding: 8710 8710 578
Width: 1339
VWidth: 0
Flags: W
HStem: 0 174<284 1062>
DStem2: 83 86 284 174 0.322078 0.946713<148.048 1349.09> 768 1541 668 1312 0.322078 -0.946713<184.59 1388.85>
LayerCount: 2
Fore
SplineSet
1263 86 m 1
 1263 0 l 1
 83 0 l 1
 83 86 l 1
 578 1541 l 1
 768 1541 l 1
 1263 86 l 1
284 174 m 1
 1062 174 l 1
 704 1195 l 1
 668 1312 l 1
 636 1195 l 1
 284 174 l 1
EndSplineSet
EndChar

StartChar: upsilon
Encoding: 965 965 580
Width: 468
VWidth: 0
Flags: W
HStem: 532 264<135.446 338.917>
VStem: 104 266<562.284 765.716>
LayerCount: 2
Fore
SplineSet
237 796 m 0
 326 796 370 730 370 664 c 0
 370 598 326 532 237 532 c 0
 149 532 104 598 104 664 c 0
 104 730 149 796 237 796 c 0
EndSplineSet
EndChar

StartChar: upsilondieresis
Encoding: 971 971 581
Width: 468
VWidth: 0
Flags: W
HStem: 532 264<135.446 338.917>
VStem: 104 266<562.284 765.716>
LayerCount: 2
Fore
SplineSet
237 796 m 0
 326 796 370 730 370 664 c 0
 370 598 326 532 237 532 c 0
 149 532 104 598 104 664 c 0
 104 730 149 796 237 796 c 0
EndSplineSet
EndChar

StartChar: upsilondieresistonos
Encoding: 944 944 582
Width: 468
VWidth: 0
Flags: W
HStem: 532 264<135.446 338.917>
VStem: 104 266<562.284 765.716>
LayerCount: 2
Fore
SplineSet
237 796 m 0
 326 796 370 730 370 664 c 0
 370 598 326 532 237 532 c 0
 149 532 104 598 104 664 c 0
 104 730 149 796 237 796 c 0
EndSplineSet
EndChar

StartChar: upsilontonos
Encoding: 973 973 583
Width: 468
VWidth: 0
Flags: W
HStem: 532 264<135.446 338.917>
VStem: 104 266<562.284 765.716>
LayerCount: 2
Fore
SplineSet
237 796 m 0
 326 796 370 730 370 664 c 0
 370 598 326 532 237 532 c 0
 149 532 104 598 104 664 c 0
 104 730 149 796 237 796 c 0
EndSplineSet
EndChar

StartChar: v
Encoding: 118 118 586
Width: 1036
VWidth: 0
Flags: W
PickledData: "(dp1
S'com.typemytype.robofont.layerData'
p2
(dp3
S'back'
p4
(dp5
S'name'
p6
S'v'
sS'lib'
p7
(dp8
sS'unicodes'
p9
(tsS'width'
p10
I1036
sS'contours'
p11
(tsS'components'
p12
(tsS'anchors'
p13
(tsss."
HStem: 0 21G<425.095 609.814> 1078 20G<-1 186.571 844.845 1031>
DStem2: 179 1098 -1 1098 0.367591 -0.929988<0 977.195>
LayerCount: 2
Fore
SplineSet
433 0 m 1
 -1 1098 l 1
 179 1098 l 1
 525 184 l 1
 852 1098 l 1
 1031 1098 l 1
 602 0 l 1
 433 0 l 1
EndSplineSet
EndChar

StartChar: w
Encoding: 119 119 587
Width: 1619
VWidth: 0
Flags: W
PickledData: "(dp1
S'com.typemytype.robofont.layerData'
p2
(dp3
S'back'
p4
(dp5
S'name'
p6
S'w'
sS'lib'
p7
(dp8
sS'unicodes'
p9
(tsS'width'
p10
I1619
sS'contours'
p11
(tsS'components'
p12
(tsS'anchors'
p13
(tsss."
HStem: 0 21G<336.044 517.616 1102.73 1280.99> 1078 20G<15 193.6 715.394 925.429 1428.6 1604>
VStem: 15 173<925 1098> 1434 170<928 1098>
DStem2: 188 1098 15 1098 0.285425 -0.958401<0 908.53> 433 223 511 0 0.314079 0.949397<0 790.245> 919 1098 818 928 0.299212 -0.954187<131.991 914.876> 1199 227 1275 0 0.287028 0.957922<0 901.802>
LayerCount: 2
Fore
SplineSet
15 1098 m 1
 188 1098 l 1
 433 223 l 1
 722 1098 l 1
 919 1098 l 1
 1199 227 l 1
 1434 1098 l 1
 1604 1098 l 1
 1275 0 l 1
 1109 0 l 1
 818 928 l 1
 511 0 l 1
 342 0 l 1
 15 1098 l 1
EndSplineSet
EndChar

StartChar: x
Encoding: 120 120 592
Width: 1042
VWidth: 0
Flags: W
PickledData: "(dp1
S'com.typemytype.robofont.layerData'
p2
(dp3
S'back'
p4
(dp5
S'name'
p6
S'x'
sS'lib'
p7
(dp8
sS'unicodes'
p9
(tsS'width'
p10
I1042
sS'contours'
p11
(tsS'components'
p12
(tsS'anchors'
p13
(tsss."
HStem: 0 21G<24 231.077 821.877 1018> 1078 20G<34 241.279 808.625 1018>
VStem: 24 193<0 193 905 1098> 836 182<0 182 916 1098>
DStem2: 24 0 217 0 0.589352 0.807876<113.745 650.512 845.648 1357.94> 227 1098 34 1098 0.589832 -0.807526<0 511.111 708.519 1245.87>
LayerCount: 2
Fore
SplineSet
823 1098 m 1
 1018 1098 l 1
 624 552 l 1
 1018 0 l 1
 836 0 l 1
 526 439 l 1
 217 0 l 1
 24 0 l 1
 426 556 l 1
 34 1098 l 1
 227 1098 l 1
 524 682 l 1
 823 1098 l 1
EndSplineSet
EndChar

StartChar: xi
Encoding: 958 958 593
Width: 468
VWidth: 0
Flags: W
HStem: 532 264<135.446 338.917>
VStem: 104 266<562.284 765.716>
LayerCount: 2
Fore
SplineSet
237 796 m 0
 326 796 370 730 370 664 c 0
 370 598 326 532 237 532 c 0
 149 532 104 598 104 664 c 0
 104 730 149 796 237 796 c 0
EndSplineSet
EndChar

StartChar: y
Encoding: 121 121 594
Width: 1012
VWidth: 0
Flags: W
PickledData: "(dp1
S'com.typemytype.robofont.layerData'
p2
(dp3
S'back'
p4
(dp5
S'name'
p6
S'y'
sS'lib'
p7
(dp8
sS'unicodes'
p9
(tsS'width'
p10
I1012
sS'contours'
p11
(tsS'components'
p12
(tsS'anchors'
p13
(tsss."
HStem: -502 151<36 263.456> 1078 20G<4 187.767 816 986.019>
VStem: 816 177<921 1098>
DStem2: 180 1098 4 1098 0.369154 -0.929368<0 955.794>
LayerCount: 2
Fore
SplineSet
180 1098 m 1
 526 207 l 1
 613 470 815 1099 816 1098 c 1
 993 1098 l 1
 593 -48 l 2
 501 -314 400 -502 89 -502 c 2
 36 -502 l 1
 17 -351 l 1
 46 -351 l 2
 282 -351 316 -314 431 23 c 1
 4 1098 l 1
 180 1098 l 1
EndSplineSet
EndChar

StartChar: yen
Encoding: 165 165 598
Width: 1099
VWidth: 0
Flags: W
HStem: 0 21G<473 625> 330 122<82 472 625 1002> 646 121<85 436 650 999> 1476 20G<19 209.337 898.406 1080>
VStem: 473 152<0 330 452 646> 910 170<1326 1496>
DStem2: 198 1496 19 1496 0.496524 -0.868023<0 713.819> 550 875 650 767 0.508052 0.861326<0 717.782>
LayerCount: 2
Fore
SplineSet
625 330 m 1
 625 0 l 1
 473 0 l 1
 473 330 l 1
 82 330 l 1
 82 452 l 1
 472 452 l 1
 472 646 l 1
 85 646 l 1
 85 767 l 1
 436 767 l 1
 19 1496 l 1
 198 1496 l 1
 550 875 l 1
 910 1496 l 1
 1080 1496 l 1
 650 767 l 1
 999 767 l 1
 999 646 l 1
 624 646 l 1
 624 452 l 1
 1002 452 l 1
 1002 330 l 1
 625 330 l 1
EndSplineSet
EndChar

StartChar: z
Encoding: 122 122 600
Width: 866
VWidth: 0
Flags: W
PickledData: "(dp1
S'com.typemytype.robofont.layerData'
p2
(dp3
S'back'
p4
(dp5
S'name'
p6
S'z'
sS'lib'
p7
(dp8
sS'unicodes'
p9
(tsS'width'
p10
I866
sS'contours'
p11
(tsS'components'
p12
(tsS'anchors'
p13
(tsss."
HStem: 0 136<271 821> 964 134<78 609>
DStem2: 84 139 271 136 0.539111 0.842234<98.2871 977.877>
LayerCount: 2
Fore
SplineSet
84 139 m 1
 609 964 l 1
 78 964 l 1
 78 1098 l 1
 801 1098 l 1
 801 964 l 1
 271 136 l 1
 821 136 l 1
 821 0 l 1
 84 0 l 1
 84 139 l 1
EndSplineSet
EndChar

StartChar: zero
Encoding: 48 48 604
Width: 1241
VWidth: 0
Flags: W
HStem: -23 152<493.543 750.392> 1373 152<488.66 755.259>
VStem: 109 192<410.887 1098.16> 943 189<410.887 1098.16>
LayerCount: 2
Fore
SplineSet
622 -23 m 0
 258 -23 109 312 109 751 c 0
 109 1210 273 1525 622 1525 c 0
 971 1525 1132 1210 1132 751 c 0
 1132 312 986 -23 622 -23 c 0
622 1373 m 0
 414 1373 301 1113 301 757 c 0
 301 394 414 129 622 129 c 0
 830 129 943 394 943 757 c 0
 943 1113 830 1373 622 1373 c 0
EndSplineSet
EndChar

StartChar: zeta
Encoding: 950 950 605
Width: 468
VWidth: 0
Flags: W
HStem: 532 264<135.446 338.917>
VStem: 104 266<562.284 765.716>
LayerCount: 2
Fore
SplineSet
237 796 m 0
 326 796 370 730 370 664 c 0
 370 598 326 532 237 532 c 0
 149 532 104 598 104 664 c 0
 104 730 149 796 237 796 c 0
EndSplineSet
EndChar
